SplineFontDB: 3.2
FontName: FiraSans-Light
FullName: Fira Sans Light
FamilyName: Fira Sans Light
Weight: Light
Copyright: Digitized data copyright 2012-2016, The Mozilla Foundation and Telefonica S.A.
Version: 4.203
ItalicAngle: 0
UnderlinePosition: -100
UnderlineWidth: 50
Ascent: 800
Descent: 200
InvalidEm: 0
sfntRevision: 0x000433f7
LayerCount: 2
Layer: 0 1 "Back" 1
Layer: 1 1 "Fore" 0
XUID: [1021 72 554175584 6442538]
StyleMap: 0x0040
FSType: 0
OS2Version: 4
OS2_WeightWidthSlopeOnly: 0
OS2_UseTypoMetrics: 1
CreationTime: 1476947922
ModificationTime: 1480667555
PfmFamily: 17
TTFWeight: 300
TTFWidth: 5
LineGap: 0
VLineGap: 0
Panose: 2 11 4 3 5 0 0 2 0 4
OS2TypoAscent: 935
OS2TypoAOffset: 0
OS2TypoDescent: -265
OS2TypoDOffset: 0
OS2TypoLinegap: 0
OS2WinAscent: 935
OS2WinAOffset: 0
OS2WinDescent: 265
OS2WinDOffset: 0
HheadAscent: 935
HheadAOffset: 0
HheadDescent: -265
HheadDOffset: 0
OS2SubXSize: 650
OS2SubYSize: 600
OS2SubXOff: 0
OS2SubYOff: 75
OS2SupXSize: 650
OS2SupYSize: 600
OS2SupXOff: 0
OS2SupYOff: 350
OS2StrikeYSize: 50
OS2StrikeYPos: 313
OS2CapHeight: 685
OS2XHeight: 523
OS2Vendor: 'CTDB'
OS2CodePages: 2000019f.00000000
OS2UnicodeRanges: 600002ff.00000001.00000000.00000000
Lookup: 1 0 0 "'aalt' Access All Alternates lookup 0" { "'aalt' Access All Alternates lookup 0 subtable"  } ['aalt' ('DFLT' <'dflt' > 'cyrl' <'dflt' > 'grek' <'dflt' > 'latn' <'AFK ' 'AZE ' 'CAT ' 'CRT ' 'KAZ ' 'MOL ' 'PLK ' 'ROM ' 'TAT ' 'TRK ' 'dflt' > ) ]
Lookup: 3 0 0 "'aalt' Access All Alternates lookup 1" { "'aalt' Access All Alternates lookup 1 subtable"  } ['aalt' ('DFLT' <'dflt' > 'cyrl' <'dflt' > 'grek' <'dflt' > 'latn' <'AFK ' 'AZE ' 'CAT ' 'CRT ' 'KAZ ' 'MOL ' 'PLK ' 'ROM ' 'TAT ' 'TRK ' 'dflt' > ) ]
Lookup: 1 0 0 "'locl' Localized Forms in Latin lookup 2" { "'locl' Localized Forms in Latin lookup 2 subtable"  } ['locl' ('latn' <'TAT ' > ) ]

StartChar: .notdef
Encoding: 65536 -1 0
Width: 666
GlyphClass: 1
Flags: W
LayerCount: 2
Fore
SplineSet
543 1050 m 1,0,-1
 543 -350 l 1,1,-1
 123 -350 l 1,2,-1
 123 1050 l 1,3,-1
 543 1050 l 1,0,-1
489 998 m 1,4,-1
 178 998 l 1,5,-1
 178 -298 l 1,6,-1
 489 -298 l 1,7,-1
 489 998 l 1,4,-1
409.5 419 m 128,-1,9
 435 387 435 387 435 336 c 0,10,11
 435 283 435 283 412.5 254 c 128,-1,12
 390 225 390 225 340 218 c 1,13,-1
 340 173 l 2,14,15
 340 162 340 162 332.5 155.5 c 128,-1,16
 325 149 325 149 315 149 c 256,17,18
 305 149 305 149 297.5 155.5 c 128,-1,19
 290 162 290 162 290 173 c 2,20,-1
 290 257 l 1,21,22
 343 260 343 260 362 276.5 c 128,-1,23
 381 293 381 293 381 334 c 0,24,25
 381 367 381 367 368 385 c 128,-1,26
 355 403 355 403 320 403 c 0,27,28
 291 403 291 403 268 392 c 0,29,30
 260 389 260 389 255 389 c 0,31,32
 244 389 244 389 237.5 395.5 c 128,-1,33
 231 402 231 402 231 412 c 0,34,35
 231 431 231 431 260.5 441 c 128,-1,36
 290 451 290 451 324 451 c 0,37,8
 384 451 384 451 409.5 419 c 128,-1,9
340 110 m 128,-1,39
 350 100 350 100 350 85 c 0,40,41
 350 69 350 69 340 58.5 c 128,-1,42
 330 48 330 48 315 48 c 256,43,44
 300 48 300 48 290 58.5 c 128,-1,45
 280 69 280 69 280 85 c 0,46,47
 280 100 280 100 290 110 c 128,-1,48
 300 120 300 120 315 120 c 256,49,38
 330 120 330 120 340 110 c 128,-1,39
EndSplineSet
EndChar

StartChar: A
Encoding: 65 65 3
Width: 565
GlyphClass: 2
Flags: W
AnchorPoint: "Anchor-18" 0 0 basechar 0
AnchorPoint: "Anchor-17" 0 0 basechar 0
AnchorPoint: "Anchor-16" 283 685 basechar 0
AnchorPoint: "Anchor-15" 540 0 basechar 0
AnchorPoint: "Anchor-14" 283 0 basechar 0
LayerCount: 2
Fore
SplineSet
485 0 m 1,0,-1
 425 187 l 1,1,-1
 137 187 l 1,2,-1
 77 0 l 1,3,-1
 16 0 l 1,4,-1
 245 685 l 1,5,-1
 320 685 l 1,6,-1
 548 0 l 1,7,-1
 485 0 l 1,0,-1
154 238 m 1,8,-1
 409 238 l 1,9,-1
 282 636 l 1,10,-1
 154 238 l 1,8,-1
EndSplineSet
Substitution2: "Single Substitution lookup 45 subtable" ordfeminine
Substitution2: "'c2sc' Capitals to Small Capitals lookup 26 subtable" a.sc
AlternateSubs2: "'aalt' Access All Alternates lookup 1 subtable" ordfeminine a.sc
Position2: "'cpsp' Capital Spacing lookup 0 subtable" dx=5 dy=0 dh=10 dv=0
EndChar

StartChar: uni2C6D
Encoding: 11373 11373 27
Width: 676
GlyphClass: 2
Flags: W
AnchorPoint: "Anchor-18" 0 0 basechar 0
AnchorPoint: "Anchor-17" 0 0 basechar 0
AnchorPoint: "Anchor-16" 338 685 basechar 0
AnchorPoint: "Anchor-15" 0 0 basechar 0
AnchorPoint: "Anchor-14" 338 0 basechar 0
LayerCount: 2
Fore
SplineSet
571.5 66.5 m 128,-1,1
 582 50 582 50 608 39 c 1,2,-1
 589 -8 l 1,3,4
 550 3 550 3 530.5 22 c 128,-1,5
 511 41 511 41 504 74 c 1,6,7
 437 -11 437 -11 329 -11 c 0,8,9
 254 -11 254 -11 194.5 27.5 c 128,-1,10
 135 66 135 66 100.5 143 c 128,-1,11
 66 220 66 220 66 329 c 0,12,13
 66 445 66 445 100.5 527.5 c 128,-1,14
 135 610 135 610 196 653 c 128,-1,15
 257 696 257 696 335 696 c 0,16,17
 436 696 436 696 503 621 c 1,18,-1
 508 685 l 1,19,-1
 561 685 l 1,20,-1
 561 122 l 2,21,0
 561 83 561 83 571.5 66.5 c 128,-1,1
426.5 63 m 128,-1,23
 467 86 467 86 501 128 c 1,24,-1
 501 567 l 1,25,26
 471 605 471 605 430.5 625 c 128,-1,27
 390 645 390 645 340 645 c 0,28,29
 244 645 244 645 186.5 565.5 c 128,-1,30
 129 486 129 486 129 329 c 0,31,32
 129 232 129 232 156 167 c 128,-1,33
 183 102 183 102 229 71 c 128,-1,34
 275 40 275 40 333 40 c 0,35,22
 386 40 386 40 426.5 63 c 128,-1,23
EndSplineSet
Substitution2: "'c2sc' Capitals to Small Capitals lookup 26 subtable" uni0251.sc
Substitution2: "'aalt' Access All Alternates lookup 0 subtable" uni0251.sc
Position2: "'cpsp' Capital Spacing lookup 0 subtable" dx=5 dy=0 dh=10 dv=0
EndChar

StartChar: Aogonek
Encoding: 260 260 29
Width: 565
GlyphClass: 2
Flags: W
AnchorPoint: "Anchor-18" 0 0 basechar 0
AnchorPoint: "Anchor-17" 0 0 basechar 0
AnchorPoint: "Anchor-16" 283 685 basechar 0
AnchorPoint: "Anchor-15" 540 0 basechar 0
AnchorPoint: "Anchor-14" 283 0 basechar 0
LayerCount: 2
Fore
SplineSet
435.5 -56.5 m 128,-1,1
 408 -83 408 -83 408 -118 c 0,2,3
 408 -142 408 -142 423.5 -156 c 128,-1,4
 439 -170 439 -170 471 -170 c 0,5,6
 498 -170 498 -170 529 -163 c 1,7,-1
 523 -211 l 1,8,9
 488 -218 488 -218 465 -218 c 0,10,11
 412 -218 412 -218 383 -192.5 c 128,-1,12
 354 -167 354 -167 354 -126 c 0,13,14
 354 -83 354 -83 385.5 -50 c 128,-1,15
 417 -17 417 -17 482 11 c 1,16,-1
 425 187 l 1,17,-1
 137 187 l 1,18,-1
 77 0 l 1,19,-1
 16 0 l 1,20,-1
 245 685 l 1,21,-1
 320 685 l 1,22,-1
 548 0 l 1,23,-1
 530 0 l 1,24,0
 463 -30 463 -30 435.5 -56.5 c 128,-1,1
154 238 m 1,25,-1
 409 238 l 1,26,-1
 282 636 l 1,27,-1
 154 238 l 1,25,-1
EndSplineSet
Substitution2: "'c2sc' Capitals to Small Capitals lookup 26 subtable" aogonek.sc
Substitution2: "'aalt' Access All Alternates lookup 0 subtable" aogonek.sc
Position2: "'cpsp' Capital Spacing lookup 0 subtable" dx=5 dy=0 dh=10 dv=0
EndChar

StartChar: uni023A
Encoding: 570 570 32
Width: 565
GlyphClass: 2
Flags: W
AnchorPoint: "Anchor-18" 0 0 basechar 0
AnchorPoint: "Anchor-17" 0 0 basechar 0
AnchorPoint: "Anchor-16" 282 685 basechar 0
AnchorPoint: "Anchor-15" 0 0 basechar 0
AnchorPoint: "Anchor-14" 282 0 basechar 0
LayerCount: 2
Fore
SplineSet
486 0 m 1,0,-1
 426 187 l 1,1,-1
 272 187 l 1,2,-1
 204 -70 l 1,3,-1
 171 -62 l 1,4,-1
 236 187 l 1,5,-1
 135 187 l 1,6,-1
 75 0 l 1,7,-1
 16 0 l 1,8,-1
 245 685 l 1,9,-1
 320 685 l 1,10,-1
 346 606 l 1,11,-1
 383 745 l 1,12,-1
 416 736 l 1,13,-1
 366 546 l 1,14,-1
 548 0 l 1,15,-1
 486 0 l 1,0,-1
152 237 m 1,16,-1
 250 237 l 1,17,-1
 322 514 l 1,18,-1
 282 640 l 1,19,-1
 152 237 l 1,16,-1
285 237 m 1,20,-1
 410 237 l 1,21,-1
 342 453 l 1,22,-1
 285 237 l 1,20,-1
EndSplineSet
Substitution2: "'c2sc' Capitals to Small Capitals lookup 26 subtable" uni2C65.sc
Substitution2: "'aalt' Access All Alternates lookup 0 subtable" uni2C65.sc
Position2: "'cpsp' Capital Spacing lookup 0 subtable" dx=5 dy=0 dh=10 dv=0
EndChar

StartChar: AE
Encoding: 198 198 34
Width: 784
GlyphClass: 2
Flags: W
AnchorPoint: "Anchor-18" 0 0 basechar 0
AnchorPoint: "Anchor-17" 0 0 basechar 0
AnchorPoint: "Anchor-16" 456 685 basechar 0
AnchorPoint: "Anchor-15" 0 0 basechar 0
AnchorPoint: "Anchor-14" 392 0 basechar 0
LayerCount: 2
Fore
SplineSet
509 50 m 1,0,-1
 737 50 l 1,1,-1
 737 0 l 1,2,-1
 461 0 l 1,3,-1
 415 184 l 1,4,-1
 130 184 l 1,5,-1
 60 0 l 1,6,-1
 0 0 l 1,7,-1
 267 685 l 1,8,-1
 690 685 l 1,9,-1
 683 635 l 1,10,-1
 358 635 l 1,11,-1
 424 379 l 1,12,-1
 682 379 l 1,13,-1
 682 330 l 1,14,-1
 437 330 l 1,15,-1
 509 50 l 1,0,-1
149 235 m 1,16,-1
 402 235 l 1,17,-1
 302 637 l 1,18,-1
 149 235 l 1,16,-1
EndSplineSet
Substitution2: "'c2sc' Capitals to Small Capitals lookup 26 subtable" ae.sc
Substitution2: "'aalt' Access All Alternates lookup 0 subtable" ae.sc
Position2: "'cpsp' Capital Spacing lookup 0 subtable" dx=5 dy=0 dh=10 dv=0
EndChar

StartChar: B
Encoding: 66 66 37
Width: 598
GlyphClass: 2
Flags: W
AnchorPoint: "Anchor-18" 0 0 basechar 0
AnchorPoint: "Anchor-17" 0 0 basechar 0
AnchorPoint: "Anchor-16" 296 685 basechar 0
AnchorPoint: "Anchor-15" 0 0 basechar 0
AnchorPoint: "Anchor-14" 310 0 basechar 0
LayerCount: 2
Fore
SplineSet
500 313.5 m 128,-1,1
 544 272 544 272 544 190 c 0,2,3
 544 94 544 94 479 47 c 128,-1,4
 414 0 414 0 298 0 c 2,5,-1
 111 0 l 1,6,-1
 111 685 l 1,7,-1
 264 685 l 2,8,9
 383 685 383 685 447.5 642 c 128,-1,10
 512 599 512 599 512 514 c 0,11,12
 512 451 512 451 477.5 412 c 128,-1,13
 443 373 443 373 386 363 c 1,14,0
 456 355 456 355 500 313.5 c 128,-1,1
171 635 m 1,15,-1
 171 384 l 1,16,-1
 309 384 l 2,17,18
 373 384 373 384 412 417.5 c 128,-1,19
 451 451 451 451 451 510 c 0,20,21
 451 577 451 577 405.5 606 c 128,-1,22
 360 635 360 635 270 635 c 2,23,-1
 171 635 l 1,15,-1
482 190 m 0,25,26
 482 264 482 264 436.5 300 c 128,-1,27
 391 336 391 336 316 336 c 2,28,-1
 171 336 l 1,29,-1
 171 50 l 1,30,-1
 298 50 l 2,31,24
 482 50 482 50 482 190 c 0,25,26
EndSplineSet
Substitution2: "'c2sc' Capitals to Small Capitals lookup 26 subtable" b.sc
Substitution2: "'aalt' Access All Alternates lookup 0 subtable" b.sc
Position2: "'cpsp' Capital Spacing lookup 0 subtable" dx=5 dy=0 dh=10 dv=0
EndChar

StartChar: uniA7B4
Encoding: 42932 42932 40
Width: 598
GlyphClass: 2
Flags: W
AnchorPoint: "Anchor-18" 0 0 basechar 0
AnchorPoint: "Anchor-17" 0 0 basechar 0
AnchorPoint: "Anchor-16" 299 685 basechar 0
AnchorPoint: "Anchor-15" 0 0 basechar 0
AnchorPoint: "Anchor-14" 299 -197 basechar 0
LayerCount: 2
Fore
SplineSet
500 315.5 m 128,-1,1
 544 276 544 276 544 197 c 0,2,3
 544 101 544 101 482.5 50.5 c 128,-1,4
 421 0 421 0 317 0 c 0,5,6
 242 0 242 0 171 24 c 1,7,-1
 171 -197 l 1,8,-1
 111 -197 l 1,9,-1
 111 685 l 1,10,-1
 264 685 l 2,11,12
 383 685 383 685 447.5 642 c 128,-1,13
 512 599 512 599 512 514 c 0,14,15
 512 451 512 451 477.5 412 c 128,-1,16
 443 373 443 373 386 363 c 1,17,0
 456 355 456 355 500 315.5 c 128,-1,1
437 86.5 m 128,-1,19
 482 123 482 123 482 197 c 0,20,21
 482 268 482 268 436.5 302 c 128,-1,22
 391 336 391 336 316 336 c 2,23,-1
 247 336 l 1,24,-1
 254 384 l 1,25,-1
 309 384 l 2,26,27
 373 384 373 384 412 417.5 c 128,-1,28
 451 451 451 451 451 510 c 0,29,30
 451 577 451 577 405.5 606 c 128,-1,31
 360 635 360 635 270 635 c 2,32,-1
 171 635 l 1,33,-1
 171 72 l 1,34,35
 240 50 240 50 317 50 c 0,36,18
 392 50 392 50 437 86.5 c 128,-1,19
EndSplineSet
Substitution2: "'c2sc' Capitals to Small Capitals lookup 26 subtable" uniA7B5.sc
Substitution2: "'aalt' Access All Alternates lookup 0 subtable" uniA7B5.sc
Position2: "'cpsp' Capital Spacing lookup 0 subtable" dx=5 dy=0 dh=10 dv=0
EndChar

StartChar: uni0181
Encoding: 385 385 41
Width: 658
GlyphClass: 2
Flags: W
AnchorPoint: "Anchor-18" 0 0 basechar 0
AnchorPoint: "Anchor-17" 0 0 basechar 0
AnchorPoint: "Anchor-16" 356 685 basechar 0
AnchorPoint: "Anchor-15" 0 0 basechar 0
AnchorPoint: "Anchor-14" 370 0 basechar 0
LayerCount: 2
Fore
SplineSet
560 313.5 m 128,-1,1
 604 272 604 272 604 190 c 0,2,3
 604 94 604 94 539 47 c 128,-1,4
 474 0 474 0 358 0 c 2,5,-1
 171 0 l 1,6,-1
 171 636 l 1,7,-1
 142 636 l 2,8,9
 106 636 106 636 88.5 619 c 128,-1,10
 71 602 71 602 71 573 c 0,11,12
 71 553 71 553 76.5 537 c 128,-1,13
 82 521 82 521 93 498 c 1,14,-1
 51 476 l 1,15,16
 33 503 33 503 24 524 c 128,-1,17
 15 545 15 545 15 574 c 0,18,19
 15 624 15 624 49 654.5 c 128,-1,20
 83 685 83 685 146 685 c 2,21,-1
 324 685 l 2,22,23
 443 685 443 685 507.5 642 c 128,-1,24
 572 599 572 599 572 514 c 0,25,26
 572 451 572 451 537.5 412 c 128,-1,27
 503 373 503 373 446 363 c 1,28,0
 516 355 516 355 560 313.5 c 128,-1,1
231 635 m 1,29,-1
 231 384 l 1,30,-1
 369 384 l 2,31,32
 433 384 433 384 472 417.5 c 128,-1,33
 511 451 511 451 511 510 c 0,34,35
 511 577 511 577 465.5 606 c 128,-1,36
 420 635 420 635 330 635 c 2,37,-1
 231 635 l 1,29,-1
542 190 m 0,39,40
 542 264 542 264 496.5 300 c 128,-1,41
 451 336 451 336 376 336 c 2,42,-1
 231 336 l 1,43,-1
 231 50 l 1,44,-1
 358 50 l 2,45,38
 542 50 542 50 542 190 c 0,39,40
EndSplineSet
Substitution2: "'ss02' Style Set 2 lookup 34 subtable" uni0181.ss02
Substitution2: "'salt' Stylistic Alternatives lookup 32 subtable" uni0181.ss02
Substitution2: "'c2sc' Capitals to Small Capitals lookup 26 subtable" uni0253.sc
AlternateSubs2: "'aalt' Access All Alternates lookup 1 subtable" uni0253.sc uni0181.ss02
Position2: "'cpsp' Capital Spacing lookup 0 subtable" dx=5 dy=0 dh=10 dv=0
EndChar

StartChar: uni0243
Encoding: 579 579 43
Width: 601
GlyphClass: 2
Flags: W
AnchorPoint: "Anchor-18" 0 0 basechar 0
AnchorPoint: "Anchor-17" 0 0 basechar 0
AnchorPoint: "Anchor-16" 299 685 basechar 0
AnchorPoint: "Anchor-15" 0 0 basechar 0
AnchorPoint: "Anchor-14" 313 0 basechar 0
LayerCount: 2
Fore
SplineSet
503 313.5 m 128,-1,1
 547 272 547 272 547 190 c 0,2,3
 547 94 547 94 482 47 c 128,-1,4
 417 0 417 0 301 0 c 2,5,-1
 114 0 l 1,6,-1
 114 175 l 1,7,-1
 23 175 l 1,8,-1
 23 222 l 1,9,-1
 114 222 l 1,10,-1
 114 685 l 1,11,-1
 267 685 l 2,12,13
 386 685 386 685 450.5 642 c 128,-1,14
 515 599 515 599 515 514 c 0,15,16
 515 451 515 451 480.5 412 c 128,-1,17
 446 373 446 373 389 363 c 1,18,0
 459 355 459 355 503 313.5 c 128,-1,1
174 635 m 1,19,-1
 174 384 l 1,20,-1
 312 384 l 2,21,22
 376 384 376 384 415 417.5 c 128,-1,23
 454 451 454 451 454 510 c 0,24,25
 454 577 454 577 408.5 606 c 128,-1,26
 363 635 363 635 273 635 c 2,27,-1
 174 635 l 1,19,-1
485 190 m 0,29,30
 485 264 485 264 439.5 300 c 128,-1,31
 394 336 394 336 319 336 c 2,32,-1
 174 336 l 1,33,-1
 174 222 l 1,34,-1
 349 222 l 1,35,-1
 349 175 l 1,36,-1
 174 175 l 1,37,-1
 174 50 l 1,38,-1
 301 50 l 2,39,28
 485 50 485 50 485 190 c 0,29,30
EndSplineSet
Substitution2: "'c2sc' Capitals to Small Capitals lookup 26 subtable" uni0180.sc
Substitution2: "'aalt' Access All Alternates lookup 0 subtable" uni0180.sc
Position2: "'cpsp' Capital Spacing lookup 0 subtable" dx=5 dy=0 dh=10 dv=0
EndChar

StartChar: C
Encoding: 67 67 45
Width: 550
GlyphClass: 2
Flags: W
AnchorPoint: "Anchor-18" 334 345 basechar 0
AnchorPoint: "Anchor-17" 0 0 basechar 0
AnchorPoint: "Anchor-16" 344 685 basechar 0
AnchorPoint: "Anchor-15" 0 0 basechar 0
AnchorPoint: "Anchor-14" 343 0 basechar 0
LayerCount: 2
Fore
SplineSet
439.5 680.5 m 128,-1,1
 479 665 479 665 519 633 c 1,2,-1
 487 593 l 1,3,4
 452 621 452 621 420 633 c 128,-1,5
 388 645 388 645 347 645 c 0,6,7
 250 645 250 645 189.5 571 c 128,-1,8
 129 497 129 497 129 343 c 0,9,10
 129 243 129 243 157 175 c 128,-1,11
 185 107 185 107 233.5 74.5 c 128,-1,12
 282 42 282 42 344 42 c 0,13,14
 393 42 393 42 427 56.5 c 128,-1,15
 461 71 461 71 496 99 c 1,16,-1
 527 60 l 1,17,18
 452 -11 452 -11 342 -11 c 0,19,20
 262 -11 262 -11 199.5 30 c 128,-1,21
 137 71 137 71 101.5 150.5 c 128,-1,22
 66 230 66 230 66 343 c 256,23,24
 66 456 66 456 103 535.5 c 128,-1,25
 140 615 140 615 202.5 655.5 c 128,-1,26
 265 696 265 696 343 696 c 0,27,0
 400 696 400 696 439.5 680.5 c 128,-1,1
EndSplineSet
Substitution2: "'c2sc' Capitals to Small Capitals lookup 26 subtable" c.sc
Substitution2: "'aalt' Access All Alternates lookup 0 subtable" c.sc
Position2: "'cpsp' Capital Spacing lookup 0 subtable" dx=5 dy=0 dh=10 dv=0
EndChar

StartChar: Ccedilla
Encoding: 199 199 49
Width: 550
GlyphClass: 2
Flags: W
AnchorPoint: "Anchor-18" 334 345 basechar 0
AnchorPoint: "Anchor-17" 0 0 basechar 0
AnchorPoint: "Anchor-16" 344 685 basechar 0
AnchorPoint: "Anchor-15" 0 0 basechar 0
AnchorPoint: "Anchor-14" 360 -227 basechar 0
LayerCount: 2
Fore
SplineSet
427.5 -88 m 128,-1,1
 450 -108 450 -108 450 -140 c 0,2,3
 450 -181 450 -181 420 -204 c 128,-1,4
 390 -227 390 -227 345 -227 c 0,5,6
 297 -227 297 -227 265 -206 c 1,7,-1
 283 -170 l 1,8,9
 310 -185 310 -185 344 -185 c 0,10,11
 368 -185 368 -185 383.5 -174 c 128,-1,12
 399 -163 399 -163 399 -140 c 0,13,14
 399 -118 399 -118 377.5 -107 c 128,-1,15
 356 -96 356 -96 310 -96 c 1,16,-1
 318 -10 l 1,17,18
 244 -4 244 -4 187 38.5 c 128,-1,19
 130 81 130 81 98 158.5 c 128,-1,20
 66 236 66 236 66 343 c 0,21,22
 66 456 66 456 103 535.5 c 128,-1,23
 140 615 140 615 202.5 655.5 c 128,-1,24
 265 696 265 696 343 696 c 0,25,26
 400 696 400 696 439.5 680.5 c 128,-1,27
 479 665 479 665 519 633 c 1,28,-1
 487 593 l 1,29,30
 452 621 452 621 420 633 c 128,-1,31
 388 645 388 645 347 645 c 0,32,33
 250 645 250 645 189.5 571 c 128,-1,34
 129 497 129 497 129 343 c 0,35,36
 129 243 129 243 157 175 c 128,-1,37
 185 107 185 107 233.5 74.5 c 128,-1,38
 282 42 282 42 344 42 c 0,39,40
 393 42 393 42 427 56.5 c 128,-1,41
 461 71 461 71 496 99 c 1,42,-1
 527 60 l 1,43,44
 460 -6 460 -6 358 -11 c 1,45,-1
 358 -64 l 1,46,0
 405 -68 405 -68 427.5 -88 c 128,-1,1
EndSplineSet
Substitution2: "'c2sc' Capitals to Small Capitals lookup 26 subtable" ccedilla.sc
Substitution2: "'aalt' Access All Alternates lookup 0 subtable" ccedilla.sc
Position2: "'cpsp' Capital Spacing lookup 0 subtable" dx=5 dy=0 dh=10 dv=0
EndChar

StartChar: uniA7B3
Encoding: 42931 42931 52
Width: 507
GlyphClass: 2
Flags: W
AnchorPoint: "Anchor-18" 0 0 basechar 0
AnchorPoint: "Anchor-17" 0 0 basechar 0
AnchorPoint: "Anchor-16" 253 685 basechar 0
AnchorPoint: "Anchor-15" 0 0 basechar 0
AnchorPoint: "Anchor-14" 253 -197 basechar 0
LayerCount: 2
Fore
SplineSet
286 317 m 1,0,-1
 497 -115 l 1,1,-1
 429 -115 l 1,2,-1
 251 276 l 1,3,-1
 75 -115 l 1,4,-1
 10 -115 l 1,5,-1
 216 314 l 1,6,-1
 31 685 l 1,7,-1
 99 685 l 1,8,-1
 252 353 l 1,9,-1
 404 685 l 1,10,-1
 469 685 l 1,11,-1
 286 317 l 1,0,-1
EndSplineSet
Substitution2: "'c2sc' Capitals to Small Capitals lookup 26 subtable" uniAB53.sc
Substitution2: "'aalt' Access All Alternates lookup 0 subtable" uniAB53.sc
Position2: "'cpsp' Capital Spacing lookup 0 subtable" dx=5 dy=0 dh=10 dv=0
EndChar

StartChar: uni0187
Encoding: 391 391 53
Width: 550
GlyphClass: 2
Flags: W
AnchorPoint: "Anchor-18" 0 0 basechar 0
AnchorPoint: "Anchor-17" 0 0 basechar 0
AnchorPoint: "Anchor-16" 275 685 basechar 0
AnchorPoint: "Anchor-15" 0 0 basechar 0
AnchorPoint: "Anchor-14" 275 0 basechar 0
LayerCount: 2
Fore
SplineSet
688 790 m 1,1,-1
 664 753 l 1,2,3
 646 764 646 764 628.5 770 c 128,-1,4
 611 776 611 776 588 776 c 0,5,6
 519 776 519 776 519 693 c 2,7,-1
 519 633 l 1,8,-1
 491 599 l 1,9,10
 454 623 454 623 420.5 634 c 128,-1,11
 387 645 387 645 347 645 c 0,12,13
 250 645 250 645 189.5 571 c 128,-1,14
 129 497 129 497 129 343 c 0,15,16
 129 243 129 243 157 175 c 128,-1,17
 185 107 185 107 233.5 74.5 c 128,-1,18
 282 42 282 42 344 42 c 0,19,20
 392 42 392 42 425.5 56.5 c 128,-1,21
 459 71 459 71 495 100 c 1,22,-1
 527 60 l 1,23,24
 454 -11 454 -11 342 -11 c 0,25,26
 262 -11 262 -11 199.5 30 c 128,-1,27
 137 71 137 71 101.5 150.5 c 128,-1,28
 66 230 66 230 66 343 c 256,29,30
 66 456 66 456 103 535.5 c 128,-1,31
 140 615 140 615 202.5 655.5 c 128,-1,32
 265 696 265 696 343 696 c 0,33,34
 411 696 411 696 461 667 c 1,35,-1
 461 690 l 2,36,37
 461 755 461 755 494 789.5 c 128,-1,38
 527 824 527 824 586 824 c 0,39,0
 644 824 644 824 688 790 c 1,1,-1
EndSplineSet
Substitution2: "'c2sc' Capitals to Small Capitals lookup 26 subtable" uni0188.sc
Substitution2: "'aalt' Access All Alternates lookup 0 subtable" uni0188.sc
Position2: "'cpsp' Capital Spacing lookup 0 subtable" dx=5 dy=0 dh=10 dv=0
EndChar

StartChar: uni023B
Encoding: 571 571 54
Width: 550
GlyphClass: 2
Flags: W
AnchorPoint: "Anchor-18" 334 345 basechar 0
AnchorPoint: "Anchor-17" 0 0 basechar 0
AnchorPoint: "Anchor-16" 275 685 basechar 0
AnchorPoint: "Anchor-15" 0 0 basechar 0
AnchorPoint: "Anchor-14" 275 0 basechar 0
LayerCount: 2
Fore
SplineSet
342 -11 m 0,1,2
 297 -11 297 -11 255 3 c 1,3,-1
 236 -70 l 1,4,-1
 203 -62 l 1,5,-1
 224 16 l 1,6,7
 150 53 150 53 108 136.5 c 128,-1,8
 66 220 66 220 66 343 c 0,9,10
 66 456 66 456 103 535.5 c 128,-1,11
 140 615 140 615 202.5 655.5 c 128,-1,12
 265 696 265 696 343 696 c 0,13,14
 372 696 372 696 402 691 c 1,15,-1
 416 745 l 1,16,-1
 448 736 l 1,17,-1
 434 683 l 1,18,19
 475 669 475 669 519 633 c 1,20,-1
 487 593 l 1,21,22
 451 621 451 621 421 632 c 1,23,-1
 269 56 l 1,24,25
 305 42 305 42 344 42 c 0,26,27
 393 42 393 42 427 56.5 c 128,-1,28
 461 71 461 71 496 99 c 1,29,-1
 527 60 l 1,30,0
 452 -11 452 -11 342 -11 c 0,1,2
158 173 m 128,-1,32
 187 105 187 105 238 72 c 1,33,-1
 389 641 l 1,34,35
 372 645 372 645 347 645 c 0,36,37
 250 645 250 645 189.5 571 c 128,-1,38
 129 497 129 497 129 343 c 0,39,31
 129 241 129 241 158 173 c 128,-1,32
EndSplineSet
Substitution2: "'c2sc' Capitals to Small Capitals lookup 26 subtable" uni023C.sc
Substitution2: "'aalt' Access All Alternates lookup 0 subtable" uni023C.sc
Position2: "'cpsp' Capital Spacing lookup 0 subtable" dx=5 dy=0 dh=10 dv=0
EndChar

StartChar: D
Encoding: 68 68 55
Width: 632
GlyphClass: 2
Flags: W
AnchorPoint: "Anchor-18" 320 343 basechar 0
AnchorPoint: "Anchor-17" 0 0 basechar 0
AnchorPoint: "Anchor-16" 300 685 basechar 0
AnchorPoint: "Anchor-15" 0 0 basechar 0
AnchorPoint: "Anchor-14" 300 0 basechar 0
LayerCount: 2
Fore
SplineSet
477.5 613 m 128,-1,1
 566 541 566 541 566 348 c 256,2,3
 566 155 566 155 476.5 77.5 c 128,-1,4
 387 0 387 0 258 0 c 2,5,-1
 111 0 l 1,6,-1
 111 685 l 1,7,-1
 247 685 l 2,8,0
 389 685 389 685 477.5 613 c 128,-1,1
171 635 m 1,9,-1
 171 50 l 1,10,-1
 262 50 l 2,11,12
 503 50 503 50 503 348 c 0,13,14
 503 466 503 466 468 529 c 128,-1,15
 433 592 433 592 379.5 613.5 c 128,-1,16
 326 635 326 635 255 635 c 2,17,-1
 171 635 l 1,9,-1
EndSplineSet
Substitution2: "'c2sc' Capitals to Small Capitals lookup 26 subtable" d.sc
Substitution2: "'aalt' Access All Alternates lookup 0 subtable" d.sc
Position2: "'cpsp' Capital Spacing lookup 0 subtable" dx=5 dy=0 dh=10 dv=0
EndChar

StartChar: Eth
Encoding: 208 208 59
Width: 637
GlyphClass: 2
Flags: W
AnchorPoint: "Anchor-18" 325 343 basechar 0
AnchorPoint: "Anchor-17" 0 0 basechar 0
AnchorPoint: "Anchor-16" 305 685 basechar 0
AnchorPoint: "Anchor-15" 0 0 basechar 0
AnchorPoint: "Anchor-14" 305 0 basechar 0
LayerCount: 2
Fore
SplineSet
482.5 613 m 128,-1,1
 571 541 571 541 571 348 c 256,2,3
 571 155 571 155 481.5 77.5 c 128,-1,4
 392 0 392 0 263 0 c 2,5,-1
 116 0 l 1,6,-1
 116 328 l 1,7,-1
 23 328 l 1,8,-1
 23 376 l 1,9,-1
 116 376 l 1,10,-1
 116 685 l 1,11,-1
 252 685 l 2,12,0
 394 685 394 685 482.5 613 c 128,-1,1
508 348 m 0,14,15
 508 466 508 466 473 529 c 128,-1,16
 438 592 438 592 384.5 613.5 c 128,-1,17
 331 635 331 635 260 635 c 2,18,-1
 176 635 l 1,19,-1
 176 376 l 1,20,-1
 351 376 l 1,21,-1
 351 328 l 1,22,-1
 176 328 l 1,23,-1
 176 50 l 1,24,-1
 267 50 l 2,25,13
 508 50 508 50 508 348 c 0,14,15
EndSplineSet
Substitution2: "'c2sc' Capitals to Small Capitals lookup 26 subtable" eth.sc
Substitution2: "'aalt' Access All Alternates lookup 0 subtable" eth.sc
Position2: "'cpsp' Capital Spacing lookup 0 subtable" dx=5 dy=0 dh=10 dv=0
EndChar

StartChar: uni018A
Encoding: 394 394 65
Width: 692
GlyphClass: 2
Flags: W
AnchorPoint: "Anchor-18" 380 343 basechar 0
AnchorPoint: "Anchor-17" 0 0 basechar 0
AnchorPoint: "Anchor-16" 360 685 basechar 0
AnchorPoint: "Anchor-15" 0 0 basechar 0
AnchorPoint: "Anchor-14" 360 0 basechar 0
LayerCount: 2
Fore
SplineSet
537.5 613 m 128,-1,1
 626 541 626 541 626 348 c 256,2,3
 626 155 626 155 536.5 77.5 c 128,-1,4
 447 0 447 0 318 0 c 2,5,-1
 171 0 l 1,6,-1
 171 636 l 1,7,-1
 142 636 l 2,8,9
 106 636 106 636 88.5 619 c 128,-1,10
 71 602 71 602 71 573 c 0,11,12
 71 553 71 553 76.5 537 c 128,-1,13
 82 521 82 521 93 498 c 1,14,-1
 51 476 l 1,15,16
 33 503 33 503 24 524 c 128,-1,17
 15 545 15 545 15 574 c 0,18,19
 15 624 15 624 49 654.5 c 128,-1,20
 83 685 83 685 146 685 c 2,21,-1
 307 685 l 2,22,0
 449 685 449 685 537.5 613 c 128,-1,1
563 348 m 0,24,25
 563 466 563 466 528 529 c 128,-1,26
 493 592 493 592 439.5 613.5 c 128,-1,27
 386 635 386 635 315 635 c 2,28,-1
 231 635 l 1,29,-1
 231 50 l 1,30,-1
 322 50 l 2,31,23
 563 50 563 50 563 348 c 0,24,25
EndSplineSet
Substitution2: "'c2sc' Capitals to Small Capitals lookup 26 subtable" uni0257.sc
Substitution2: "'aalt' Access All Alternates lookup 0 subtable" uni0257.sc
Position2: "'cpsp' Capital Spacing lookup 0 subtable" dx=5 dy=0 dh=10 dv=0
EndChar

StartChar: uni018B
Encoding: 395 395 67
Width: 569
GlyphClass: 2
Flags: W
AnchorPoint: "Anchor-18" 0 0 basechar 0
AnchorPoint: "Anchor-17" 0 0 basechar 0
AnchorPoint: "Anchor-16" 285 685 basechar 0
AnchorPoint: "Anchor-15" 0 0 basechar 0
AnchorPoint: "Anchor-14" 285 0 basechar 0
LayerCount: 2
Fore
SplineSet
458 0 m 1,0,-1
 281 0 l 2,1,2
 173 0 173 0 108.5 50.5 c 128,-1,3
 44 101 44 101 44 206 c 0,4,5
 44 308 44 308 109.5 363 c 128,-1,6
 175 418 175 418 291 418 c 2,7,-1
 399 418 l 1,8,-1
 399 634 l 1,9,-1
 116 634 l 1,10,-1
 116 685 l 1,11,-1
 458 685 l 1,12,-1
 458 0 l 1,0,-1
399 50 m 1,13,-1
 399 369 l 1,14,-1
 290 369 l 2,15,16
 201 369 201 369 154 328.5 c 128,-1,17
 107 288 107 288 107 206 c 0,18,19
 107 122 107 122 153 86 c 128,-1,20
 199 50 199 50 283 50 c 2,21,-1
 399 50 l 1,13,-1
EndSplineSet
Substitution2: "'c2sc' Capitals to Small Capitals lookup 26 subtable" uni018C.sc
Substitution2: "'aalt' Access All Alternates lookup 0 subtable" uni018C.sc
Position2: "'cpsp' Capital Spacing lookup 0 subtable" dx=5 dy=0 dh=10 dv=0
EndChar

StartChar: E
Encoding: 69 69 70
Width: 512
GlyphClass: 2
Flags: W
AnchorPoint: "Anchor-18" 0 0 basechar 0
AnchorPoint: "Anchor-17" 0 0 basechar 0
AnchorPoint: "Anchor-16" 289 685 basechar 0
AnchorPoint: "Anchor-15" 444 0 basechar 0
AnchorPoint: "Anchor-14" 287 0 basechar 0
LayerCount: 2
Fore
SplineSet
459 685 m 1,0,-1
 452 635 l 1,1,-1
 171 635 l 1,2,-1
 171 380 l 1,3,-1
 414 380 l 1,4,-1
 414 330 l 1,5,-1
 171 330 l 1,6,-1
 171 50 l 1,7,-1
 466 50 l 1,8,-1
 466 0 l 1,9,-1
 111 0 l 1,10,-1
 111 685 l 1,11,-1
 459 685 l 1,0,-1
EndSplineSet
Substitution2: "'c2sc' Capitals to Small Capitals lookup 26 subtable" e.sc
Substitution2: "'aalt' Access All Alternates lookup 0 subtable" e.sc
Position2: "'cpsp' Capital Spacing lookup 0 subtable" dx=5 dy=0 dh=10 dv=0
EndChar

StartChar: uni0228
Encoding: 552 552 74
Width: 512
GlyphClass: 2
Flags: W
AnchorPoint: "Anchor-18" 0 0 basechar 0
AnchorPoint: "Anchor-17" 0 0 basechar 0
AnchorPoint: "Anchor-16" 289 685 basechar 0
AnchorPoint: "Anchor-15" 444 0 basechar 0
AnchorPoint: "Anchor-14" 287 0 basechar 0
LayerCount: 2
Fore
SplineSet
302 0 m 1,0,-1
 302 -64 l 1,1,2
 349 -68 349 -68 371.5 -88 c 128,-1,3
 394 -108 394 -108 394 -140 c 0,4,5
 394 -181 394 -181 364 -204 c 128,-1,6
 334 -227 334 -227 289 -227 c 0,7,8
 240 -227 240 -227 209 -206 c 1,9,-1
 227 -170 l 1,10,11
 254 -185 254 -185 288 -185 c 0,12,13
 312 -185 312 -185 327.5 -174 c 128,-1,14
 343 -163 343 -163 343 -140 c 0,15,16
 343 -118 343 -118 321.5 -107 c 128,-1,17
 300 -96 300 -96 254 -96 c 1,18,-1
 263 0 l 1,19,-1
 111 0 l 1,20,-1
 111 685 l 1,21,-1
 459 685 l 1,22,-1
 452 635 l 1,23,-1
 171 635 l 1,24,-1
 171 380 l 1,25,-1
 414 380 l 1,26,-1
 414 330 l 1,27,-1
 171 330 l 1,28,-1
 171 50 l 1,29,-1
 466 50 l 1,30,-1
 466 0 l 1,31,-1
 302 0 l 1,0,-1
EndSplineSet
Substitution2: "'c2sc' Capitals to Small Capitals lookup 26 subtable" uni0229.sc
Substitution2: "'aalt' Access All Alternates lookup 0 subtable" uni0229.sc
Position2: "'cpsp' Capital Spacing lookup 0 subtable" dx=5 dy=0 dh=10 dv=0
EndChar

StartChar: Eogonek
Encoding: 280 280 89
Width: 512
GlyphClass: 2
Flags: W
AnchorPoint: "Anchor-18" 0 0 basechar 0
AnchorPoint: "Anchor-17" 0 0 basechar 0
AnchorPoint: "Anchor-16" 289 685 basechar 0
AnchorPoint: "Anchor-15" 444 0 basechar 0
AnchorPoint: "Anchor-14" 287 0 basechar 0
LayerCount: 2
Fore
SplineSet
466 50 m 1,0,-1
 466 0 l 1,1,-1
 434 0 l 1,2,3
 367 -30 367 -30 339.5 -56.5 c 128,-1,4
 312 -83 312 -83 312 -118 c 0,5,6
 312 -142 312 -142 327.5 -156 c 128,-1,7
 343 -170 343 -170 375 -170 c 0,8,9
 402 -170 402 -170 433 -163 c 1,10,-1
 427 -211 l 1,11,12
 392 -218 392 -218 369 -218 c 0,13,14
 316 -218 316 -218 287 -192.5 c 128,-1,15
 258 -167 258 -167 258 -126 c 0,16,17
 258 -87 258 -87 284 -56 c 128,-1,18
 310 -25 310 -25 362 0 c 1,19,-1
 111 0 l 1,20,-1
 111 685 l 1,21,-1
 459 685 l 1,22,-1
 452 635 l 1,23,-1
 171 635 l 1,24,-1
 171 380 l 1,25,-1
 414 380 l 1,26,-1
 414 330 l 1,27,-1
 171 330 l 1,28,-1
 171 50 l 1,29,-1
 466 50 l 1,0,-1
EndSplineSet
Substitution2: "'c2sc' Capitals to Small Capitals lookup 26 subtable" eogonek.sc
Substitution2: "'aalt' Access All Alternates lookup 0 subtable" eogonek.sc
Position2: "'cpsp' Capital Spacing lookup 0 subtable" dx=5 dy=0 dh=10 dv=0
EndChar

StartChar: uni0190
Encoding: 400 400 90
Width: 520
GlyphClass: 2
Flags: W
AnchorPoint: "Anchor-18" 0 0 basechar 0
AnchorPoint: "Anchor-17" 0 0 basechar 0
AnchorPoint: "Anchor-16" 260 685 basechar 0
AnchorPoint: "Anchor-15" 0 0 basechar 0
AnchorPoint: "Anchor-14" 260 0 basechar 0
LayerCount: 2
Fore
SplineSet
385 675 m 128,-1,1
 435 654 435 654 480 612 c 1,2,-1
 446 575 l 1,3,4
 370 645 370 645 278 645 c 0,5,6
 211 645 211 645 174 611 c 128,-1,7
 137 577 137 577 137 522 c 0,8,9
 137 460 137 460 178.5 426 c 128,-1,10
 220 392 220 392 290 392 c 2,11,-1
 350 392 l 1,12,-1
 342 341 l 1,13,-1
 287 341 l 2,14,15
 205 342 205 342 161 304 c 128,-1,16
 117 266 117 266 117 196 c 0,17,18
 117 124 117 124 163.5 82.5 c 128,-1,19
 210 41 210 41 287 41 c 0,20,21
 389 41 389 41 462 116 c 1,22,-1
 499 82 l 1,23,24
 411 -11 411 -11 285 -11 c 0,25,26
 218 -11 218 -11 165.5 14.5 c 128,-1,27
 113 40 113 40 83 87 c 128,-1,28
 53 134 53 134 53 196 c 0,29,30
 53 274 53 274 96.5 318.5 c 128,-1,31
 140 363 140 363 207 370 c 1,32,33
 146 383 146 383 110.5 422 c 128,-1,34
 75 461 75 461 75 525 c 0,35,36
 75 601 75 601 128.5 648.5 c 128,-1,37
 182 696 182 696 275 696 c 0,38,0
 335 696 335 696 385 675 c 128,-1,1
EndSplineSet
Substitution2: "'c2sc' Capitals to Small Capitals lookup 26 subtable" uni025B.sc
Substitution2: "'aalt' Access All Alternates lookup 0 subtable" uni025B.sc
Position2: "'cpsp' Capital Spacing lookup 0 subtable" dx=5 dy=0 dh=10 dv=0
EndChar

StartChar: uni018E
Encoding: 398 398 91
Width: 512
GlyphClass: 2
Flags: W
AnchorPoint: "Anchor-18" 0 0 basechar 0
AnchorPoint: "Anchor-17" 0 0 basechar 0
AnchorPoint: "Anchor-16" 213 685 basechar 0
AnchorPoint: "Anchor-15" 0 0 basechar 0
AnchorPoint: "Anchor-14" 211 0 basechar 0
LayerCount: 2
Fore
SplineSet
53 685 m 1,0,-1
 401 685 l 1,1,-1
 401 0 l 1,2,-1
 46 0 l 1,3,-1
 46 50 l 1,4,-1
 341 50 l 1,5,-1
 341 330 l 1,6,-1
 98 330 l 1,7,-1
 98 380 l 1,8,-1
 341 380 l 1,9,-1
 341 635 l 1,10,-1
 53 635 l 1,11,-1
 53 685 l 1,0,-1
EndSplineSet
Substitution2: "'c2sc' Capitals to Small Capitals lookup 26 subtable" uni0258.sc
Substitution2: "'aalt' Access All Alternates lookup 0 subtable" uni0258.sc
Position2: "'cpsp' Capital Spacing lookup 0 subtable" dx=5 dy=0 dh=10 dv=0
EndChar

StartChar: uni0246
Encoding: 582 582 93
Width: 512
GlyphClass: 2
Flags: W
AnchorPoint: "Anchor-18" 0 0 basechar 0
AnchorPoint: "Anchor-17" 0 0 basechar 0
AnchorPoint: "Anchor-16" 267 685 basechar 0
AnchorPoint: "Anchor-15" 444 0 basechar 0
AnchorPoint: "Anchor-14" 267 0 basechar 0
LayerCount: 2
Fore
SplineSet
466 50 m 1,0,-1
 466 0 l 1,1,-1
 222 0 l 1,2,-1
 204 -70 l 1,3,-1
 171 -62 l 1,4,-1
 187 0 l 1,5,-1
 111 0 l 1,6,-1
 111 685 l 1,7,-1
 367 685 l 1,8,-1
 383 745 l 1,9,-1
 416 736 l 1,10,-1
 403 685 l 1,11,-1
 459 685 l 1,12,-1
 452 635 l 1,13,-1
 389 635 l 1,14,-1
 322 380 l 1,15,-1
 414 380 l 1,16,-1
 414 330 l 1,17,-1
 309 330 l 1,18,-1
 236 50 l 1,19,-1
 466 50 l 1,0,-1
171 635 m 1,20,-1
 171 380 l 1,21,-1
 287 380 l 1,22,-1
 354 635 l 1,23,-1
 171 635 l 1,20,-1
171 50 m 1,24,-1
 200 50 l 1,25,-1
 274 330 l 1,26,-1
 171 330 l 1,27,-1
 171 50 l 1,24,-1
EndSplineSet
Substitution2: "'c2sc' Capitals to Small Capitals lookup 26 subtable" uni0247.sc
Substitution2: "'aalt' Access All Alternates lookup 0 subtable" uni0247.sc
Position2: "'cpsp' Capital Spacing lookup 0 subtable" dx=5 dy=0 dh=10 dv=0
EndChar

StartChar: uni01B7
Encoding: 439 439 95
Width: 494
GlyphClass: 2
Flags: W
AnchorPoint: "Anchor-18" 0 0 basechar 0
AnchorPoint: "Anchor-17" 0 0 basechar 0
AnchorPoint: "Anchor-16" 230 685 basechar 0
AnchorPoint: "Anchor-15" 0 0 basechar 0
AnchorPoint: "Anchor-14" 247 0 basechar 0
LayerCount: 2
Fore
SplineSet
389 335.5 m 128,-1,1
 446 285 446 285 446 190 c 0,2,3
 446 131 446 131 419 85.5 c 128,-1,4
 392 40 392 40 341 14.5 c 128,-1,5
 290 -11 290 -11 221 -11 c 0,6,7
 153 -11 153 -11 103.5 10.5 c 128,-1,8
 54 32 54 32 15 75 c 1,9,-1
 51 110 l 1,10,11
 86 73 86 73 125.5 56.5 c 128,-1,12
 165 40 165 40 219 40 c 0,13,14
 299 40 299 40 341.5 81 c 128,-1,15
 384 122 384 122 384 190 c 0,16,17
 384 268 384 268 340.5 303.5 c 128,-1,18
 297 339 297 339 212 339 c 2,19,-1
 128 339 l 1,20,-1
 128 385 l 1,21,-1
 349 635 l 1,22,-1
 39 635 l 1,23,-1
 39 685 l 1,24,-1
 421 685 l 1,25,-1
 421 636 l 1,26,-1
 193 386 l 1,27,-1
 221 386 l 2,28,0
 332 386 332 386 389 335.5 c 128,-1,1
EndSplineSet
Substitution2: "'c2sc' Capitals to Small Capitals lookup 26 subtable" uni0292.sc
Substitution2: "'aalt' Access All Alternates lookup 0 subtable" uni0292.sc
Position2: "'cpsp' Capital Spacing lookup 0 subtable" dx=5 dy=0 dh=10 dv=0
EndChar

StartChar: uni01B8
Encoding: 440 440 97
Width: 494
GlyphClass: 2
Flags: W
AnchorPoint: "Anchor-18" 0 0 basechar 0
AnchorPoint: "Anchor-17" 0 0 basechar 0
AnchorPoint: "Anchor-16" 247 685 basechar 0
AnchorPoint: "Anchor-15" 0 0 basechar 0
AnchorPoint: "Anchor-14" 247 0 basechar 0
LayerCount: 2
Fore
SplineSet
478 75 m 1,0,1
 437 31 437 31 387 10 c 128,-1,2
 337 -11 337 -11 264 -11 c 0,3,4
 199 -11 199 -11 150 13.5 c 128,-1,5
 101 38 101 38 74.5 82 c 128,-1,6
 48 126 48 126 48 184 c 0,7,8
 48 278 48 278 106.5 332 c 128,-1,9
 165 386 165 386 274 386 c 2,10,-1
 300 386 l 1,11,-1
 72 636 l 1,12,-1
 72 685 l 1,13,-1
 455 685 l 1,14,-1
 455 635 l 1,15,-1
 145 635 l 1,16,-1
 366 386 l 1,17,-1
 366 339 l 1,18,-1
 282 339 l 2,19,20
 109 339 109 339 109 184 c 0,21,22
 109 117 109 117 150.5 78.5 c 128,-1,23
 192 40 192 40 266 40 c 0,24,25
 326 40 326 40 366 56 c 128,-1,26
 406 72 406 72 442 110 c 1,27,-1
 478 75 l 1,0,1
EndSplineSet
Substitution2: "'c2sc' Capitals to Small Capitals lookup 26 subtable" uni01B9.sc
Substitution2: "'aalt' Access All Alternates lookup 0 subtable" uni01B9.sc
Position2: "'cpsp' Capital Spacing lookup 0 subtable" dx=5 dy=0 dh=10 dv=0
EndChar

StartChar: F
Encoding: 70 70 98
Width: 481
GlyphClass: 2
Flags: W
AnchorPoint: "Anchor-18" 0 0 basechar 0
AnchorPoint: "Anchor-17" 0 0 basechar 0
AnchorPoint: "Anchor-16" 292 685 basechar 0
AnchorPoint: "Anchor-15" 0 0 basechar 0
AnchorPoint: "Anchor-14" 141 0 basechar 0
LayerCount: 2
Fore
SplineSet
111 0 m 1,0,-1
 111 685 l 1,1,-1
 453 685 l 1,2,-1
 446 635 l 1,3,-1
 171 635 l 1,4,-1
 171 368 l 1,5,-1
 408 368 l 1,6,-1
 408 318 l 1,7,-1
 171 318 l 1,8,-1
 171 0 l 1,9,-1
 111 0 l 1,0,-1
EndSplineSet
Substitution2: "'c2sc' Capitals to Small Capitals lookup 26 subtable" f.sc
Substitution2: "'aalt' Access All Alternates lookup 0 subtable" f.sc
Position2: "'cpsp' Capital Spacing lookup 0 subtable" dx=5 dy=0 dh=10 dv=0
EndChar

StartChar: uni0191
Encoding: 401 401 100
Width: 481
GlyphClass: 2
Flags: W
AnchorPoint: "Anchor-18" 0 0 basechar 0
AnchorPoint: "Anchor-17" 0 0 basechar 0
AnchorPoint: "Anchor-16" 292 685 basechar 0
AnchorPoint: "Anchor-15" 0 0 basechar 0
AnchorPoint: "Anchor-14" 141 0 basechar 0
LayerCount: 2
Fore
SplineSet
171 635 m 1,0,-1
 171 368 l 1,1,-1
 408 368 l 1,2,-1
 408 318 l 1,3,-1
 171 318 l 1,4,-1
 171 -71 l 2,5,6
 171 -137 171 -137 137 -171 c 128,-1,7
 103 -205 103 -205 46 -205 c 0,8,9
 -12 -205 -12 -205 -56 -171 c 1,10,-1
 -31 -133 l 1,11,12
 -13 -144 -13 -144 3.5 -150 c 128,-1,13
 20 -156 20 -156 44 -156 c 0,14,15
 75 -156 75 -156 93 -136 c 128,-1,16
 111 -116 111 -116 111 -72 c 2,17,-1
 111 685 l 1,18,-1
 453 685 l 1,19,-1
 446 635 l 1,20,-1
 171 635 l 1,0,-1
EndSplineSet
Substitution2: "'c2sc' Capitals to Small Capitals lookup 26 subtable" uni0191.sc
Substitution2: "'aalt' Access All Alternates lookup 0 subtable" uni0191.sc
Position2: "'cpsp' Capital Spacing lookup 0 subtable" dx=5 dy=0 dh=10 dv=0
EndChar

StartChar: G
Encoding: 71 71 101
Width: 618
GlyphClass: 2
Flags: W
AnchorPoint: "Anchor-18" 0 0 basechar 0
AnchorPoint: "Anchor-17" 0 0 basechar 0
AnchorPoint: "Anchor-16" 352 685 basechar 0
AnchorPoint: "Anchor-15" 0 0 basechar 0
AnchorPoint: "Anchor-14" 340 0 basechar 0
LayerCount: 2
Fore
SplineSet
453 679.5 m 128,-1,1
 496 663 496 663 540 628 c 1,2,-1
 504 590 l 1,3,4
 467 619 467 619 432 632 c 128,-1,5
 397 645 397 645 352 645 c 0,6,7
 293 645 293 645 242.5 614 c 128,-1,8
 192 583 192 583 160.5 515.5 c 128,-1,9
 129 448 129 448 129 345 c 0,10,11
 129 192 129 192 187 116 c 128,-1,12
 245 40 245 40 349 40 c 0,13,14
 429 40 429 40 493 76 c 1,15,-1
 493 319 l 1,16,-1
 359 319 l 1,17,-1
 352 369 l 1,18,-1
 552 369 l 1,19,-1
 552 45 l 1,20,21
 454 -11 454 -11 349 -11 c 0,22,23
 218 -11 218 -11 142 80 c 128,-1,24
 66 171 66 171 66 345 c 0,25,26
 66 458 66 458 105.5 537.5 c 128,-1,27
 145 617 145 617 210.5 656.5 c 128,-1,28
 276 696 276 696 352 696 c 0,29,0
 410 696 410 696 453 679.5 c 128,-1,1
EndSplineSet
Substitution2: "'c2sc' Capitals to Small Capitals lookup 26 subtable" g.sc
Substitution2: "'aalt' Access All Alternates lookup 0 subtable" g.sc
Position2: "'cpsp' Capital Spacing lookup 0 subtable" dx=5 dy=0 dh=10 dv=0
EndChar

StartChar: uni0194
Encoding: 404 404 103
Width: 545
GlyphClass: 2
Flags: W
AnchorPoint: "Anchor-18" 0 0 basechar 0
AnchorPoint: "Anchor-17" 0 0 basechar 0
AnchorPoint: "Anchor-16" 273 685 basechar 0
AnchorPoint: "Anchor-15" 0 0 basechar 0
AnchorPoint: "Anchor-14" 273 -197 basechar 0
LayerCount: 2
Fore
SplineSet
309 60 m 1,0,1
 342 -9 342 -9 355 -44.5 c 128,-1,2
 368 -80 368 -80 368 -116 c 0,3,4
 368 -157 368 -157 343.5 -181 c 128,-1,5
 319 -205 319 -205 273 -205 c 0,6,7
 228 -205 228 -205 203 -181.5 c 128,-1,8
 178 -158 178 -158 178 -117 c 0,9,10
 178 -85 178 -85 191 -49 c 128,-1,11
 204 -13 204 -13 237 60 c 1,12,-1
 16 685 l 1,13,-1
 81 685 l 1,14,-1
 274 103 l 1,15,-1
 467 685 l 1,16,-1
 529 685 l 1,17,-1
 309 60 l 1,0,1
303 -60 m 128,-1,19
 294 -32 294 -32 273 19 c 1,20,21
 252 -33 252 -33 243 -60.5 c 128,-1,22
 234 -88 234 -88 234 -113 c 0,23,24
 234 -134 234 -134 244 -145.5 c 128,-1,25
 254 -157 254 -157 273 -157 c 256,26,27
 292 -157 292 -157 302 -145.5 c 128,-1,28
 312 -134 312 -134 312 -113 c 0,29,18
 312 -88 312 -88 303 -60 c 128,-1,19
EndSplineSet
Substitution2: "'c2sc' Capitals to Small Capitals lookup 26 subtable" uni0194.sc
Substitution2: "'aalt' Access All Alternates lookup 0 subtable" uni0194.sc
Position2: "'cpsp' Capital Spacing lookup 0 subtable" dx=5 dy=0 dh=10 dv=0
EndChar

StartChar: uni0193
Encoding: 403 403 109
Width: 571
GlyphClass: 2
Flags: W
AnchorPoint: "Anchor-18" 0 0 basechar 0
AnchorPoint: "Anchor-17" 0 0 basechar 0
AnchorPoint: "Anchor-16" 285 685 basechar 0
AnchorPoint: "Anchor-15" 0 0 basechar 0
AnchorPoint: "Anchor-14" 285 0 basechar 0
LayerCount: 2
Fore
SplineSet
709 790 m 1,1,-1
 685 753 l 1,2,3
 665 765 665 765 648.5 770.5 c 128,-1,4
 632 776 632 776 609 776 c 0,5,6
 540 776 540 776 540 693 c 2,7,-1
 540 628 l 1,8,-1
 509 595 l 1,9,10
 471 621 471 621 433.5 633 c 128,-1,11
 396 645 396 645 351 645 c 0,12,13
 293 645 293 645 242.5 614 c 128,-1,14
 192 583 192 583 160.5 515.5 c 128,-1,15
 129 448 129 448 129 345 c 0,16,17
 129 192 129 192 187 116 c 128,-1,18
 245 40 245 40 349 40 c 0,19,20
 429 40 429 40 493 76 c 1,21,-1
 493 319 l 1,22,-1
 359 319 l 1,23,-1
 352 369 l 1,24,-1
 552 369 l 1,25,-1
 552 45 l 1,26,27
 456 -11 456 -11 346 -11 c 0,28,29
 261 -11 261 -11 198 29 c 128,-1,30
 135 69 135 69 100.5 149 c 128,-1,31
 66 229 66 229 66 345 c 0,32,33
 66 457 66 457 105.5 536.5 c 128,-1,34
 145 616 145 616 209 656 c 128,-1,35
 273 696 273 696 345 696 c 0,36,37
 387 696 387 696 419.5 688 c 128,-1,38
 452 680 452 680 482 663 c 1,39,-1
 482 690 l 2,40,41
 482 755 482 755 515 789.5 c 128,-1,42
 548 824 548 824 607 824 c 0,43,0
 665 824 665 824 709 790 c 1,1,-1
EndSplineSet
Substitution2: "'c2sc' Capitals to Small Capitals lookup 26 subtable" uni0260.sc
Substitution2: "'aalt' Access All Alternates lookup 0 subtable" uni0260.sc
Position2: "'cpsp' Capital Spacing lookup 0 subtable" dx=5 dy=0 dh=10 dv=0
EndChar

StartChar: uni0241
Encoding: 577 577 110
Width: 461
GlyphClass: 2
Flags: W
AnchorPoint: "Anchor-18" 0 0 basechar 0
AnchorPoint: "Anchor-17" 0 0 basechar 0
AnchorPoint: "Anchor-16" 231 685 basechar 0
AnchorPoint: "Anchor-15" 0 0 basechar 0
AnchorPoint: "Anchor-14" 188 0 basechar 0
LayerCount: 2
Fore
SplineSet
157 305 m 1,0,-1
 230 323 l 2,1,2
 298 341 298 341 332.5 378 c 128,-1,3
 367 415 367 415 367 490 c 0,4,5
 367 560 367 560 328 602.5 c 128,-1,6
 289 645 289 645 218 645 c 0,7,8
 170 645 170 645 129.5 627.5 c 128,-1,9
 89 610 89 610 50 575 c 1,10,-1
 15 612 l 1,11,12
 63 655 63 655 112 675.5 c 128,-1,13
 161 696 161 696 221 696 c 0,14,15
 285 696 285 696 332 670 c 128,-1,16
 379 644 379 644 404.5 597.5 c 128,-1,17
 430 551 430 551 430 492 c 0,18,19
 430 396 430 396 382 349 c 128,-1,20
 334 302 334 302 252 281 c 2,21,-1
 217 272 l 1,22,-1
 217 0 l 1,23,-1
 157 0 l 1,24,-1
 157 305 l 1,0,-1
EndSplineSet
Substitution2: "'c2sc' Capitals to Small Capitals lookup 26 subtable" uni0294.sc
Substitution2: "'aalt' Access All Alternates lookup 0 subtable" uni0294.sc
Position2: "'cpsp' Capital Spacing lookup 0 subtable" dx=5 dy=0 dh=10 dv=0
EndChar

StartChar: uni01E4
Encoding: 484 484 111
Width: 631
GlyphClass: 2
Flags: W
AnchorPoint: "Anchor-18" 0 0 basechar 0
AnchorPoint: "Anchor-17" 0 0 basechar 0
AnchorPoint: "Anchor-16" 320 685 basechar 0
AnchorPoint: "Anchor-15" 0 0 basechar 0
AnchorPoint: "Anchor-14" 320 0 basechar 0
LayerCount: 2
Fore
SplineSet
623 191 m 1,0,-1
 552 191 l 1,1,-1
 552 45 l 1,2,3
 456 -11 456 -11 348 -11 c 0,4,5
 218 -11 218 -11 142 80 c 128,-1,6
 66 171 66 171 66 345 c 0,7,8
 66 457 66 457 106 536.5 c 128,-1,9
 146 616 146 616 211 656 c 128,-1,10
 276 696 276 696 350 696 c 0,11,12
 409 696 409 696 452.5 679.5 c 128,-1,13
 496 663 496 663 540 628 c 1,14,-1
 504 591 l 1,15,16
 467 619 467 619 432 632 c 128,-1,17
 397 645 397 645 351 645 c 0,18,19
 293 645 293 645 242.5 614 c 128,-1,20
 192 583 192 583 160.5 515.5 c 128,-1,21
 129 448 129 448 129 345 c 0,22,23
 129 192 129 192 187 116 c 128,-1,24
 245 40 245 40 349 40 c 0,25,26
 428 40 428 40 493 75 c 1,27,-1
 493 191 l 1,28,-1
 359 191 l 1,29,-1
 359 242 l 1,30,-1
 493 242 l 1,31,-1
 493 319 l 1,32,-1
 359 319 l 1,33,-1
 352 369 l 1,34,-1
 552 369 l 1,35,-1
 552 242 l 1,36,-1
 623 242 l 1,37,-1
 623 191 l 1,0,-1
EndSplineSet
Substitution2: "'c2sc' Capitals to Small Capitals lookup 26 subtable" uni01E5.sc
Substitution2: "'aalt' Access All Alternates lookup 0 subtable" uni01E5.sc
Position2: "'cpsp' Capital Spacing lookup 0 subtable" dx=5 dy=0 dh=10 dv=0
EndChar

StartChar: uni021C
Encoding: 540 540 112
Width: 501
GlyphClass: 2
Flags: W
AnchorPoint: "Anchor-18" 0 0 basechar 0
AnchorPoint: "Anchor-17" 0 0 basechar 0
AnchorPoint: "Anchor-16" 250 685 basechar 0
AnchorPoint: "Anchor-15" 0 0 basechar 0
AnchorPoint: "Anchor-14" 250 -197 basechar 0
LayerCount: 2
Fore
SplineSet
374 647.5 m 128,-1,1
 426 599 426 599 426 518 c 0,2,3
 426 452 426 452 390.5 412.5 c 128,-1,4
 355 373 355 373 293 360 c 1,5,6
 362 352 362 352 404.5 312 c 128,-1,7
 447 272 447 272 447 200 c 0,8,9
 447 94 447 94 358 22.5 c 128,-1,10
 269 -49 269 -49 67 -90 c 1,11,-1
 61 -38 l 1,12,13
 182 -13 182 -13 253 21.5 c 128,-1,14
 324 56 324 56 354 99.5 c 128,-1,15
 384 143 384 143 384 200 c 0,16,17
 384 264 384 264 340.5 298 c 128,-1,18
 297 332 297 332 213 331 c 2,19,-1
 151 331 l 1,20,-1
 159 382 l 1,21,-1
 211 382 l 2,22,23
 281 382 281 382 322 416.5 c 128,-1,24
 363 451 363 451 363 516 c 0,25,26
 363 576 363 576 327.5 610.5 c 128,-1,27
 292 645 292 645 225 645 c 0,28,29
 177 645 177 645 135.5 627.5 c 128,-1,30
 94 610 94 610 53 575 c 1,31,-1
 21 612 l 1,32,33
 68 654 68 654 118.5 675 c 128,-1,34
 169 696 169 696 229 696 c 0,35,0
 322 696 322 696 374 647.5 c 128,-1,1
EndSplineSet
Substitution2: "'c2sc' Capitals to Small Capitals lookup 26 subtable" uni021D.sc
Substitution2: "'aalt' Access All Alternates lookup 0 subtable" uni021D.sc
Position2: "'cpsp' Capital Spacing lookup 0 subtable" dx=5 dy=0 dh=10 dv=0
EndChar

StartChar: H
Encoding: 72 72 113
Width: 670
GlyphClass: 2
Flags: W
AnchorPoint: "Anchor-18" 334 343 basechar 0
AnchorPoint: "Anchor-17" 0 0 basechar 0
AnchorPoint: "Anchor-16" 334 685 basechar 0
AnchorPoint: "Anchor-15" 0 0 basechar 0
AnchorPoint: "Anchor-14" 335 0 basechar 0
LayerCount: 2
Fore
SplineSet
499 0 m 1,0,-1
 499 335 l 1,1,-1
 171 335 l 1,2,-1
 171 0 l 1,3,-1
 111 0 l 1,4,-1
 111 685 l 1,5,-1
 171 685 l 1,6,-1
 171 386 l 1,7,-1
 499 386 l 1,8,-1
 499 685 l 1,9,-1
 559 685 l 1,10,-1
 559 0 l 1,11,-1
 499 0 l 1,0,-1
EndSplineSet
Substitution2: "'c2sc' Capitals to Small Capitals lookup 26 subtable" h.sc
Substitution2: "'aalt' Access All Alternates lookup 0 subtable" h.sc
Position2: "'cpsp' Capital Spacing lookup 0 subtable" dx=5 dy=0 dh=10 dv=0
EndChar

StartChar: Hbar
Encoding: 294 294 114
Width: 674
GlyphClass: 2
Flags: W
AnchorPoint: "Anchor-18" 336 343 basechar 0
AnchorPoint: "Anchor-17" 0 0 basechar 0
AnchorPoint: "Anchor-16" 336 685 basechar 0
AnchorPoint: "Anchor-15" 0 0 basechar 0
AnchorPoint: "Anchor-14" 337 0 basechar 0
LayerCount: 2
Fore
SplineSet
627 558 m 1,0,-1
 627 513 l 1,1,-1
 561 513 l 1,2,-1
 561 0 l 1,3,-1
 501 0 l 1,4,-1
 501 335 l 1,5,-1
 173 335 l 1,6,-1
 173 0 l 1,7,-1
 113 0 l 1,8,-1
 113 513 l 1,9,-1
 47 513 l 1,10,-1
 47 558 l 1,11,-1
 113 558 l 1,12,-1
 113 685 l 1,13,-1
 173 685 l 1,14,-1
 173 558 l 1,15,-1
 501 558 l 1,16,-1
 501 685 l 1,17,-1
 561 685 l 1,18,-1
 561 558 l 1,19,-1
 627 558 l 1,0,-1
501 386 m 1,20,-1
 501 513 l 1,21,-1
 173 513 l 1,22,-1
 173 386 l 1,23,-1
 501 386 l 1,20,-1
EndSplineSet
Substitution2: "'c2sc' Capitals to Small Capitals lookup 26 subtable" hbar.sc
Substitution2: "'aalt' Access All Alternates lookup 0 subtable" hbar.sc
Position2: "'cpsp' Capital Spacing lookup 0 subtable" dx=5 dy=0 dh=10 dv=0
EndChar

StartChar: uniA7AA
Encoding: 42922 42922 118
Width: 731
GlyphClass: 2
Flags: W
AnchorPoint: "Anchor-18" 395 343 basechar 0
AnchorPoint: "Anchor-17" 0 0 basechar 0
AnchorPoint: "Anchor-16" 395 685 basechar 0
AnchorPoint: "Anchor-15" 0 0 basechar 0
AnchorPoint: "Anchor-14" 396 0 basechar 0
LayerCount: 2
Fore
SplineSet
620 685 m 1,0,-1
 620 0 l 1,1,-1
 560 0 l 1,2,-1
 560 335 l 1,3,-1
 232 335 l 1,4,-1
 232 0 l 1,5,-1
 172 0 l 1,6,-1
 172 636 l 1,7,-1
 142 636 l 2,8,9
 106 636 106 636 88.5 619 c 128,-1,10
 71 602 71 602 71 573 c 0,11,12
 71 553 71 553 76.5 537 c 128,-1,13
 82 521 82 521 93 498 c 1,14,-1
 51 476 l 1,15,16
 33 503 33 503 24 524 c 128,-1,17
 15 545 15 545 15 574 c 0,18,19
 15 624 15 624 49 654.5 c 128,-1,20
 83 685 83 685 146 685 c 2,21,-1
 232 685 l 1,22,-1
 232 386 l 1,23,-1
 560 386 l 1,24,-1
 560 685 l 1,25,-1
 620 685 l 1,0,-1
EndSplineSet
Substitution2: "'c2sc' Capitals to Small Capitals lookup 26 subtable" uniA7AA.sc
Substitution2: "'aalt' Access All Alternates lookup 0 subtable" uniA7AA.sc
Position2: "'cpsp' Capital Spacing lookup 0 subtable" dx=5 dy=0 dh=10 dv=0
EndChar

StartChar: uniA78D.ss02
Encoding: 65539 -1 120
Width: 586
GlyphClass: 2
Flags: W
AnchorPoint: "Anchor-18" 0 0 basechar 0
AnchorPoint: "Anchor-17" 0 0 basechar 0
AnchorPoint: "Anchor-16" 293 685 basechar 0
AnchorPoint: "Anchor-15" 0 0 basechar 0
AnchorPoint: "Anchor-14" 293 0 basechar 0
LayerCount: 2
Fore
SplineSet
415 0 m 1,0,-1
 415 266 l 1,1,-1
 55 266 l 1,2,-1
 55 685 l 1,3,-1
 114 685 l 1,4,-1
 114 317 l 1,5,-1
 415 317 l 1,6,-1
 415 685 l 1,7,-1
 475 685 l 1,8,-1
 475 0 l 1,9,-1
 415 0 l 1,0,-1
EndSplineSet
Position2: "'cpsp' Capital Spacing lookup 0 subtable" dx=5 dy=0 dh=10 dv=0
EndChar

StartChar: uni01F6
Encoding: 502 502 121
Width: 964
GlyphClass: 2
Flags: W
AnchorPoint: "Anchor-18" 0 0 basechar 0
AnchorPoint: "Anchor-17" 0 0 basechar 0
AnchorPoint: "Anchor-16" 482 685 basechar 0
AnchorPoint: "Anchor-15" 0 0 basechar 0
AnchorPoint: "Anchor-14" 482 0 basechar 0
LayerCount: 2
Fore
SplineSet
883 260 m 0,1,2
 883 169 883 169 853.5 108 c 128,-1,3
 824 47 824 47 776 18 c 128,-1,4
 728 -11 728 -11 670 -11 c 0,5,6
 596 -11 596 -11 547.5 33.5 c 128,-1,7
 499 78 499 78 499 159 c 2,8,-1
 499 335 l 1,9,-1
 171 335 l 1,10,-1
 171 0 l 1,11,-1
 111 0 l 1,12,-1
 111 685 l 1,13,-1
 171 685 l 1,14,-1
 171 386 l 1,15,-1
 499 386 l 1,16,-1
 499 685 l 1,17,-1
 559 685 l 1,18,-1
 559 163 l 2,19,20
 559 100 559 100 589.5 69 c 128,-1,21
 620 38 620 38 672 38 c 0,22,23
 735 38 735 38 779.5 91 c 128,-1,24
 824 144 824 144 824 264 c 0,25,26
 824 383 824 383 798 523 c 1,27,-1
 857 523 l 1,28,0
 883 373 883 373 883 260 c 0,1,2
EndSplineSet
Substitution2: "'c2sc' Capitals to Small Capitals lookup 26 subtable" uni01F6.sc
Substitution2: "'aalt' Access All Alternates lookup 0 subtable" uni01F6.sc
Position2: "'cpsp' Capital Spacing lookup 0 subtable" dx=5 dy=0 dh=10 dv=0
EndChar

StartChar: I
Encoding: 73 73 122
Width: 282
GlyphClass: 2
Flags: W
AnchorPoint: "Anchor-18" 0 0 basechar 0
AnchorPoint: "Anchor-17" 0 0 basechar 0
AnchorPoint: "Anchor-16" 140 685 basechar 0
AnchorPoint: "Anchor-15" 181 0 basechar 0
AnchorPoint: "Anchor-14" 141 0 basechar 0
LayerCount: 2
Fore
SplineSet
171 685 m 1,0,-1
 171 0 l 1,1,-1
 111 0 l 1,2,-1
 111 685 l 1,3,-1
 171 685 l 1,0,-1
EndSplineSet
Substitution2: "'c2sc' Capitals to Small Capitals lookup 26 subtable" i.sc
Substitution2: "'aalt' Access All Alternates lookup 0 subtable" i.sc
Position2: "'cpsp' Capital Spacing lookup 0 subtable" dx=5 dy=0 dh=10 dv=0
EndChar

StartChar: Iogonek
Encoding: 302 302 137
Width: 282
GlyphClass: 2
Flags: W
AnchorPoint: "Anchor-18" 0 0 basechar 0
AnchorPoint: "Anchor-17" 0 0 basechar 0
AnchorPoint: "Anchor-16" 140 685 basechar 0
AnchorPoint: "Anchor-15" 181 0 basechar 0
AnchorPoint: "Anchor-14" 141 0 basechar 0
LayerCount: 2
Fore
SplineSet
76.5 -56.5 m 128,-1,1
 49 -83 49 -83 49 -118 c 0,2,3
 49 -142 49 -142 64.5 -156 c 128,-1,4
 80 -170 80 -170 112 -170 c 0,5,6
 139 -170 139 -170 170 -163 c 1,7,-1
 164 -211 l 1,8,9
 129 -218 129 -218 106 -218 c 0,10,11
 53 -218 53 -218 24 -192.5 c 128,-1,12
 -5 -167 -5 -167 -5 -126 c 256,13,14
 -5 -85 -5 -85 23.5 -53 c 128,-1,15
 52 -21 52 -21 111 6 c 1,16,-1
 111 685 l 1,17,-1
 171 685 l 1,18,-1
 171 0 l 1,19,0
 104 -30 104 -30 76.5 -56.5 c 128,-1,1
EndSplineSet
Substitution2: "'c2sc' Capitals to Small Capitals lookup 26 subtable" iogonek.sc
Substitution2: "'aalt' Access All Alternates lookup 0 subtable" iogonek.sc
Position2: "'cpsp' Capital Spacing lookup 0 subtable" dx=5 dy=0 dh=10 dv=0
EndChar

StartChar: uni0196
Encoding: 406 406 138
Width: 344
GlyphClass: 2
Flags: W
AnchorPoint: "Anchor-18" 0 0 basechar 0
AnchorPoint: "Anchor-17" 0 0 basechar 0
AnchorPoint: "Anchor-16" 131 685 basechar 0
AnchorPoint: "Anchor-15" 0 0 basechar 0
AnchorPoint: "Anchor-14" 198 0 basechar 0
LayerCount: 2
Fore
SplineSet
328 23 m 1,0,1
 284 -11 284 -11 226 -11 c 0,2,3
 169 -11 169 -11 135 23 c 128,-1,4
 101 57 101 57 101 123 c 2,5,-1
 101 685 l 1,6,-1
 161 685 l 1,7,-1
 161 122 l 2,8,9
 161 78 161 78 179 58 c 128,-1,10
 197 38 197 38 228 38 c 0,11,12
 252 38 252 38 268.5 44 c 128,-1,13
 285 50 285 50 303 61 c 1,14,-1
 328 23 l 1,0,1
EndSplineSet
Substitution2: "'c2sc' Capitals to Small Capitals lookup 26 subtable" uni0196.sc
Substitution2: "'aalt' Access All Alternates lookup 0 subtable" uni0196.sc
Position2: "'cpsp' Capital Spacing lookup 0 subtable" dx=5 dy=0 dh=10 dv=0
EndChar

StartChar: uni0197
Encoding: 407 407 139
Width: 316
GlyphClass: 2
Flags: W
AnchorPoint: "Anchor-18" 0 0 basechar 0
AnchorPoint: "Anchor-17" 0 0 basechar 0
AnchorPoint: "Anchor-16" 157 685 basechar 0
AnchorPoint: "Anchor-15" 198 0 basechar 0
AnchorPoint: "Anchor-14" 158 0 basechar 0
LayerCount: 2
Fore
SplineSet
291 384 m 1,0,-1
 291 335 l 1,1,-1
 188 335 l 1,2,-1
 188 0 l 1,3,-1
 128 0 l 1,4,-1
 128 335 l 1,5,-1
 26 335 l 1,6,-1
 26 384 l 1,7,-1
 128 384 l 1,8,-1
 128 685 l 1,9,-1
 188 685 l 1,10,-1
 188 384 l 1,11,-1
 291 384 l 1,0,-1
EndSplineSet
Substitution2: "'c2sc' Capitals to Small Capitals lookup 26 subtable" uni0268.sc
Substitution2: "'aalt' Access All Alternates lookup 0 subtable" uni0268.sc
Position2: "'cpsp' Capital Spacing lookup 0 subtable" dx=5 dy=0 dh=10 dv=0
EndChar

StartChar: J
Encoding: 74 74 141
Width: 291
GlyphClass: 2
Flags: W
AnchorPoint: "Anchor-18" 0 0 basechar 0
AnchorPoint: "Anchor-17" 0 0 basechar 0
AnchorPoint: "Anchor-16" 154 685 basechar 0
AnchorPoint: "Anchor-15" 0 0 basechar 0
AnchorPoint: "Anchor-14" 145 -197 basechar 0
LayerCount: 2
Fore
SplineSet
185 92 m 2,0,1
 185 31 185 31 169.5 -7.5 c 128,-1,2
 154 -46 154 -46 121 -71 c 128,-1,3
 88 -96 88 -96 29 -119 c 1,4,-1
 13 -75 l 1,5,6
 59 -55 59 -55 83 -33.5 c 128,-1,7
 107 -12 107 -12 116 17.5 c 128,-1,8
 125 47 125 47 125 95 c 2,9,-1
 125 685 l 1,10,-1
 185 685 l 1,11,-1
 185 92 l 2,0,1
EndSplineSet
Substitution2: "'c2sc' Capitals to Small Capitals lookup 26 subtable" j.sc
Substitution2: "'aalt' Access All Alternates lookup 0 subtable" j.sc
Position2: "'cpsp' Capital Spacing lookup 0 subtable" dx=5 dy=0 dh=10 dv=0
EndChar

StartChar: uniA7B2
Encoding: 42930 42930 143
Width: 309
GlyphClass: 2
Flags: W
AnchorPoint: "Anchor-18" 0 0 basechar 0
AnchorPoint: "Anchor-17" 0 0 basechar 0
AnchorPoint: "Anchor-16" 169 685 basechar 0
AnchorPoint: "Anchor-15" 0 0 basechar 0
AnchorPoint: "Anchor-14" 155 -197 basechar 0
LayerCount: 2
Fore
SplineSet
288 -90 m 1,0,1
 241 -69 241 -69 197 -58 c 1,2,3
 190 -131 190 -131 151.5 -168 c 128,-1,4
 113 -205 113 -205 44 -205 c 0,5,6
 -14 -205 -14 -205 -47 -178.5 c 128,-1,7
 -80 -152 -80 -152 -80 -107 c 0,8,9
 -80 -57 -80 -57 -40.5 -28.5 c 128,-1,10
 -1 0 -1 0 69 0 c 0,11,12
 108 0 108 0 138 -5 c 1,13,-1
 138 685 l 1,14,-1
 198 685 l 1,15,-1
 198 -17 l 1,16,17
 256 -32 256 -32 304 -55 c 1,18,-1
 288 -90 l 1,0,1
114.5 -134.5 m 128,-1,20
 136 -108 136 -108 138 -47 c 1,21,22
 107 -41 107 -41 69 -41 c 0,23,24
 -28 -41 -28 -41 -28 -105 c 0,25,26
 -28 -161 -28 -161 44 -161 c 0,27,19
 93 -161 93 -161 114.5 -134.5 c 128,-1,20
EndSplineSet
Substitution2: "'c2sc' Capitals to Small Capitals lookup 26 subtable" uniA7B2.sc
Substitution2: "'aalt' Access All Alternates lookup 0 subtable" uniA7B2.sc
Position2: "'cpsp' Capital Spacing lookup 0 subtable" dx=5 dy=0 dh=10 dv=0
EndChar

StartChar: uni0248
Encoding: 584 584 144
Width: 301
GlyphClass: 2
Flags: W
AnchorPoint: "Anchor-18" 0 0 basechar 0
AnchorPoint: "Anchor-17" 0 0 basechar 0
AnchorPoint: "Anchor-16" 154 685 basechar 0
AnchorPoint: "Anchor-15" 0 0 basechar 0
AnchorPoint: "Anchor-14" 145 -197 basechar 0
LayerCount: 2
Fore
SplineSet
286 318 m 1,0,-1
 185 318 l 1,1,-1
 185 92 l 2,2,3
 185 31 185 31 169.5 -7.5 c 128,-1,4
 154 -46 154 -46 121 -71 c 128,-1,5
 88 -96 88 -96 29 -119 c 1,6,-1
 13 -75 l 1,7,8
 59 -55 59 -55 83 -33.5 c 128,-1,9
 107 -12 107 -12 116 17.5 c 128,-1,10
 125 47 125 47 125 95 c 2,11,-1
 125 318 l 1,12,-1
 21 318 l 1,13,-1
 21 368 l 1,14,-1
 125 368 l 1,15,-1
 125 685 l 1,16,-1
 185 685 l 1,17,-1
 185 368 l 1,18,-1
 286 368 l 1,19,-1
 286 318 l 1,0,-1
EndSplineSet
Substitution2: "'c2sc' Capitals to Small Capitals lookup 26 subtable" uni0249.sc
Substitution2: "'aalt' Access All Alternates lookup 0 subtable" uni0249.sc
Position2: "'cpsp' Capital Spacing lookup 0 subtable" dx=5 dy=0 dh=10 dv=0
EndChar

StartChar: K
Encoding: 75 75 145
Width: 547
GlyphClass: 2
Flags: W
AnchorPoint: "Anchor-18" 0 0 basechar 0
AnchorPoint: "Anchor-17" 0 0 basechar 0
AnchorPoint: "Anchor-16" 307 685 basechar 0
AnchorPoint: "Anchor-15" 0 0 basechar 0
AnchorPoint: "Anchor-14" 307 0 basechar 0
LayerCount: 2
Fore
SplineSet
171 685 m 1,0,-1
 171 0 l 1,1,-1
 111 0 l 1,2,-1
 111 685 l 1,3,-1
 171 685 l 1,0,-1
530 685 m 1,4,-1
 246 370 l 1,5,-1
 547 0 l 1,6,-1
 474 0 l 1,7,-1
 175 367 l 1,8,-1
 461 685 l 1,9,-1
 530 685 l 1,4,-1
EndSplineSet
Substitution2: "'c2sc' Capitals to Small Capitals lookup 26 subtable" k.sc
Substitution2: "'aalt' Access All Alternates lookup 0 subtable" k.sc
Position2: "'cpsp' Capital Spacing lookup 0 subtable" dx=5 dy=0 dh=10 dv=0
EndChar

StartChar: uni0198
Encoding: 408 408 148
Width: 578
GlyphClass: 2
Flags: W
AnchorPoint: "Anchor-18" 0 0 basechar 0
AnchorPoint: "Anchor-17" 0 0 basechar 0
AnchorPoint: "Anchor-16" 289 685 basechar 0
AnchorPoint: "Anchor-15" 0 0 basechar 0
AnchorPoint: "Anchor-14" 289 0 basechar 0
LayerCount: 2
Fore
SplineSet
175 367 m 1,0,-1
 355 615 l 2,1,2
 388 660 388 660 416 678 c 128,-1,3
 444 696 444 696 486 696 c 0,4,5
 537 696 537 696 578 659 c 1,6,-1
 553 622 l 1,7,8
 522 646 522 646 489 646 c 0,9,10
 463 646 463 646 444 634.5 c 128,-1,11
 425 623 425 623 397 585 c 2,12,-1
 245 370 l 1,13,-1
 547 0 l 1,14,-1
 474 0 l 1,15,-1
 175 367 l 1,0,-1
171 685 m 1,16,-1
 171 0 l 1,17,-1
 111 0 l 1,18,-1
 111 685 l 1,19,-1
 171 685 l 1,16,-1
EndSplineSet
Substitution2: "'c2sc' Capitals to Small Capitals lookup 26 subtable" uni0199.sc
Substitution2: "'aalt' Access All Alternates lookup 0 subtable" uni0199.sc
Position2: "'cpsp' Capital Spacing lookup 0 subtable" dx=5 dy=0 dh=10 dv=0
EndChar

StartChar: L
Encoding: 76 76 149
Width: 477
GlyphClass: 2
Flags: W
AnchorPoint: "Anchor-18" 369 370 basechar 0
AnchorPoint: "Anchor-17" 196 685 basechar 0
AnchorPoint: "Anchor-16" 141 685 basechar 0
AnchorPoint: "Anchor-15" 0 0 basechar 0
AnchorPoint: "Anchor-14" 282 0 basechar 0
LayerCount: 2
Fore
SplineSet
171 685 m 1,0,-1
 171 54 l 1,1,-1
 457 54 l 1,2,-1
 449 0 l 1,3,-1
 111 0 l 1,4,-1
 111 685 l 1,5,-1
 171 685 l 1,0,-1
EndSplineSet
Substitution2: "'c2sc' Capitals to Small Capitals lookup 26 subtable" l.sc
Substitution2: "'aalt' Access All Alternates lookup 0 subtable" l.sc
Position2: "'cpsp' Capital Spacing lookup 0 subtable" dx=5 dy=0 dh=10 dv=0
EndChar

StartChar: uni023D
Encoding: 573 573 152
Width: 493
GlyphClass: 2
Flags: W
AnchorPoint: "Anchor-18" 385 370 basechar 0
AnchorPoint: "Anchor-17" 212 685 basechar 0
AnchorPoint: "Anchor-16" 157 685 basechar 0
AnchorPoint: "Anchor-15" 0 0 basechar 0
AnchorPoint: "Anchor-14" 298 0 basechar 0
LayerCount: 2
Fore
SplineSet
187 54 m 1,0,-1
 473 54 l 1,1,-1
 465 0 l 1,2,-1
 127 0 l 1,3,-1
 127 338 l 1,4,-1
 26 338 l 1,5,-1
 26 388 l 1,6,-1
 127 388 l 1,7,-1
 127 685 l 1,8,-1
 187 685 l 1,9,-1
 187 388 l 1,10,-1
 291 388 l 1,11,-1
 291 338 l 1,12,-1
 187 338 l 1,13,-1
 187 54 l 1,0,-1
EndSplineSet
Substitution2: "'c2sc' Capitals to Small Capitals lookup 26 subtable" uni019A.sc
Substitution2: "'aalt' Access All Alternates lookup 0 subtable" uni019A.sc
Position2: "'cpsp' Capital Spacing lookup 0 subtable" dx=5 dy=0 dh=10 dv=0
EndChar

StartChar: uniA7AD
Encoding: 42925 42925 153
Width: 516
GlyphClass: 2
Flags: W
AnchorPoint: "Anchor-18" 408 370 basechar 0
AnchorPoint: "Anchor-17" 235 685 basechar 0
AnchorPoint: "Anchor-16" 180 685 basechar 0
AnchorPoint: "Anchor-15" 0 0 basechar 0
AnchorPoint: "Anchor-14" 321 0 basechar 0
LayerCount: 2
Fore
SplineSet
496 54 m 1,0,-1
 488 0 l 1,1,-1
 150 0 l 1,2,-1
 150 268 l 1,3,4
 86 270 86 270 52 295.5 c 128,-1,5
 18 321 18 321 18 369 c 0,6,7
 18 412 18 412 47.5 437 c 128,-1,8
 77 462 77 462 120 462 c 0,9,10
 136 462 136 462 150 460 c 1,11,-1
 150 685 l 1,12,-1
 210 685 l 1,13,-1
 210 313 l 1,14,15
 258 314 258 314 329 327 c 1,16,-1
 335 285 l 1,17,18
 273 273 273 273 210 270 c 1,19,-1
 210 54 l 1,20,-1
 496 54 l 1,0,-1
89.5 326.5 m 128,-1,22
 110 313 110 313 150 313 c 1,23,-1
 150 417 l 1,24,25
 134 419 134 419 123 419 c 0,26,27
 98 419 98 419 83.5 406.5 c 128,-1,28
 69 394 69 394 69 370 c 0,29,21
 69 340 69 340 89.5 326.5 c 128,-1,22
EndSplineSet
Substitution2: "'c2sc' Capitals to Small Capitals lookup 26 subtable" uniA7AD.sc
Substitution2: "'aalt' Access All Alternates lookup 0 subtable" uniA7AD.sc
Position2: "'cpsp' Capital Spacing lookup 0 subtable" dx=5 dy=0 dh=10 dv=0
EndChar

StartChar: Lslash
Encoding: 321 321 160
Width: 488
GlyphClass: 2
Flags: W
AnchorPoint: "Anchor-18" 380 370 basechar 0
AnchorPoint: "Anchor-17" 207 685 basechar 0
AnchorPoint: "Anchor-16" 152 685 basechar 0
AnchorPoint: "Anchor-15" 0 0 basechar 0
AnchorPoint: "Anchor-14" 293 0 basechar 0
LayerCount: 2
Fore
SplineSet
182 54 m 1,0,-1
 468 54 l 1,1,-1
 460 0 l 1,2,-1
 122 0 l 1,3,-1
 122 281 l 1,4,-1
 57 241 l 1,5,-1
 33 280 l 1,6,-1
 121 335 l 1,7,-1
 122 336 l 1,8,-1
 122 685 l 1,9,-1
 182 685 l 1,10,-1
 182 373 l 1,11,-1
 362 485 l 1,12,-1
 387 446 l 1,13,-1
 182 319 l 1,14,-1
 182 54 l 1,0,-1
EndSplineSet
Substitution2: "'c2sc' Capitals to Small Capitals lookup 26 subtable" lslash.sc
Substitution2: "'aalt' Access All Alternates lookup 0 subtable" lslash.sc
Position2: "'cpsp' Capital Spacing lookup 0 subtable" dx=5 dy=0 dh=10 dv=0
EndChar

StartChar: M
Encoding: 77 77 161
Width: 770
GlyphClass: 2
Flags: W
AnchorPoint: "Anchor-18" 0 0 basechar 0
AnchorPoint: "Anchor-17" 0 0 basechar 0
AnchorPoint: "Anchor-16" 385 685 basechar 0
AnchorPoint: "Anchor-15" 0 0 basechar 0
AnchorPoint: "Anchor-14" 389 0 basechar 0
LayerCount: 2
Fore
SplineSet
701 0 m 1,0,-1
 643 0 l 1,1,-1
 612 328 l 2,2,3
 593 519 593 519 586 626 c 1,4,-1
 414 81 l 1,5,-1
 357 81 l 1,6,-1
 179 626 l 1,7,8
 174 529 174 529 159 369 c 2,9,-1
 156 330 l 1,10,-1
 126 0 l 1,11,-1
 69 0 l 1,12,-1
 134 685 l 1,13,-1
 217 685 l 1,14,-1
 387 152 l 1,15,-1
 551 685 l 1,16,-1
 635 685 l 1,17,-1
 701 0 l 1,0,-1
EndSplineSet
Substitution2: "'c2sc' Capitals to Small Capitals lookup 26 subtable" m.sc
Substitution2: "'aalt' Access All Alternates lookup 0 subtable" m.sc
Position2: "'cpsp' Capital Spacing lookup 0 subtable" dx=5 dy=0 dh=10 dv=0
EndChar

StartChar: uni019C
Encoding: 412 412 164
Width: 929
GlyphClass: 2
Flags: W
AnchorPoint: "Anchor-18" 0 0 basechar 0
AnchorPoint: "Anchor-17" 0 0 basechar 0
AnchorPoint: "Anchor-16" 464 685 basechar 0
AnchorPoint: "Anchor-15" 0 0 basechar 0
AnchorPoint: "Anchor-14" 464 0 basechar 0
LayerCount: 2
Fore
SplineSet
818 685 m 1,0,-1
 818 0 l 1,1,-1
 766 0 l 1,2,-1
 761 93 l 1,3,4
 730 44 730 44 686.5 16.5 c 128,-1,5
 643 -11 643 -11 589 -11 c 0,6,7
 534 -11 534 -11 496 17.5 c 128,-1,8
 458 46 458 46 441 99 c 1,9,10
 367 -11 367 -11 261 -11 c 0,11,12
 185 -11 185 -11 143 41 c 128,-1,13
 101 93 101 93 101 184 c 2,14,-1
 101 685 l 1,15,-1
 161 685 l 1,16,-1
 161 182 l 2,17,18
 161 114 161 114 189 77 c 128,-1,19
 217 40 217 40 269 40 c 0,20,21
 320 40 320 40 358 68.5 c 128,-1,22
 396 97 396 97 430 153 c 1,23,24
 429 163 429 163 429 184 c 2,25,-1
 429 685 l 1,26,-1
 489 685 l 1,27,-1
 489 182 l 2,28,29
 489 114 489 114 517 77 c 128,-1,30
 545 40 545 40 597 40 c 256,31,32
 649 40 649 40 687 69 c 128,-1,33
 725 98 725 98 758 154 c 1,34,-1
 758 685 l 1,35,-1
 818 685 l 1,0,-1
EndSplineSet
Substitution2: "'c2sc' Capitals to Small Capitals lookup 26 subtable" uni026F.sc
Substitution2: "'aalt' Access All Alternates lookup 0 subtable" uni026F.sc
Position2: "'cpsp' Capital Spacing lookup 0 subtable" dx=5 dy=0 dh=10 dv=0
EndChar

StartChar: N
Encoding: 78 78 165
Width: 673
GlyphClass: 2
Flags: W
AnchorPoint: "Anchor-18" 0 0 basechar 0
AnchorPoint: "Anchor-17" 0 0 basechar 0
AnchorPoint: "Anchor-16" 345 685 basechar 0
AnchorPoint: "Anchor-15" 0 0 basechar 0
AnchorPoint: "Anchor-14" 337 0 basechar 0
LayerCount: 2
Fore
SplineSet
562 0 m 1,0,-1
 483 0 l 1,1,-1
 160 619 l 1,2,3
 168 494 168 494 168 383 c 2,4,-1
 168 0 l 1,5,-1
 111 0 l 1,6,-1
 111 685 l 1,7,-1
 188 685 l 1,8,-1
 513 66 l 1,9,10
 505 182 505 182 505 269 c 2,11,-1
 505 685 l 1,12,-1
 562 685 l 1,13,-1
 562 0 l 1,0,-1
EndSplineSet
Substitution2: "'c2sc' Capitals to Small Capitals lookup 26 subtable" n.sc
Substitution2: "'aalt' Access All Alternates lookup 0 subtable" n.sc
Position2: "'cpsp' Capital Spacing lookup 0 subtable" dx=5 dy=0 dh=10 dv=0
EndChar

StartChar: Eng
Encoding: 330 330 175
Width: 673
GlyphClass: 2
Flags: W
AnchorPoint: "Anchor-18" 0 0 basechar 0
AnchorPoint: "Anchor-17" 0 0 basechar 0
AnchorPoint: "Anchor-16" 345 685 basechar 0
AnchorPoint: "Anchor-15" 0 0 basechar 0
AnchorPoint: "Anchor-14" 337 0 basechar 0
LayerCount: 2
Fore
SplineSet
562 685 m 1,0,-1
 562 -71 l 2,1,2
 562 -137 562 -137 528 -171 c 128,-1,3
 494 -205 494 -205 437 -205 c 0,4,5
 379 -205 379 -205 335 -171 c 1,6,-1
 360 -133 l 1,7,8
 378 -144 378 -144 394.5 -150 c 128,-1,9
 411 -156 411 -156 435 -156 c 0,10,11
 466 -156 466 -156 484 -136 c 128,-1,12
 502 -116 502 -116 502 -72 c 2,13,-1
 502 0 l 1,14,-1
 483 0 l 1,15,-1
 160 619 l 1,16,17
 168 494 168 494 168 383 c 2,18,-1
 168 0 l 1,19,-1
 111 0 l 1,20,-1
 111 685 l 1,21,-1
 188 685 l 1,22,-1
 513 66 l 1,23,24
 505 182 505 182 505 269 c 2,25,-1
 505 685 l 1,26,-1
 562 685 l 1,0,-1
EndSplineSet
Substitution2: "'ss01' Style Set 1 lookup 33 subtable" Eng.ss01
Substitution2: "'salt' Stylistic Alternatives lookup 32 subtable" Eng.ss01
Substitution2: "'c2sc' Capitals to Small Capitals lookup 26 subtable" eng.sc
AlternateSubs2: "'aalt' Access All Alternates lookup 1 subtable" eng.sc Eng.ss01
Position2: "'cpsp' Capital Spacing lookup 0 subtable" dx=5 dy=0 dh=10 dv=0
EndChar

StartChar: Eng.ss01
Encoding: 65541 -1 176
Width: 663
GlyphClass: 2
Flags: W
AnchorPoint: "Anchor-18" 0 0 basechar 0
AnchorPoint: "Anchor-17" 0 0 basechar 0
AnchorPoint: "Anchor-16" 331 685 basechar 0
AnchorPoint: "Anchor-15" 0 0 basechar 0
AnchorPoint: "Anchor-14" 331 -197 basechar 0
LayerCount: 2
Fore
SplineSet
513.5 644 m 128,-1,1
 559 592 559 592 559 499 c 2,2,-1
 559 -71 l 2,3,4
 559 -137 559 -137 525 -171 c 128,-1,5
 491 -205 491 -205 434 -205 c 0,6,7
 376 -205 376 -205 332 -171 c 1,8,-1
 357 -133 l 1,9,10
 375 -144 375 -144 391.5 -150 c 128,-1,11
 408 -156 408 -156 432 -156 c 0,12,13
 463 -156 463 -156 481 -136 c 128,-1,14
 499 -116 499 -116 499 -72 c 2,15,-1
 499 487 l 2,16,17
 499 645 499 645 371 645 c 0,18,19
 308 645 308 645 262 616 c 128,-1,20
 216 587 216 587 171 532 c 1,21,-1
 171 0 l 1,22,-1
 111 0 l 1,23,-1
 111 685 l 1,24,-1
 163 685 l 1,25,-1
 169 588 l 1,26,27
 258 696 258 696 381 696 c 0,28,0
 468 696 468 696 513.5 644 c 128,-1,1
EndSplineSet
Position2: "'cpsp' Capital Spacing lookup 0 subtable" dx=5 dy=0 dh=10 dv=0
EndChar

StartChar: uni019D
Encoding: 413 413 177
Width: 673
GlyphClass: 2
Flags: W
AnchorPoint: "Anchor-18" 0 0 basechar 0
AnchorPoint: "Anchor-17" 0 0 basechar 0
AnchorPoint: "Anchor-16" 345 685 basechar 0
AnchorPoint: "Anchor-15" 0 0 basechar 0
AnchorPoint: "Anchor-14" 337 0 basechar 0
LayerCount: 2
Fore
SplineSet
562 685 m 1,0,-1
 562 0 l 1,1,-1
 483 0 l 1,2,-1
 160 619 l 1,3,4
 168 494 168 494 168 383 c 2,5,-1
 168 -72 l 2,6,7
 168 -137 168 -137 134.5 -171 c 128,-1,8
 101 -205 101 -205 44 -205 c 0,9,10
 -14 -205 -14 -205 -58 -171 c 1,11,-1
 -34 -134 l 1,12,13
 -15 -145 -15 -145 1.5 -151 c 128,-1,14
 18 -157 18 -157 41 -157 c 0,15,16
 111 -157 111 -157 111 -74 c 2,17,-1
 111 685 l 1,18,-1
 188 685 l 1,19,-1
 513 66 l 1,20,21
 505 182 505 182 505 269 c 2,22,-1
 505 685 l 1,23,-1
 562 685 l 1,0,-1
EndSplineSet
Substitution2: "'ss01' Style Set 1 lookup 33 subtable" uni019D.ss01
Substitution2: "'salt' Stylistic Alternatives lookup 32 subtable" uni019D.ss01
Substitution2: "'c2sc' Capitals to Small Capitals lookup 26 subtable" uni0272.sc
AlternateSubs2: "'aalt' Access All Alternates lookup 1 subtable" uni0272.sc uni019D.ss01
Position2: "'cpsp' Capital Spacing lookup 0 subtable" dx=5 dy=0 dh=10 dv=0
EndChar

StartChar: uni019D.ss01
Encoding: 65542 -1 178
Width: 663
GlyphClass: 2
Flags: W
AnchorPoint: "Anchor-18" 0 0 basechar 0
AnchorPoint: "Anchor-17" 0 0 basechar 0
AnchorPoint: "Anchor-16" 331 685 basechar 0
AnchorPoint: "Anchor-15" 0 0 basechar 0
AnchorPoint: "Anchor-14" 331 -197 basechar 0
LayerCount: 2
Fore
SplineSet
513.5 644 m 128,-1,1
 559 592 559 592 559 499 c 2,2,-1
 559 0 l 1,3,-1
 499 0 l 1,4,-1
 499 487 l 2,5,6
 499 645 499 645 371 645 c 0,7,8
 308 645 308 645 262 616 c 128,-1,9
 216 587 216 587 171 532 c 1,10,-1
 171 -71 l 2,11,12
 171 -137 171 -137 137 -171 c 128,-1,13
 103 -205 103 -205 46 -205 c 0,14,15
 -12 -205 -12 -205 -56 -171 c 1,16,-1
 -31 -133 l 1,17,18
 -13 -144 -13 -144 3.5 -150 c 128,-1,19
 20 -156 20 -156 44 -156 c 0,20,21
 75 -156 75 -156 93 -136 c 128,-1,22
 111 -116 111 -116 111 -72 c 2,23,-1
 111 685 l 1,24,-1
 163 685 l 1,25,-1
 169 588 l 1,26,27
 258 696 258 696 381 696 c 0,28,0
 468 696 468 696 513.5 644 c 128,-1,1
EndSplineSet
Position2: "'cpsp' Capital Spacing lookup 0 subtable" dx=5 dy=0 dh=10 dv=0
EndChar

StartChar: uni0220
Encoding: 544 544 180
Width: 663
GlyphClass: 2
Flags: W
AnchorPoint: "Anchor-18" 0 0 basechar 0
AnchorPoint: "Anchor-17" 0 0 basechar 0
AnchorPoint: "Anchor-16" 331 685 basechar 0
AnchorPoint: "Anchor-15" 0 0 basechar 0
AnchorPoint: "Anchor-14" 331 -197 basechar 0
LayerCount: 2
Fore
SplineSet
513.5 644 m 128,-1,1
 559 592 559 592 559 499 c 2,2,-1
 559 -197 l 1,3,-1
 499 -197 l 1,4,-1
 499 487 l 2,5,6
 499 645 499 645 371 645 c 0,7,8
 308 645 308 645 262 616 c 128,-1,9
 216 587 216 587 171 532 c 1,10,-1
 171 0 l 1,11,-1
 111 0 l 1,12,-1
 111 685 l 1,13,-1
 163 685 l 1,14,-1
 169 588 l 1,15,16
 258 696 258 696 381 696 c 0,17,0
 468 696 468 696 513.5 644 c 128,-1,1
EndSplineSet
Substitution2: "'c2sc' Capitals to Small Capitals lookup 26 subtable" uni0220.sc
Substitution2: "'aalt' Access All Alternates lookup 0 subtable" uni0220.sc
Position2: "'cpsp' Capital Spacing lookup 0 subtable" dx=5 dy=0 dh=10 dv=0
EndChar

StartChar: O
Encoding: 79 79 182
Width: 691
GlyphClass: 2
Flags: W
AnchorPoint: "Anchor-18" 0 0 basechar 0
AnchorPoint: "Anchor-17" 542 685 basechar 0
AnchorPoint: "Anchor-16" 345 685 basechar 0
AnchorPoint: "Anchor-15" 437 0 basechar 0
AnchorPoint: "Anchor-14" 345 0 basechar 0
LayerCount: 2
Fore
SplineSet
492 655.5 m 128,-1,1
 555 615 555 615 590 535 c 128,-1,2
 625 455 625 455 625 342 c 0,3,4
 625 231 625 231 590.5 151.5 c 128,-1,5
 556 72 556 72 493 30.5 c 128,-1,6
 430 -11 430 -11 345 -11 c 0,7,8
 262 -11 262 -11 199 30 c 128,-1,9
 136 71 136 71 101 150 c 128,-1,10
 66 229 66 229 66 341 c 0,11,12
 66 452 66 452 101 532 c 128,-1,13
 136 612 136 612 199.5 654 c 128,-1,14
 263 696 263 696 345 696 c 0,15,0
 429 696 429 696 492 655.5 c 128,-1,1
187 568.5 m 128,-1,17
 129 492 129 492 129 341 c 0,18,19
 129 192 129 192 187.5 116 c 128,-1,20
 246 40 246 40 345 40 c 0,21,22
 448 40 448 40 505 115.5 c 128,-1,23
 562 191 562 191 562 342 c 0,24,25
 562 494 562 494 504.5 569.5 c 128,-1,26
 447 645 447 645 345 645 c 0,27,16
 245 645 245 645 187 568.5 c 128,-1,17
EndSplineSet
Substitution2: "Single Substitution lookup 45 subtable" ordmasculine
Substitution2: "'c2sc' Capitals to Small Capitals lookup 26 subtable" o.sc
AlternateSubs2: "'aalt' Access All Alternates lookup 1 subtable" ordmasculine o.sc
Position2: "'cpsp' Capital Spacing lookup 0 subtable" dx=5 dy=0 dh=10 dv=0
EndChar

StartChar: uni0222
Encoding: 546 546 183
Width: 640
GlyphClass: 2
Flags: W
AnchorPoint: "Anchor-18" 0 0 basechar 0
AnchorPoint: "Anchor-17" 0 0 basechar 0
AnchorPoint: "Anchor-16" 320 685 basechar 0
AnchorPoint: "Anchor-15" 0 0 basechar 0
AnchorPoint: "Anchor-14" 320 0 basechar 0
LayerCount: 2
Fore
SplineSet
538 316.5 m 128,-1,1
 574 268 574 268 574 200 c 0,2,3
 574 142 574 142 545 94 c 128,-1,4
 516 46 516 46 459 17.5 c 128,-1,5
 402 -11 402 -11 320 -11 c 0,6,7
 240 -11 240 -11 182.5 16.5 c 128,-1,8
 125 44 125 44 95.5 92 c 128,-1,9
 66 140 66 140 66 199 c 0,10,11
 66 264 66 264 102.5 313.5 c 128,-1,12
 139 363 139 363 207 385 c 1,13,14
 113 428 113 428 113 547 c 2,15,-1
 113 685 l 1,16,-1
 173 685 l 1,17,-1
 173 549 l 2,18,19
 173 483 173 483 206.5 445 c 128,-1,20
 240 407 240 407 320 407 c 0,21,22
 401 407 401 407 436 446 c 128,-1,23
 471 485 471 485 471 549 c 2,24,-1
 471 685 l 1,25,-1
 531 685 l 1,26,-1
 531 547 l 2,27,28
 531 493 531 493 506.5 451.5 c 128,-1,29
 482 410 482 410 433 387 c 1,30,0
 502 365 502 365 538 316.5 c 128,-1,1
511 200 m 0,32,33
 511 275 511 275 464 315.5 c 128,-1,34
 417 356 417 356 320 356 c 0,35,36
 225 356 225 356 177 314.5 c 128,-1,37
 129 273 129 273 129 199 c 0,38,39
 129 123 129 123 177 81.5 c 128,-1,40
 225 40 225 40 320 40 c 0,41,31
 511 40 511 40 511 200 c 0,32,33
EndSplineSet
Substitution2: "'c2sc' Capitals to Small Capitals lookup 26 subtable" uni0223.sc
Substitution2: "'aalt' Access All Alternates lookup 0 subtable" uni0223.sc
Position2: "'cpsp' Capital Spacing lookup 0 subtable" dx=5 dy=0 dh=10 dv=0
EndChar

StartChar: Ohorn
Encoding: 416 416 203
Width: 691
GlyphClass: 2
Flags: W
AnchorPoint: "Anchor-18" 0 0 basechar 0
AnchorPoint: "Anchor-17" 594 685 basechar 0
AnchorPoint: "Anchor-16" 345 685 basechar 0
AnchorPoint: "Anchor-15" 437 0 basechar 0
AnchorPoint: "Anchor-14" 345 0 basechar 0
LayerCount: 2
Fore
SplineSet
555 596 m 1,1,2
 625 504 625 504 625 342 c 0,3,4
 625 231 625 231 590.5 151.5 c 128,-1,5
 556 72 556 72 493 30.5 c 128,-1,6
 430 -11 430 -11 345 -11 c 0,7,8
 262 -11 262 -11 199 30 c 128,-1,9
 136 71 136 71 101 150 c 128,-1,10
 66 229 66 229 66 341 c 0,11,12
 66 452 66 452 101 532 c 128,-1,13
 136 612 136 612 199.5 654 c 128,-1,14
 263 696 263 696 345 696 c 0,15,16
 454 696 454 696 526 629 c 1,17,18
 556 633 556 633 570 647 c 128,-1,19
 584 661 584 661 584 686 c 0,20,21
 584 723 584 723 570 758 c 1,22,-1
 616 770 l 1,23,24
 634 736 634 736 634 688 c 0,25,0
 634 610 634 610 555 596 c 1,1,2
505 115.5 m 128,-1,27
 562 191 562 191 562 342 c 0,28,29
 562 494 562 494 504.5 569.5 c 128,-1,30
 447 645 447 645 345 645 c 0,31,32
 245 645 245 645 187 568.5 c 128,-1,33
 129 492 129 492 129 341 c 0,34,35
 129 192 129 192 187.5 116 c 128,-1,36
 246 40 246 40 345 40 c 0,37,26
 448 40 448 40 505 115.5 c 128,-1,27
EndSplineSet
Substitution2: "'c2sc' Capitals to Small Capitals lookup 26 subtable" ohorn.sc
Substitution2: "'aalt' Access All Alternates lookup 0 subtable" ohorn.sc
Position2: "'cpsp' Capital Spacing lookup 0 subtable" dx=5 dy=0 dh=10 dv=0
EndChar

StartChar: uni1EDA
Encoding: 7898 7898 204
Width: 691
GlyphClass: 2
Flags: W
AnchorPoint: "Anchor-18" 0 0 basechar 0
AnchorPoint: "Anchor-17" 594 685 basechar 0
AnchorPoint: "Anchor-16" 347 888 basechar 0
AnchorPoint: "Anchor-15" 437 0 basechar 0
AnchorPoint: "Anchor-14" 345 0 basechar 0
LayerCount: 2
Fore
SplineSet
452 836 m 1,0,-1
 254 758 l 1,1,-1
 238 792 l 1,2,-1
 426 888 l 1,3,-1
 452 836 l 1,0,-1
555 596 m 1,5,6
 625 504 625 504 625 342 c 0,7,8
 625 231 625 231 590.5 151.5 c 128,-1,9
 556 72 556 72 493 30.5 c 128,-1,10
 430 -11 430 -11 345 -11 c 0,11,12
 262 -11 262 -11 199 30 c 128,-1,13
 136 71 136 71 101 150 c 128,-1,14
 66 229 66 229 66 341 c 0,15,16
 66 452 66 452 101 532 c 128,-1,17
 136 612 136 612 199.5 654 c 128,-1,18
 263 696 263 696 345 696 c 0,19,20
 454 696 454 696 526 629 c 1,21,22
 556 633 556 633 570 647 c 128,-1,23
 584 661 584 661 584 686 c 0,24,25
 584 723 584 723 570 758 c 1,26,-1
 616 770 l 1,27,28
 634 736 634 736 634 688 c 0,29,4
 634 610 634 610 555 596 c 1,5,6
505 115.5 m 128,-1,31
 562 191 562 191 562 342 c 0,32,33
 562 494 562 494 504.5 569.5 c 128,-1,34
 447 645 447 645 345 645 c 0,35,36
 245 645 245 645 187 568.5 c 128,-1,37
 129 492 129 492 129 341 c 0,38,39
 129 192 129 192 187.5 116 c 128,-1,40
 246 40 246 40 345 40 c 0,41,30
 448 40 448 40 505 115.5 c 128,-1,31
EndSplineSet
Substitution2: "'c2sc' Capitals to Small Capitals lookup 26 subtable" uni1EDB.sc
Substitution2: "'aalt' Access All Alternates lookup 0 subtable" uni1EDB.sc
Position2: "'cpsp' Capital Spacing lookup 0 subtable" dx=5 dy=0 dh=10 dv=0
EndChar

StartChar: uni1EE2
Encoding: 7906 7906 205
Width: 691
GlyphClass: 2
Flags: W
AnchorPoint: "Anchor-18" 0 0 basechar 0
AnchorPoint: "Anchor-17" 594 685 basechar 0
AnchorPoint: "Anchor-16" 345 685 basechar 0
AnchorPoint: "Anchor-15" 437 0 basechar 0
AnchorPoint: "Anchor-14" 346 -197 basechar 0
LayerCount: 2
Fore
SplineSet
555 596 m 1,1,2
 625 504 625 504 625 342 c 0,3,4
 625 231 625 231 590.5 151.5 c 128,-1,5
 556 72 556 72 493 30.5 c 128,-1,6
 430 -11 430 -11 345 -11 c 0,7,8
 262 -11 262 -11 199 30 c 128,-1,9
 136 71 136 71 101 150 c 128,-1,10
 66 229 66 229 66 341 c 0,11,12
 66 452 66 452 101 532 c 128,-1,13
 136 612 136 612 199.5 654 c 128,-1,14
 263 696 263 696 345 696 c 0,15,16
 454 696 454 696 526 629 c 1,17,18
 556 633 556 633 570 647 c 128,-1,19
 584 661 584 661 584 686 c 0,20,21
 584 723 584 723 570 758 c 1,22,-1
 616 770 l 1,23,24
 634 736 634 736 634 688 c 0,25,0
 634 610 634 610 555 596 c 1,1,2
505 115.5 m 128,-1,27
 562 191 562 191 562 342 c 0,28,29
 562 494 562 494 504.5 569.5 c 128,-1,30
 447 645 447 645 345 645 c 0,31,32
 245 645 245 645 187 568.5 c 128,-1,33
 129 492 129 492 129 341 c 0,34,35
 129 192 129 192 187.5 116 c 128,-1,36
 246 40 246 40 345 40 c 0,37,26
 448 40 448 40 505 115.5 c 128,-1,27
376 -98 m 128,-1,39
 388 -110 388 -110 388 -128 c 256,40,41
 388 -146 388 -146 376 -158 c 128,-1,42
 364 -170 364 -170 345 -170 c 0,43,44
 325 -170 325 -170 313 -158 c 128,-1,45
 301 -146 301 -146 301 -128 c 256,46,47
 301 -110 301 -110 313 -98 c 128,-1,48
 325 -86 325 -86 345 -86 c 0,49,38
 364 -86 364 -86 376 -98 c 128,-1,39
EndSplineSet
Substitution2: "'c2sc' Capitals to Small Capitals lookup 26 subtable" uni1EE3.sc
Substitution2: "'aalt' Access All Alternates lookup 0 subtable" uni1EE3.sc
Position2: "'cpsp' Capital Spacing lookup 0 subtable" dx=5 dy=0 dh=10 dv=0
EndChar

StartChar: uni1EDC
Encoding: 7900 7900 206
Width: 691
GlyphClass: 2
Flags: W
AnchorPoint: "Anchor-18" 0 0 basechar 0
AnchorPoint: "Anchor-17" 594 685 basechar 0
AnchorPoint: "Anchor-16" 346 888 basechar 0
AnchorPoint: "Anchor-15" 437 0 basechar 0
AnchorPoint: "Anchor-14" 345 0 basechar 0
LayerCount: 2
Fore
SplineSet
447 792 m 1,0,-1
 431 758 l 1,1,-1
 233 836 l 1,2,-1
 259 888 l 1,3,-1
 447 792 l 1,0,-1
555 596 m 1,5,6
 625 504 625 504 625 342 c 0,7,8
 625 231 625 231 590.5 151.5 c 128,-1,9
 556 72 556 72 493 30.5 c 128,-1,10
 430 -11 430 -11 345 -11 c 0,11,12
 262 -11 262 -11 199 30 c 128,-1,13
 136 71 136 71 101 150 c 128,-1,14
 66 229 66 229 66 341 c 0,15,16
 66 452 66 452 101 532 c 128,-1,17
 136 612 136 612 199.5 654 c 128,-1,18
 263 696 263 696 345 696 c 0,19,20
 454 696 454 696 526 629 c 1,21,22
 556 633 556 633 570 647 c 128,-1,23
 584 661 584 661 584 686 c 0,24,25
 584 723 584 723 570 758 c 1,26,-1
 616 770 l 1,27,28
 634 736 634 736 634 688 c 0,29,4
 634 610 634 610 555 596 c 1,5,6
505 115.5 m 128,-1,31
 562 191 562 191 562 342 c 0,32,33
 562 494 562 494 504.5 569.5 c 128,-1,34
 447 645 447 645 345 645 c 0,35,36
 245 645 245 645 187 568.5 c 128,-1,37
 129 492 129 492 129 341 c 0,38,39
 129 192 129 192 187.5 116 c 128,-1,40
 246 40 246 40 345 40 c 0,41,30
 448 40 448 40 505 115.5 c 128,-1,31
EndSplineSet
Substitution2: "'c2sc' Capitals to Small Capitals lookup 26 subtable" uni1EDD.sc
Substitution2: "'aalt' Access All Alternates lookup 0 subtable" uni1EDD.sc
Position2: "'cpsp' Capital Spacing lookup 0 subtable" dx=5 dy=0 dh=10 dv=0
EndChar

StartChar: uni1EDE
Encoding: 7902 7902 207
Width: 691
GlyphClass: 2
Flags: W
AnchorPoint: "Anchor-18" 0 0 basechar 0
AnchorPoint: "Anchor-17" 594 685 basechar 0
AnchorPoint: "Anchor-16" 359 977 basechar 0
AnchorPoint: "Anchor-15" 437 0 basechar 0
AnchorPoint: "Anchor-14" 345 0 basechar 0
LayerCount: 2
Fore
SplineSet
286 921 m 1,1,-1
 270 956 l 1,2,3
 306 977 306 977 351 977 c 0,4,5
 394 977 394 977 419 955 c 128,-1,6
 444 933 444 933 444 897 c 0,7,8
 444 831 444 831 369 820 c 1,9,-1
 369 774 l 1,10,-1
 321 774 l 1,11,-1
 321 847 l 1,12,13
 356 849 356 849 373.5 859.5 c 128,-1,14
 391 870 391 870 391 894 c 0,15,16
 391 913 391 913 378.5 923.5 c 128,-1,17
 366 934 366 934 344 934 c 0,18,0
 315 934 315 934 286 921 c 1,1,-1
555 596 m 1,20,21
 625 504 625 504 625 342 c 0,22,23
 625 231 625 231 590.5 151.5 c 128,-1,24
 556 72 556 72 493 30.5 c 128,-1,25
 430 -11 430 -11 345 -11 c 0,26,27
 262 -11 262 -11 199 30 c 128,-1,28
 136 71 136 71 101 150 c 128,-1,29
 66 229 66 229 66 341 c 0,30,31
 66 452 66 452 101 532 c 128,-1,32
 136 612 136 612 199.5 654 c 128,-1,33
 263 696 263 696 345 696 c 0,34,35
 454 696 454 696 526 629 c 1,36,37
 556 633 556 633 570 647 c 128,-1,38
 584 661 584 661 584 686 c 0,39,40
 584 723 584 723 570 758 c 1,41,-1
 616 770 l 1,42,43
 634 736 634 736 634 688 c 0,44,19
 634 610 634 610 555 596 c 1,20,21
505 115.5 m 128,-1,46
 562 191 562 191 562 342 c 0,47,48
 562 494 562 494 504.5 569.5 c 128,-1,49
 447 645 447 645 345 645 c 0,50,51
 245 645 245 645 187 568.5 c 128,-1,52
 129 492 129 492 129 341 c 0,53,54
 129 192 129 192 187.5 116 c 128,-1,55
 246 40 246 40 345 40 c 0,56,45
 448 40 448 40 505 115.5 c 128,-1,46
EndSplineSet
Substitution2: "'c2sc' Capitals to Small Capitals lookup 26 subtable" uni1EDF.sc
Substitution2: "'aalt' Access All Alternates lookup 0 subtable" uni1EDF.sc
Position2: "'cpsp' Capital Spacing lookup 0 subtable" dx=5 dy=0 dh=10 dv=0
EndChar

StartChar: uni1EE0
Encoding: 7904 7904 208
Width: 691
GlyphClass: 2
Flags: W
AnchorPoint: "Anchor-18" 0 0 basechar 0
AnchorPoint: "Anchor-17" 594 685 basechar 0
AnchorPoint: "Anchor-16" 347 884 basechar 0
AnchorPoint: "Anchor-15" 437 0 basechar 0
AnchorPoint: "Anchor-14" 345 0 basechar 0
LayerCount: 2
Fore
SplineSet
256.5 828.5 m 128,-1,1
 244 819 244 819 230 798 c 1,2,-1
 194 816 l 1,3,4
 231 884 231 884 286 884 c 0,5,6
 303 884 303 884 317.5 878 c 128,-1,7
 332 872 332 872 350 860 c 0,8,9
 368 849 368 849 379 844 c 128,-1,10
 390 839 390 839 403 839 c 0,11,12
 419 839 419 839 431.5 849 c 128,-1,13
 444 859 444 859 459 882 c 1,14,-1
 495 864 l 1,15,16
 460 792 460 792 403 792 c 0,17,18
 385 792 385 792 370 798.5 c 128,-1,19
 355 805 355 805 333 818 c 0,20,21
 317 828 317 828 306.5 833 c 128,-1,22
 296 838 296 838 286 838 c 0,23,0
 269 838 269 838 256.5 828.5 c 128,-1,1
555 596 m 1,25,26
 625 504 625 504 625 342 c 0,27,28
 625 231 625 231 590.5 151.5 c 128,-1,29
 556 72 556 72 493 30.5 c 128,-1,30
 430 -11 430 -11 345 -11 c 0,31,32
 262 -11 262 -11 199 30 c 128,-1,33
 136 71 136 71 101 150 c 128,-1,34
 66 229 66 229 66 341 c 0,35,36
 66 452 66 452 101 532 c 128,-1,37
 136 612 136 612 199.5 654 c 128,-1,38
 263 696 263 696 345 696 c 0,39,40
 454 696 454 696 526 629 c 1,41,42
 556 633 556 633 570 647 c 128,-1,43
 584 661 584 661 584 686 c 0,44,45
 584 723 584 723 570 758 c 1,46,-1
 616 770 l 1,47,48
 634 736 634 736 634 688 c 0,49,24
 634 610 634 610 555 596 c 1,25,26
505 115.5 m 128,-1,51
 562 191 562 191 562 342 c 0,52,53
 562 494 562 494 504.5 569.5 c 128,-1,54
 447 645 447 645 345 645 c 0,55,56
 245 645 245 645 187 568.5 c 128,-1,57
 129 492 129 492 129 341 c 0,58,59
 129 192 129 192 187.5 116 c 128,-1,60
 246 40 246 40 345 40 c 0,61,50
 448 40 448 40 505 115.5 c 128,-1,51
EndSplineSet
Substitution2: "'c2sc' Capitals to Small Capitals lookup 26 subtable" uni1EE1.sc
Substitution2: "'aalt' Access All Alternates lookup 0 subtable" uni1EE1.sc
Position2: "'cpsp' Capital Spacing lookup 0 subtable" dx=5 dy=0 dh=10 dv=0
EndChar

StartChar: uni01A2
Encoding: 418 418 210
Width: 903
GlyphClass: 2
Flags: W
AnchorPoint: "Anchor-18" 0 0 basechar 0
AnchorPoint: "Anchor-17" 0 0 basechar 0
AnchorPoint: "Anchor-16" 451 685 basechar 0
AnchorPoint: "Anchor-15" 0 0 basechar 0
AnchorPoint: "Anchor-14" 451 -197 basechar 0
LayerCount: 2
Fore
SplineSet
755.5 661 m 128,-1,1
 792 625 792 625 792 553 c 2,2,-1
 792 -197 l 1,3,-1
 732 -197 l 1,4,-1
 732 554 l 2,5,6
 732 605 732 605 710.5 627 c 128,-1,7
 689 649 689 649 647 649 c 0,8,9
 617 649 617 649 590.5 641 c 128,-1,10
 564 633 564 633 536 617 c 1,11,12
 579 572 579 572 602 502.5 c 128,-1,13
 625 433 625 433 625 342 c 0,14,15
 625 231 625 231 590.5 151.5 c 128,-1,16
 556 72 556 72 493 30.5 c 128,-1,17
 430 -11 430 -11 345 -11 c 0,18,19
 262 -11 262 -11 199 30 c 128,-1,20
 136 71 136 71 101 150 c 128,-1,21
 66 229 66 229 66 341 c 0,22,23
 66 452 66 452 101 532 c 128,-1,24
 136 612 136 612 199.5 654 c 128,-1,25
 263 696 263 696 345 696 c 0,26,27
 436 696 436 696 502 648 c 1,28,29
 538 671 538 671 573.5 684 c 128,-1,30
 609 697 609 697 650 697 c 0,31,0
 719 697 719 697 755.5 661 c 128,-1,1
505 115.5 m 128,-1,33
 562 191 562 191 562 342 c 0,34,35
 562 494 562 494 504.5 569.5 c 128,-1,36
 447 645 447 645 345 645 c 0,37,38
 245 645 245 645 187 568.5 c 128,-1,39
 129 492 129 492 129 341 c 0,40,41
 129 192 129 192 187.5 116 c 128,-1,42
 246 40 246 40 345 40 c 0,43,32
 448 40 448 40 505 115.5 c 128,-1,33
EndSplineSet
Substitution2: "'c2sc' Capitals to Small Capitals lookup 26 subtable" uni01A3.sc
Substitution2: "'aalt' Access All Alternates lookup 0 subtable" uni01A3.sc
Position2: "'cpsp' Capital Spacing lookup 0 subtable" dx=5 dy=0 dh=10 dv=0
EndChar

StartChar: uni1E50
Encoding: 7760 7760 214
Width: 691
GlyphClass: 2
Flags: W
AnchorPoint: "Anchor-18" 0 0 basechar 0
AnchorPoint: "Anchor-17" 542 685 basechar 0
AnchorPoint: "Anchor-16" 351 987 basechar 0
AnchorPoint: "Anchor-15" 437 0 basechar 0
AnchorPoint: "Anchor-14" 345 0 basechar 0
LayerCount: 2
Fore
SplineSet
264 987 m 1,0,-1
 452 891 l 1,1,-1
 436 857 l 1,2,-1
 238 935 l 1,3,-1
 264 987 l 1,0,-1
465 763 m 1,4,-1
 224 763 l 1,5,-1
 224 810 l 1,6,-1
 465 810 l 1,7,-1
 465 763 l 1,4,-1
492 655.5 m 128,-1,9
 555 615 555 615 590 535 c 128,-1,10
 625 455 625 455 625 342 c 0,11,12
 625 231 625 231 590.5 151.5 c 128,-1,13
 556 72 556 72 493 30.5 c 128,-1,14
 430 -11 430 -11 345 -11 c 0,15,16
 262 -11 262 -11 199 30 c 128,-1,17
 136 71 136 71 101 150 c 128,-1,18
 66 229 66 229 66 341 c 0,19,20
 66 452 66 452 101 532 c 128,-1,21
 136 612 136 612 199.5 654 c 128,-1,22
 263 696 263 696 345 696 c 0,23,8
 429 696 429 696 492 655.5 c 128,-1,9
187 568.5 m 128,-1,25
 129 492 129 492 129 341 c 0,26,27
 129 192 129 192 187.5 116 c 128,-1,28
 246 40 246 40 345 40 c 0,29,30
 448 40 448 40 505 115.5 c 128,-1,31
 562 191 562 191 562 342 c 0,32,33
 562 494 562 494 504.5 569.5 c 128,-1,34
 447 645 447 645 345 645 c 0,35,24
 245 645 245 645 187 568.5 c 128,-1,25
EndSplineSet
Substitution2: "'c2sc' Capitals to Small Capitals lookup 26 subtable" uni1E51.sc
Substitution2: "'aalt' Access All Alternates lookup 0 subtable" uni1E51.sc
Position2: "'cpsp' Capital Spacing lookup 0 subtable" dx=5 dy=0 dh=10 dv=0
EndChar

StartChar: uniA7B6
Encoding: 42934 42934 215
Width: 839
GlyphClass: 2
Flags: W
AnchorPoint: "Anchor-18" 0 0 basechar 0
AnchorPoint: "Anchor-17" 0 0 basechar 0
AnchorPoint: "Anchor-16" 420 685 basechar 0
AnchorPoint: "Anchor-15" 0 0 basechar 0
AnchorPoint: "Anchor-14" 420 0 basechar 0
LayerCount: 2
Fore
SplineSet
749.5 500.5 m 128,-1,1
 768 414 768 414 768 291 c 0,2,3
 768 127 768 127 715.5 58 c 128,-1,4
 663 -11 663 -11 568 -11 c 0,5,6
 505 -11 505 -11 469 18 c 128,-1,7
 433 47 433 47 418 107 c 1,8,9
 401 48 401 48 364.5 18.5 c 128,-1,10
 328 -11 328 -11 268 -11 c 0,11,12
 172 -11 172 -11 121.5 60.5 c 128,-1,13
 71 132 71 132 71 292 c 0,14,15
 71 412 71 412 90 496.5 c 128,-1,16
 109 581 109 581 147 685 c 1,17,-1
 207 685 l 1,18,19
 166 582 166 582 148.5 495.5 c 128,-1,20
 131 409 131 409 131 294 c 0,21,22
 131 154 131 154 166 97 c 128,-1,23
 201 40 201 40 271 40 c 0,24,25
 326 40 326 40 356.5 75 c 128,-1,26
 387 110 387 110 387 195 c 2,27,-1
 387 397 l 1,28,-1
 447 397 l 1,29,-1
 447 195 l 2,30,31
 447 109 447 109 478 74.5 c 128,-1,32
 509 40 509 40 565 40 c 0,33,34
 610 40 610 40 641 61 c 128,-1,35
 672 82 672 82 690 137.5 c 128,-1,36
 708 193 708 193 708 292 c 0,37,38
 708 407 708 407 690.5 493.5 c 128,-1,39
 673 580 673 580 634 685 c 1,40,-1
 694 685 l 1,41,0
 731 587 731 587 749.5 500.5 c 128,-1,1
EndSplineSet
Substitution2: "'c2sc' Capitals to Small Capitals lookup 26 subtable" uniA7B6.sc
Substitution2: "'aalt' Access All Alternates lookup 0 subtable" uniA7B6.sc
Position2: "'cpsp' Capital Spacing lookup 0 subtable" dx=5 dy=0 dh=10 dv=0
EndChar

StartChar: uni01EA
Encoding: 490 490 216
Width: 691
GlyphClass: 2
Flags: W
AnchorPoint: "Anchor-18" 0 0 basechar 0
AnchorPoint: "Anchor-17" 542 685 basechar 0
AnchorPoint: "Anchor-16" 345 685 basechar 0
AnchorPoint: "Anchor-15" 437 0 basechar 0
AnchorPoint: "Anchor-14" 345 0 basechar 0
LayerCount: 2
Fore
SplineSet
572.5 115.5 m 128,-1,1
 520 27 520 27 427 0 c 1,2,3
 360 -30 360 -30 332.5 -56.5 c 128,-1,4
 305 -83 305 -83 305 -118 c 0,5,6
 305 -142 305 -142 320.5 -156 c 128,-1,7
 336 -170 336 -170 368 -170 c 0,8,9
 395 -170 395 -170 426 -163 c 1,10,-1
 420 -211 l 1,11,12
 385 -218 385 -218 362 -218 c 0,13,14
 309 -218 309 -218 280 -192.5 c 128,-1,15
 251 -167 251 -167 251 -126 c 0,16,17
 251 -91 251 -91 271.5 -63 c 128,-1,18
 292 -35 292 -35 334 -11 c 1,19,20
 254 -8 254 -8 193.5 33.5 c 128,-1,21
 133 75 133 75 99.5 153.5 c 128,-1,22
 66 232 66 232 66 341 c 0,23,24
 66 452 66 452 101 532 c 128,-1,25
 136 612 136 612 199.5 654 c 128,-1,26
 263 696 263 696 345 696 c 0,27,28
 429 696 429 696 492 655.5 c 128,-1,29
 555 615 555 615 590 535 c 128,-1,30
 625 455 625 455 625 342 c 0,31,0
 625 204 625 204 572.5 115.5 c 128,-1,1
505 115.5 m 128,-1,33
 562 191 562 191 562 342 c 0,34,35
 562 494 562 494 504.5 569.5 c 128,-1,36
 447 645 447 645 345 645 c 0,37,38
 245 645 245 645 187 568.5 c 128,-1,39
 129 492 129 492 129 341 c 0,40,41
 129 192 129 192 187.5 116 c 128,-1,42
 246 40 246 40 345 40 c 0,43,32
 448 40 448 40 505 115.5 c 128,-1,33
EndSplineSet
Substitution2: "'c2sc' Capitals to Small Capitals lookup 26 subtable" uni01EB.sc
Substitution2: "'aalt' Access All Alternates lookup 0 subtable" uni01EB.sc
Position2: "'cpsp' Capital Spacing lookup 0 subtable" dx=5 dy=0 dh=10 dv=0
EndChar

StartChar: uni01EC
Encoding: 492 492 217
Width: 691
GlyphClass: 2
Flags: W
AnchorPoint: "Anchor-18" 0 0 basechar 0
AnchorPoint: "Anchor-17" 542 685 basechar 0
AnchorPoint: "Anchor-16" 347 849 basechar 0
AnchorPoint: "Anchor-15" 437 0 basechar 0
AnchorPoint: "Anchor-14" 345 0 basechar 0
LayerCount: 2
Fore
SplineSet
465 849 m 1,0,-1
 465 802 l 1,1,-1
 224 802 l 1,2,-1
 224 849 l 1,3,-1
 465 849 l 1,0,-1
572.5 115.5 m 128,-1,5
 520 27 520 27 427 0 c 1,6,7
 360 -30 360 -30 332.5 -56.5 c 128,-1,8
 305 -83 305 -83 305 -118 c 0,9,10
 305 -142 305 -142 320.5 -156 c 128,-1,11
 336 -170 336 -170 368 -170 c 0,12,13
 395 -170 395 -170 426 -163 c 1,14,-1
 420 -211 l 1,15,16
 385 -218 385 -218 362 -218 c 0,17,18
 309 -218 309 -218 280 -192.5 c 128,-1,19
 251 -167 251 -167 251 -126 c 0,20,21
 251 -91 251 -91 271.5 -63 c 128,-1,22
 292 -35 292 -35 334 -11 c 1,23,24
 254 -8 254 -8 193.5 33.5 c 128,-1,25
 133 75 133 75 99.5 153.5 c 128,-1,26
 66 232 66 232 66 341 c 0,27,28
 66 452 66 452 101 532 c 128,-1,29
 136 612 136 612 199.5 654 c 128,-1,30
 263 696 263 696 345 696 c 0,31,32
 429 696 429 696 492 655.5 c 128,-1,33
 555 615 555 615 590 535 c 128,-1,34
 625 455 625 455 625 342 c 0,35,4
 625 204 625 204 572.5 115.5 c 128,-1,5
505 115.5 m 128,-1,37
 562 191 562 191 562 342 c 0,38,39
 562 494 562 494 504.5 569.5 c 128,-1,40
 447 645 447 645 345 645 c 0,41,42
 245 645 245 645 187 568.5 c 128,-1,43
 129 492 129 492 129 341 c 0,44,45
 129 192 129 192 187.5 116 c 128,-1,46
 246 40 246 40 345 40 c 0,47,36
 448 40 448 40 505 115.5 c 128,-1,37
EndSplineSet
Substitution2: "'c2sc' Capitals to Small Capitals lookup 26 subtable" uni01ED.sc
Substitution2: "'aalt' Access All Alternates lookup 0 subtable" uni01ED.sc
Position2: "'cpsp' Capital Spacing lookup 0 subtable" dx=5 dy=0 dh=10 dv=0
EndChar

StartChar: uni0186
Encoding: 390 390 218
Width: 550
GlyphClass: 2
Flags: W
AnchorPoint: "Anchor-18" 216 345 basechar 0
AnchorPoint: "Anchor-17" 0 0 basechar 0
AnchorPoint: "Anchor-16" 222 685 basechar 0
AnchorPoint: "Anchor-15" 0 0 basechar 0
AnchorPoint: "Anchor-14" 222 0 basechar 0
LayerCount: 2
Fore
SplineSet
362 656 m 128,-1,1
 420 616 420 616 452 537 c 128,-1,2
 484 458 484 458 484 343 c 0,3,4
 484 231 484 231 448.5 151 c 128,-1,5
 413 71 413 71 351 30 c 128,-1,6
 289 -11 289 -11 209 -11 c 0,7,8
 101 -11 101 -11 23 60 c 1,9,-1
 55 98 l 1,10,11
 94 70 94 70 127.5 56 c 128,-1,12
 161 42 161 42 208 42 c 0,13,14
 269 42 269 42 317 74.5 c 128,-1,15
 365 107 365 107 393 175 c 128,-1,16
 421 243 421 243 421 343 c 0,17,18
 421 498 421 498 367 571.5 c 128,-1,19
 313 645 313 645 222 645 c 0,20,21
 136 645 136 645 62 594 c 1,22,-1
 31 633 l 1,23,24
 115 696 115 696 226 696 c 0,25,0
 304 696 304 696 362 656 c 128,-1,1
EndSplineSet
Substitution2: "'c2sc' Capitals to Small Capitals lookup 26 subtable" uni0254.sc
Substitution2: "'aalt' Access All Alternates lookup 0 subtable" uni0254.sc
Position2: "'cpsp' Capital Spacing lookup 0 subtable" dx=5 dy=0 dh=10 dv=0
EndChar

StartChar: Oslash
Encoding: 216 216 219
Width: 691
GlyphClass: 2
Flags: W
AnchorPoint: "Anchor-18" 0 0 basechar 0
AnchorPoint: "Anchor-17" 0 0 basechar 0
AnchorPoint: "Anchor-16" 339 697 basechar 0
AnchorPoint: "Anchor-15" 0 0 basechar 0
AnchorPoint: "Anchor-14" 345 0 basechar 0
LayerCount: 2
Fore
SplineSet
584 548.5 m 128,-1,1
 625 465 625 465 625 342 c 0,2,3
 625 231 625 231 590.5 151.5 c 128,-1,4
 556 72 556 72 493 30.5 c 128,-1,5
 430 -11 430 -11 345 -11 c 0,6,7
 303 -11 303 -11 267 -1 c 1,8,-1
 235 -120 l 1,9,-1
 182 -105 l 1,10,-1
 221 17 l 1,11,12
 147 55 147 55 106.5 137.5 c 128,-1,13
 66 220 66 220 66 341 c 0,14,15
 66 452 66 452 101 532 c 128,-1,16
 136 612 136 612 199.5 654 c 128,-1,17
 263 696 263 696 345 696 c 0,18,19
 385 696 385 696 421 687 c 1,20,-1
 456 810 l 1,21,-1
 509 796 l 1,22,-1
 469 669 l 1,23,0
 543 632 543 632 584 548.5 c 128,-1,1
158 166.5 m 128,-1,25
 187 98 187 98 241 66 c 1,26,-1
 410 636 l 1,27,28
 380 645 380 645 345 645 c 0,29,30
 245 645 245 645 187 568.5 c 128,-1,31
 129 492 129 492 129 341 c 0,32,24
 129 235 129 235 158 166.5 c 128,-1,25
505 115.5 m 128,-1,34
 562 191 562 191 562 342 c 0,35,36
 562 558 562 558 448 621 c 1,37,-1
 279 49 l 1,38,39
 309 40 309 40 345 40 c 0,40,33
 448 40 448 40 505 115.5 c 128,-1,34
EndSplineSet
Substitution2: "'c2sc' Capitals to Small Capitals lookup 26 subtable" oslash.sc
Substitution2: "'aalt' Access All Alternates lookup 0 subtable" oslash.sc
Position2: "'cpsp' Capital Spacing lookup 0 subtable" dx=5 dy=0 dh=10 dv=0
EndChar

StartChar: OE
Encoding: 338 338 224
Width: 870
GlyphClass: 2
Flags: W
AnchorPoint: "Anchor-18" 0 0 basechar 0
AnchorPoint: "Anchor-17" 0 0 basechar 0
AnchorPoint: "Anchor-16" 438 685 basechar 0
AnchorPoint: "Anchor-15" 0 0 basechar 0
AnchorPoint: "Anchor-14" 438 0 basechar 0
LayerCount: 2
Fore
SplineSet
824 0 m 1,0,-1
 403 0 l 1,1,2
 370 -11 370 -11 334 -11 c 0,3,4
 256 -11 256 -11 195.5 30 c 128,-1,5
 135 71 135 71 100.5 150.5 c 128,-1,6
 66 230 66 230 66 341 c 0,7,8
 66 451 66 451 100.5 531.5 c 128,-1,9
 135 612 135 612 196 654 c 128,-1,10
 257 696 257 696 334 696 c 0,11,12
 371 696 371 696 406 685 c 1,13,-1
 817 685 l 1,14,-1
 810 635 l 1,15,-1
 493 635 l 1,16,17
 542 596 542 596 571 531.5 c 128,-1,18
 600 467 600 467 604 380 c 1,19,-1
 772 380 l 1,20,-1
 772 330 l 1,21,-1
 605 330 l 1,22,23
 603 234 603 234 573 162.5 c 128,-1,24
 543 91 543 91 489 50 c 1,25,-1
 824 50 l 1,26,-1
 824 0 l 1,0,-1
155.5 174 m 128,-1,28
 182 106 182 106 228.5 73 c 128,-1,29
 275 40 275 40 335 40 c 0,30,31
 431 40 431 40 486.5 117 c 128,-1,32
 542 194 542 194 542 347 c 0,33,34
 542 494 542 494 486 569.5 c 128,-1,35
 430 645 430 645 335 645 c 0,36,37
 242 645 242 645 185.5 568 c 128,-1,38
 129 491 129 491 129 341 c 0,39,27
 129 242 129 242 155.5 174 c 128,-1,28
EndSplineSet
Substitution2: "'c2sc' Capitals to Small Capitals lookup 26 subtable" oe.sc
Substitution2: "'aalt' Access All Alternates lookup 0 subtable" oe.sc
Position2: "'cpsp' Capital Spacing lookup 0 subtable" dx=5 dy=0 dh=10 dv=0
EndChar

StartChar: P
Encoding: 80 80 225
Width: 570
GlyphClass: 2
Flags: W
AnchorPoint: "Anchor-18" 0 0 basechar 0
AnchorPoint: "Anchor-17" 0 0 basechar 0
AnchorPoint: "Anchor-16" 286 685 basechar 0
AnchorPoint: "Anchor-15" 0 0 basechar 0
AnchorPoint: "Anchor-14" 141 0 basechar 0
LayerCount: 2
Fore
SplineSet
459.5 634.5 m 128,-1,1
 525 584 525 584 525 480 c 0,2,3
 525 370 525 370 456.5 318.5 c 128,-1,4
 388 267 388 267 269 267 c 2,5,-1
 171 267 l 1,6,-1
 171 0 l 1,7,-1
 111 0 l 1,8,-1
 111 685 l 1,9,-1
 272 685 l 2,10,0
 394 685 394 685 459.5 634.5 c 128,-1,1
412 353 m 128,-1,12
 462 390 462 390 462 479 c 0,13,14
 462 563 462 563 413.5 599.5 c 128,-1,15
 365 636 365 636 271 636 c 2,16,-1
 171 636 l 1,17,-1
 171 316 l 1,18,-1
 269 316 l 2,19,11
 362 316 362 316 412 353 c 128,-1,12
EndSplineSet
Substitution2: "'c2sc' Capitals to Small Capitals lookup 26 subtable" p.sc
Substitution2: "'aalt' Access All Alternates lookup 0 subtable" p.sc
Position2: "'cpsp' Capital Spacing lookup 0 subtable" dx=5 dy=0 dh=10 dv=0
EndChar

StartChar: uni01A4
Encoding: 420 420 228
Width: 630
GlyphClass: 2
Flags: W
AnchorPoint: "Anchor-18" 0 0 basechar 0
AnchorPoint: "Anchor-17" 0 0 basechar 0
AnchorPoint: "Anchor-16" 346 685 basechar 0
AnchorPoint: "Anchor-15" 0 0 basechar 0
AnchorPoint: "Anchor-14" 201 0 basechar 0
LayerCount: 2
Fore
SplineSet
519.5 634.5 m 128,-1,1
 585 584 585 584 585 480 c 0,2,3
 585 370 585 370 516.5 318.5 c 128,-1,4
 448 267 448 267 329 267 c 2,5,-1
 231 267 l 1,6,-1
 231 0 l 1,7,-1
 171 0 l 1,8,-1
 171 636 l 1,9,-1
 142 636 l 2,10,11
 106 636 106 636 88.5 619 c 128,-1,12
 71 602 71 602 71 573 c 0,13,14
 71 553 71 553 76.5 537 c 128,-1,15
 82 521 82 521 93 498 c 1,16,-1
 51 476 l 1,17,18
 33 503 33 503 24 524 c 128,-1,19
 15 545 15 545 15 574 c 0,20,21
 15 624 15 624 49 654.5 c 128,-1,22
 83 685 83 685 146 685 c 2,23,-1
 332 685 l 2,24,0
 454 685 454 685 519.5 634.5 c 128,-1,1
472 353 m 128,-1,26
 522 390 522 390 522 479 c 0,27,28
 522 563 522 563 473.5 599.5 c 128,-1,29
 425 636 425 636 331 636 c 2,30,-1
 231 636 l 1,31,-1
 231 316 l 1,32,-1
 329 316 l 2,33,25
 422 316 422 316 472 353 c 128,-1,26
EndSplineSet
Substitution2: "'c2sc' Capitals to Small Capitals lookup 26 subtable" uni01A5.sc
Substitution2: "'aalt' Access All Alternates lookup 0 subtable" uni01A5.sc
Position2: "'cpsp' Capital Spacing lookup 0 subtable" dx=5 dy=0 dh=10 dv=0
EndChar

StartChar: Thorn
Encoding: 222 222 229
Width: 570
GlyphClass: 2
Flags: W
AnchorPoint: "Anchor-18" 0 0 basechar 0
AnchorPoint: "Anchor-17" 0 0 basechar 0
AnchorPoint: "Anchor-16" 285 685 basechar 0
AnchorPoint: "Anchor-15" 0 0 basechar 0
AnchorPoint: "Anchor-14" 285 0 basechar 0
LayerCount: 2
Fore
SplineSet
460 512 m 128,-1,1
 525 461 525 461 525 356 c 0,2,3
 525 242 525 242 456.5 189 c 128,-1,4
 388 136 388 136 269 136 c 2,5,-1
 171 136 l 1,6,-1
 171 0 l 1,7,-1
 111 0 l 1,8,-1
 111 685 l 1,9,-1
 171 685 l 1,10,-1
 171 563 l 1,11,-1
 272 563 l 2,12,0
 395 563 395 563 460 512 c 128,-1,1
412 223.5 m 128,-1,14
 462 261 462 261 462 355 c 0,15,16
 462 440 462 440 414 476.5 c 128,-1,17
 366 513 366 513 271 513 c 2,18,-1
 171 513 l 1,19,-1
 171 186 l 1,20,-1
 269 186 l 2,21,13
 362 186 362 186 412 223.5 c 128,-1,14
EndSplineSet
Substitution2: "'c2sc' Capitals to Small Capitals lookup 26 subtable" thorn.sc
Substitution2: "'aalt' Access All Alternates lookup 0 subtable" thorn.sc
Position2: "'cpsp' Capital Spacing lookup 0 subtable" dx=5 dy=0 dh=10 dv=0
EndChar

StartChar: Q
Encoding: 81 81 230
Width: 690
GlyphClass: 2
Flags: W
AnchorPoint: "Anchor-18" 0 0 basechar 0
AnchorPoint: "Anchor-17" 0 0 basechar 0
AnchorPoint: "Anchor-16" 340 685 basechar 0
AnchorPoint: "Anchor-15" 0 0 basechar 0
AnchorPoint: "Anchor-14" 340 0 basechar 0
LayerCount: 2
Fore
SplineSet
559.5 6.5 m 128,-1,1
 610 -10 610 -10 649 -42 c 1,2,-1
 609 -93 l 1,3,4
 555 -45 555 -45 497 -27 c 128,-1,5
 439 -9 439 -9 345 -9 c 0,6,7
 262 -9 262 -9 199 31.5 c 128,-1,8
 136 72 136 72 101 150.5 c 128,-1,9
 66 229 66 229 66 341 c 0,10,11
 66 452 66 452 101 532 c 128,-1,12
 136 612 136 612 199.5 654 c 128,-1,13
 263 696 263 696 345 696 c 0,14,15
 429 696 429 696 492 655.5 c 128,-1,16
 555 615 555 615 590 535 c 128,-1,17
 625 455 625 455 625 342 c 0,18,19
 625 87 625 87 452 24 c 1,20,0
 509 23 509 23 559.5 6.5 c 128,-1,1
187.5 116 m 128,-1,22
 246 40 246 40 345 40 c 0,23,24
 448 40 448 40 505 115.5 c 128,-1,25
 562 191 562 191 562 342 c 0,26,27
 562 494 562 494 504.5 569.5 c 128,-1,28
 447 645 447 645 345 645 c 0,29,30
 245 645 245 645 187 568.5 c 128,-1,31
 129 492 129 492 129 341 c 0,32,21
 129 192 129 192 187.5 116 c 128,-1,22
EndSplineSet
Substitution2: "'c2sc' Capitals to Small Capitals lookup 26 subtable" q.sc
Substitution2: "'aalt' Access All Alternates lookup 0 subtable" q.sc
Position2: "'cpsp' Capital Spacing lookup 0 subtable" dx=5 dy=0 dh=10 dv=0
EndChar

StartChar: uni024A
Encoding: 586 586 231
Width: 660
GlyphClass: 2
Flags: W
AnchorPoint: "Anchor-18" 0 0 basechar 0
AnchorPoint: "Anchor-17" 0 0 basechar 0
AnchorPoint: "Anchor-16" 330 685 basechar 0
AnchorPoint: "Anchor-15" 0 0 basechar 0
AnchorPoint: "Anchor-14" 330 -197 basechar 0
LayerCount: 2
Fore
SplineSet
716 -171 m 1,0,1
 672 -205 672 -205 614 -205 c 0,2,3
 557 -205 557 -205 523 -171 c 128,-1,4
 489 -137 489 -137 489 -71 c 2,5,-1
 489 57 l 1,6,7
 424 -11 424 -11 325 -11 c 0,8,9
 251 -11 251 -11 192.5 27.5 c 128,-1,10
 134 66 134 66 100 143 c 128,-1,11
 66 220 66 220 66 329 c 0,12,13
 66 444 66 444 100 527 c 128,-1,14
 134 610 134 610 193.5 653 c 128,-1,15
 253 696 253 696 327 696 c 0,16,17
 427 696 427 696 491 627 c 1,18,-1
 496 685 l 1,19,-1
 549 685 l 1,20,-1
 549 -72 l 2,21,22
 549 -116 549 -116 567 -136 c 128,-1,23
 585 -156 585 -156 616 -156 c 0,24,25
 640 -156 640 -156 656.5 -150 c 128,-1,26
 673 -144 673 -144 691 -133 c 1,27,-1
 716 -171 l 1,0,1
489 113 m 1,29,-1
 489 574 l 1,30,31
 427 645 427 645 332 645 c 0,32,33
 240 645 240 645 184.5 565.5 c 128,-1,34
 129 486 129 486 129 329 c 0,35,36
 129 185 129 185 184.5 112.5 c 128,-1,37
 240 40 240 40 329 40 c 0,38,28
 425 40 425 40 489 113 c 1,29,-1
EndSplineSet
Substitution2: "'c2sc' Capitals to Small Capitals lookup 26 subtable" uni024B.sc
Substitution2: "'aalt' Access All Alternates lookup 0 subtable" uni024B.sc
Position2: "'cpsp' Capital Spacing lookup 0 subtable" dx=5 dy=0 dh=10 dv=0
EndChar

StartChar: R
Encoding: 82 82 232
Width: 590
GlyphClass: 2
Flags: W
AnchorPoint: "Anchor-18" 0 0 basechar 0
AnchorPoint: "Anchor-17" 0 0 basechar 0
AnchorPoint: "Anchor-16" 291 685 basechar 0
AnchorPoint: "Anchor-15" 0 0 basechar 0
AnchorPoint: "Anchor-14" 307 0 basechar 0
LayerCount: 2
Fore
SplineSet
308 307 m 1,0,-1
 171 307 l 1,1,-1
 171 0 l 1,2,-1
 111 0 l 1,3,-1
 111 685 l 1,4,-1
 277 685 l 2,5,6
 521 685 521 685 521 499 c 0,7,8
 521 425 521 425 482 381 c 128,-1,9
 443 337 443 337 368 318 c 1,10,-1
 556 0 l 1,11,-1
 485 0 l 1,12,-1
 308 307 l 1,0,-1
285 356 m 2,13,14
 457 356 457 356 457 499 c 0,15,16
 457 569 457 569 414 602.5 c 128,-1,17
 371 636 371 636 275 636 c 2,18,-1
 171 636 l 1,19,-1
 171 356 l 1,20,-1
 285 356 l 2,13,14
EndSplineSet
Substitution2: "'c2sc' Capitals to Small Capitals lookup 26 subtable" r.sc
Substitution2: "'aalt' Access All Alternates lookup 0 subtable" r.sc
Position2: "'cpsp' Capital Spacing lookup 0 subtable" dx=5 dy=0 dh=10 dv=0
EndChar

StartChar: uni024C
Encoding: 588 588 239
Width: 592
GlyphClass: 2
Flags: W
AnchorPoint: "Anchor-18" 0 0 basechar 0
AnchorPoint: "Anchor-17" 0 0 basechar 0
AnchorPoint: "Anchor-16" 294 685 basechar 0
AnchorPoint: "Anchor-15" 0 0 basechar 0
AnchorPoint: "Anchor-14" 310 0 basechar 0
LayerCount: 2
Fore
SplineSet
488 0 m 1,0,-1
 311 307 l 1,1,-1
 174 307 l 1,2,-1
 174 0 l 1,3,-1
 114 0 l 1,4,-1
 114 307 l 1,5,-1
 23 307 l 1,6,-1
 23 356 l 1,7,-1
 114 356 l 1,8,-1
 114 685 l 1,9,-1
 280 685 l 2,10,11
 524 685 524 685 524 499 c 0,12,13
 524 425 524 425 485 381 c 128,-1,14
 446 337 446 337 371 318 c 1,15,-1
 559 0 l 1,16,-1
 488 0 l 1,0,-1
460 499 m 0,18,19
 460 569 460 569 417 602.5 c 128,-1,20
 374 636 374 636 278 636 c 2,21,-1
 174 636 l 1,22,-1
 174 356 l 1,23,-1
 288 356 l 2,24,17
 460 356 460 356 460 499 c 0,18,19
EndSplineSet
Substitution2: "'c2sc' Capitals to Small Capitals lookup 26 subtable" uni024D.sc
Substitution2: "'aalt' Access All Alternates lookup 0 subtable" uni024D.sc
Position2: "'cpsp' Capital Spacing lookup 0 subtable" dx=5 dy=0 dh=10 dv=0
EndChar

StartChar: uni2C64
Encoding: 11364 11364 240
Width: 590
GlyphClass: 2
Flags: W
AnchorPoint: "Anchor-18" 0 0 basechar 0
AnchorPoint: "Anchor-17" 0 0 basechar 0
AnchorPoint: "Anchor-16" 291 685 basechar 0
AnchorPoint: "Anchor-15" 0 0 basechar 0
AnchorPoint: "Anchor-14" 307 0 basechar 0
LayerCount: 2
Fore
SplineSet
189 -136 m 128,-1,1
 207 -156 207 -156 238 -156 c 0,2,3
 262 -156 262 -156 278.5 -150 c 128,-1,4
 295 -144 295 -144 313 -133 c 1,5,-1
 338 -171 l 1,6,7
 294 -205 294 -205 236 -205 c 0,8,9
 179 -205 179 -205 145 -171 c 128,-1,10
 111 -137 111 -137 111 -71 c 2,11,-1
 111 685 l 1,12,-1
 277 685 l 2,13,14
 521 685 521 685 521 499 c 0,15,16
 521 425 521 425 482 381 c 128,-1,17
 443 337 443 337 368 318 c 1,18,-1
 556 0 l 1,19,-1
 485 0 l 1,20,-1
 308 307 l 1,21,-1
 171 307 l 1,22,-1
 171 -72 l 2,23,0
 171 -116 171 -116 189 -136 c 128,-1,1
171 636 m 1,24,-1
 171 356 l 1,25,-1
 285 356 l 2,26,27
 457 356 457 356 457 499 c 0,28,29
 457 569 457 569 414 602.5 c 128,-1,30
 371 636 371 636 275 636 c 2,31,-1
 171 636 l 1,24,-1
EndSplineSet
Substitution2: "'ss01' Style Set 1 lookup 33 subtable" uni2C64.ss01
Substitution2: "'salt' Stylistic Alternatives lookup 32 subtable" uni2C64.ss01
Substitution2: "'c2sc' Capitals to Small Capitals lookup 26 subtable" uni2C64.sc
AlternateSubs2: "'aalt' Access All Alternates lookup 1 subtable" uni2C64.sc uni2C64.ss01
Position2: "'cpsp' Capital Spacing lookup 0 subtable" dx=5 dy=0 dh=10 dv=0
EndChar

StartChar: uni2C64.ss01
Encoding: 65544 -1 241
Width: 408
GlyphClass: 2
Flags: W
AnchorPoint: "Anchor-18" 0 0 basechar 0
AnchorPoint: "Anchor-17" 0 0 basechar 0
AnchorPoint: "Anchor-16" 204 685 basechar 0
AnchorPoint: "Anchor-15" 0 0 basechar 0
AnchorPoint: "Anchor-14" 204 -197 basechar 0
LayerCount: 2
Fore
SplineSet
189 -136 m 128,-1,1
 207 -156 207 -156 238 -156 c 0,2,3
 262 -156 262 -156 278.5 -150 c 128,-1,4
 295 -144 295 -144 313 -133 c 1,5,-1
 338 -171 l 1,6,7
 294 -205 294 -205 236 -205 c 0,8,9
 179 -205 179 -205 145 -171 c 128,-1,10
 111 -137 111 -137 111 -71 c 2,11,-1
 111 685 l 1,12,-1
 163 685 l 1,13,-1
 167 575 l 1,14,15
 215 696 215 696 336 696 c 0,16,17
 373 696 373 696 402 687 c 1,18,-1
 389 631 l 1,19,20
 361 638 361 638 332 638 c 0,21,22
 273 638 273 638 232.5 599.5 c 128,-1,23
 192 561 192 561 171 480 c 1,24,-1
 171 -72 l 2,25,0
 171 -116 171 -116 189 -136 c 128,-1,1
EndSplineSet
Position2: "'cpsp' Capital Spacing lookup 0 subtable" dx=5 dy=0 dh=10 dv=0
EndChar

StartChar: S
Encoding: 83 83 242
Width: 539
GlyphClass: 2
Flags: W
AnchorPoint: "Anchor-18" 0 0 basechar 0
AnchorPoint: "Anchor-17" 0 0 basechar 0
AnchorPoint: "Anchor-16" 272 685 basechar 0
AnchorPoint: "Anchor-15" 0 0 basechar 0
AnchorPoint: "Anchor-14" 264 0 basechar 0
LayerCount: 2
Fore
SplineSet
375.5 677.5 m 128,-1,1
 421 659 421 659 464 620 c 1,2,-1
 429 582 l 1,3,4
 390 615 390 615 353 630 c 128,-1,5
 316 645 316 645 269 645 c 0,6,7
 205 645 205 645 166 613.5 c 128,-1,8
 127 582 127 582 127 529 c 0,9,10
 127 493 127 493 141.5 469.5 c 128,-1,11
 156 446 156 446 190 427.5 c 128,-1,12
 224 409 224 409 287 390 c 0,13,14
 355 369 355 369 397 345 c 128,-1,15
 439 321 439 321 462 283 c 128,-1,16
 485 245 485 245 485 187 c 256,17,18
 485 129 485 129 457 84 c 128,-1,19
 429 39 429 39 377.5 14 c 128,-1,20
 326 -11 326 -11 258 -11 c 0,21,22
 130 -11 130 -11 39 75 c 1,23,-1
 73 113 l 1,24,25
 115 77 115 77 158 58.5 c 128,-1,26
 201 40 201 40 257 40 c 0,27,28
 331 40 331 40 377.5 79 c 128,-1,29
 424 118 424 118 424 185 c 0,30,31
 424 227 424 227 408.5 254 c 128,-1,32
 393 281 393 281 358.5 300.5 c 128,-1,33
 324 320 324 320 261 340 c 0,34,35
 156 372 156 372 111 414 c 128,-1,36
 66 456 66 456 66 528 c 0,37,38
 66 576 66 576 91.5 614.5 c 128,-1,39
 117 653 117 653 162.5 674.5 c 128,-1,40
 208 696 208 696 267 696 c 0,41,0
 330 696 330 696 375.5 677.5 c 128,-1,1
EndSplineSet
Substitution2: "'c2sc' Capitals to Small Capitals lookup 26 subtable" s.sc
Substitution2: "'aalt' Access All Alternates lookup 0 subtable" s.sc
Position2: "'cpsp' Capital Spacing lookup 0 subtable" dx=5 dy=0 dh=10 dv=0
EndChar

StartChar: uniA78B
Encoding: 42891 42891 245
Width: 207
GlyphClass: 2
Flags: W
LayerCount: 2
Fore
SplineSet
79 354 m 1,0,-1
 71 685 l 1,1,-1
 136 685 l 1,2,-1
 128 354 l 1,3,-1
 79 354 l 1,0,-1
EndSplineSet
Position2: "'cpsp' Capital Spacing lookup 0 subtable" dx=5 dy=0 dh=10 dv=0
EndChar

StartChar: Scedilla
Encoding: 350 350 247
Width: 539
GlyphClass: 2
Flags: W
AnchorPoint: "Anchor-18" 0 0 basechar 0
AnchorPoint: "Anchor-17" 0 0 basechar 0
AnchorPoint: "Anchor-16" 272 685 basechar 0
AnchorPoint: "Anchor-15" 0 0 basechar 0
AnchorPoint: "Anchor-14" 281 -227 basechar 0
LayerCount: 2
Fore
SplineSet
429 49 m 128,-1,1
 373 -5 373 -5 279 -10 c 1,2,-1
 279 -64 l 1,3,4
 326 -68 326 -68 348.5 -88 c 128,-1,5
 371 -108 371 -108 371 -140 c 0,6,7
 371 -181 371 -181 341 -204 c 128,-1,8
 311 -227 311 -227 266 -227 c 0,9,10
 218 -227 218 -227 186 -206 c 1,11,-1
 204 -170 l 1,12,13
 231 -185 231 -185 265 -185 c 0,14,15
 289 -185 289 -185 304.5 -174 c 128,-1,16
 320 -163 320 -163 320 -140 c 0,17,18
 320 -118 320 -118 298.5 -107 c 128,-1,19
 277 -96 277 -96 231 -96 c 1,20,-1
 239 -11 l 1,21,22
 123 -4 123 -4 39 75 c 1,23,-1
 73 113 l 1,24,25
 115 77 115 77 158 58.5 c 128,-1,26
 201 40 201 40 257 40 c 0,27,28
 331 40 331 40 377.5 79 c 128,-1,29
 424 118 424 118 424 185 c 0,30,31
 424 227 424 227 408.5 254 c 128,-1,32
 393 281 393 281 358.5 300.5 c 128,-1,33
 324 320 324 320 261 340 c 0,34,35
 156 372 156 372 111 414 c 128,-1,36
 66 456 66 456 66 528 c 0,37,38
 66 576 66 576 91.5 614.5 c 128,-1,39
 117 653 117 653 162.5 674.5 c 128,-1,40
 208 696 208 696 267 696 c 0,41,42
 330 696 330 696 375.5 677.5 c 128,-1,43
 421 659 421 659 464 620 c 1,44,-1
 429 582 l 1,45,46
 390 615 390 615 353 630 c 128,-1,47
 316 645 316 645 269 645 c 0,48,49
 205 645 205 645 166 613.5 c 128,-1,50
 127 582 127 582 127 529 c 0,51,52
 127 493 127 493 141.5 469.5 c 128,-1,53
 156 446 156 446 190 427.5 c 128,-1,54
 224 409 224 409 287 390 c 0,55,56
 355 369 355 369 397 345 c 128,-1,57
 439 321 439 321 462 283 c 128,-1,58
 485 245 485 245 485 187 c 0,59,0
 485 103 485 103 429 49 c 128,-1,1
EndSplineSet
Substitution2: "'c2sc' Capitals to Small Capitals lookup 26 subtable" scedilla.sc
Substitution2: "'locl' Localized Forms in Latin lookup 5 subtable" Scommaaccent
Substitution2: "'locl' Localized Forms in Latin lookup 4 subtable" Scommaaccent
AlternateSubs2: "'aalt' Access All Alternates lookup 1 subtable" Scommaaccent scedilla.sc
Position2: "'cpsp' Capital Spacing lookup 0 subtable" dx=5 dy=0 dh=10 dv=0
EndChar

StartChar: uni1E9E
Encoding: 7838 7838 252
Width: 649
GlyphClass: 2
Flags: W
LayerCount: 2
Fore
SplineSet
553 628 m 1,1,-1
 553 587 l 1,2,-1
 364 385 l 1,3,4
 596 361 596 361 596 186 c 0,5,6
 596 94 596 94 539.5 41.5 c 128,-1,7
 483 -11 483 -11 388 -11 c 0,8,9
 317 -11 317 -11 273 12 c 1,10,-1
 293 56 l 1,11,12
 336 40 336 40 385 40 c 0,13,14
 455 40 455 40 494 77.5 c 128,-1,15
 533 115 533 115 533 186 c 0,16,17
 533 263 533 263 477 300 c 128,-1,18
 421 337 421 337 305 343 c 1,19,-1
 305 392 l 1,20,-1
 497 602 l 1,21,22
 453 622 453 622 410.5 633.5 c 128,-1,23
 368 645 368 645 321 645 c 0,24,25
 171 645 171 645 171 490 c 2,26,-1
 171 0 l 1,27,-1
 111 0 l 1,28,-1
 111 492 l 2,29,30
 111 589 111 589 166 642.5 c 128,-1,31
 221 696 221 696 320 696 c 0,32,0
 433 696 433 696 553 628 c 1,1,-1
EndSplineSet
Substitution2: "'c2sc' Capitals to Small Capitals lookup 26 subtable" germandbls.sc
Substitution2: "'aalt' Access All Alternates lookup 0 subtable" germandbls.sc
Position2: "'cpsp' Capital Spacing lookup 0 subtable" dx=5 dy=0 dh=10 dv=0
EndChar

StartChar: T
Encoding: 84 84 254
Width: 495
GlyphClass: 2
Flags: W
AnchorPoint: "Anchor-18" 248 347 basechar 0
AnchorPoint: "Anchor-17" 0 0 basechar 0
AnchorPoint: "Anchor-16" 248 685 basechar 0
AnchorPoint: "Anchor-15" 0 0 basechar 0
AnchorPoint: "Anchor-14" 248 0 basechar 0
LayerCount: 2
Fore
SplineSet
485 685 m 1,0,-1
 478 632 l 1,1,-1
 277 632 l 1,2,-1
 277 0 l 1,3,-1
 218 0 l 1,4,-1
 218 632 l 1,5,-1
 15 632 l 1,6,-1
 15 685 l 1,7,-1
 485 685 l 1,0,-1
EndSplineSet
Substitution2: "'c2sc' Capitals to Small Capitals lookup 26 subtable" t.sc
Substitution2: "'aalt' Access All Alternates lookup 0 subtable" t.sc
Position2: "'cpsp' Capital Spacing lookup 0 subtable" dx=5 dy=0 dh=10 dv=0
EndChar

StartChar: Tbar
Encoding: 358 358 255
Width: 495
GlyphClass: 2
Flags: W
AnchorPoint: "Anchor-18" 248 346 basechar 0
AnchorPoint: "Anchor-17" 0 0 basechar 0
AnchorPoint: "Anchor-16" 248 684 basechar 0
AnchorPoint: "Anchor-15" 0 0 basechar 0
AnchorPoint: "Anchor-14" 248 -1 basechar 0
LayerCount: 2
Fore
SplineSet
478 631 m 1,0,-1
 277 631 l 1,1,-1
 277 384 l 1,2,-1
 402 384 l 1,3,-1
 402 337 l 1,4,-1
 277 337 l 1,5,-1
 277 -1 l 1,6,-1
 218 -1 l 1,7,-1
 218 337 l 1,8,-1
 94 337 l 1,9,-1
 94 384 l 1,10,-1
 218 384 l 1,11,-1
 218 631 l 1,12,-1
 15 631 l 1,13,-1
 15 684 l 1,14,-1
 485 684 l 1,15,-1
 478 631 l 1,0,-1
EndSplineSet
Substitution2: "'c2sc' Capitals to Small Capitals lookup 26 subtable" tbar.sc
Substitution2: "'aalt' Access All Alternates lookup 0 subtable" tbar.sc
Position2: "'cpsp' Capital Spacing lookup 0 subtable" dx=5 dy=0 dh=10 dv=0
EndChar

StartChar: uni0162
Encoding: 354 354 257
Width: 495
GlyphClass: 2
Flags: W
AnchorPoint: "Anchor-18" 248 347 basechar 0
AnchorPoint: "Anchor-17" 0 0 basechar 0
AnchorPoint: "Anchor-16" 248 685 basechar 0
AnchorPoint: "Anchor-15" 0 0 basechar 0
AnchorPoint: "Anchor-14" 248 0 basechar 0
LayerCount: 2
Fore
SplineSet
347 -88 m 128,-1,1
 370 -108 370 -108 370 -140 c 0,2,3
 370 -181 370 -181 339.5 -204 c 128,-1,4
 309 -227 309 -227 263 -227 c 0,5,6
 216 -227 216 -227 185 -206 c 1,7,-1
 203 -170 l 1,8,9
 230 -185 230 -185 262 -185 c 0,10,11
 287 -185 287 -185 303 -174 c 128,-1,12
 319 -163 319 -163 319 -140 c 0,13,14
 319 -118 319 -118 297.5 -107 c 128,-1,15
 276 -96 276 -96 230 -96 c 1,16,-1
 239 0 l 1,17,-1
 218 0 l 1,18,-1
 218 632 l 1,19,-1
 15 632 l 1,20,-1
 15 685 l 1,21,-1
 485 685 l 1,22,-1
 478 632 l 1,23,-1
 277 632 l 1,24,-1
 277 -64 l 1,25,0
 324 -68 324 -68 347 -88 c 128,-1,1
EndSplineSet
Substitution2: "'c2sc' Capitals to Small Capitals lookup 26 subtable" uni0163.sc
Substitution2: "'locl' Localized Forms in Latin lookup 5 subtable" uni021A
Substitution2: "'locl' Localized Forms in Latin lookup 4 subtable" uni021A
AlternateSubs2: "'aalt' Access All Alternates lookup 1 subtable" uni021A uni0163.sc
Position2: "'cpsp' Capital Spacing lookup 0 subtable" dx=5 dy=0 dh=10 dv=0
EndChar

StartChar: uni023E
Encoding: 574 574 260
Width: 495
GlyphClass: 2
Flags: W
AnchorPoint: "Anchor-18" 0 0 basechar 0
AnchorPoint: "Anchor-17" 0 0 basechar 0
AnchorPoint: "Anchor-16" 248 685 basechar 0
AnchorPoint: "Anchor-15" 0 0 basechar 0
AnchorPoint: "Anchor-14" 248 0 basechar 0
LayerCount: 2
Fore
SplineSet
478 632 m 1,0,-1
 367 632 l 1,1,-1
 277 360 l 1,2,-1
 277 0 l 1,3,-1
 218 0 l 1,4,-1
 218 183 l 1,5,-1
 134 -70 l 1,6,-1
 102 -59 l 1,7,-1
 218 290 l 1,8,-1
 218 632 l 1,9,-1
 15 632 l 1,10,-1
 15 685 l 1,11,-1
 349 685 l 1,12,-1
 370 747 l 1,13,-1
 402 736 l 1,14,-1
 385 685 l 1,15,-1
 485 685 l 1,16,-1
 478 632 l 1,0,-1
277 467 m 1,17,-1
 332 632 l 1,18,-1
 277 632 l 1,19,-1
 277 467 l 1,17,-1
EndSplineSet
Substitution2: "'c2sc' Capitals to Small Capitals lookup 26 subtable" uni2C66.sc
Substitution2: "'aalt' Access All Alternates lookup 0 subtable" uni2C66.sc
Position2: "'cpsp' Capital Spacing lookup 0 subtable" dx=5 dy=0 dh=10 dv=0
EndChar

StartChar: uni01AC
Encoding: 428 428 263
Width: 523
GlyphClass: 2
Flags: W
AnchorPoint: "Anchor-18" 0 0 basechar 0
AnchorPoint: "Anchor-17" 0 0 basechar 0
AnchorPoint: "Anchor-16" 262 685 basechar 0
AnchorPoint: "Anchor-15" 0 0 basechar 0
AnchorPoint: "Anchor-14" 276 0 basechar 0
LayerCount: 2
Fore
SplineSet
506 632 m 1,0,-1
 306 632 l 1,1,-1
 306 0 l 1,2,-1
 246 0 l 1,3,-1
 246 632 l 1,4,-1
 143 632 l 2,5,6
 107 632 107 632 89.5 616 c 128,-1,7
 72 600 72 600 72 572 c 0,8,9
 72 552 72 552 77.5 537 c 128,-1,10
 83 522 83 522 94 499 c 1,11,-1
 50 476 l 1,12,13
 33 502 33 502 24 523.5 c 128,-1,14
 15 545 15 545 15 573 c 0,15,16
 15 624 15 624 50 654.5 c 128,-1,17
 85 685 85 685 149 685 c 2,18,-1
 513 685 l 1,19,-1
 506 632 l 1,0,-1
EndSplineSet
Substitution2: "'c2sc' Capitals to Small Capitals lookup 26 subtable" uni01AD.sc
Substitution2: "'aalt' Access All Alternates lookup 0 subtable" uni01AD.sc
Position2: "'cpsp' Capital Spacing lookup 0 subtable" dx=5 dy=0 dh=10 dv=0
EndChar

StartChar: uni0184
Encoding: 388 388 266
Width: 561
GlyphClass: 2
Flags: W
AnchorPoint: "Anchor-18" 0 0 basechar 0
AnchorPoint: "Anchor-17" 0 0 basechar 0
AnchorPoint: "Anchor-16" 280 685 basechar 0
AnchorPoint: "Anchor-15" 0 0 basechar 0
AnchorPoint: "Anchor-14" 280 0 basechar 0
LayerCount: 2
Fore
SplineSet
461 371.5 m 128,-1,1
 525 320 525 320 525 218 c 0,2,3
 525 107 525 107 459 53.5 c 128,-1,4
 393 0 393 0 278 0 c 2,5,-1
 111 0 l 1,6,-1
 111 549 l 1,7,-1
 58 584 l 1,8,9
 99 628 99 628 118 685 c 1,10,-1
 170 685 l 1,11,-1
 170 423 l 1,12,-1
 280 423 l 2,13,0
 397 423 397 423 461 371.5 c 128,-1,1
416 89 m 128,-1,15
 462 128 462 128 462 217 c 0,16,17
 462 299 462 299 416 336.5 c 128,-1,18
 370 374 370 374 282 374 c 2,19,-1
 170 374 l 1,20,-1
 170 50 l 1,21,-1
 286 50 l 2,22,14
 370 50 370 50 416 89 c 128,-1,15
EndSplineSet
Substitution2: "'c2sc' Capitals to Small Capitals lookup 26 subtable" uni0185.sc
Substitution2: "'aalt' Access All Alternates lookup 0 subtable" uni0185.sc
Position2: "'cpsp' Capital Spacing lookup 0 subtable" dx=5 dy=0 dh=10 dv=0
EndChar

StartChar: uni01A7
Encoding: 423 423 267
Width: 530
GlyphClass: 2
Flags: W
AnchorPoint: "Anchor-18" 0 0 basechar 0
AnchorPoint: "Anchor-17" 0 0 basechar 0
AnchorPoint: "Anchor-16" 265 685 basechar 0
AnchorPoint: "Anchor-15" 0 0 basechar 0
AnchorPoint: "Anchor-14" 265 0 basechar 0
LayerCount: 2
Fore
SplineSet
421 651 m 128,-1,1
 473 606 473 606 473 533 c 256,2,3
 473 460 473 460 428 418.5 c 128,-1,4
 383 377 383 377 278 342 c 0,5,6
 216 322 216 322 181 300.5 c 128,-1,7
 146 279 146 279 131 250.5 c 128,-1,8
 116 222 116 222 116 180 c 0,9,10
 116 114 116 114 160 77 c 128,-1,11
 204 40 204 40 272 40 c 0,12,13
 329 40 329 40 373 58.5 c 128,-1,14
 417 77 417 77 457 112 c 1,15,-1
 492 75 l 1,16,17
 447 33 447 33 393 11 c 128,-1,18
 339 -11 339 -11 271 -11 c 0,19,20
 208 -11 208 -11 158.5 13 c 128,-1,21
 109 37 109 37 81.5 81 c 128,-1,22
 54 125 54 125 54 181 c 0,23,24
 54 264 54 264 102.5 309.5 c 128,-1,25
 151 355 151 355 252 388 c 0,26,27
 315 408 315 408 348.5 427 c 128,-1,28
 382 446 382 446 396.5 470.5 c 128,-1,29
 411 495 411 495 411 533 c 0,30,31
 411 587 411 587 376 616 c 128,-1,32
 341 645 341 645 279 645 c 0,33,34
 229 645 229 645 190 630.5 c 128,-1,35
 151 616 151 616 109 583 c 1,36,-1
 75 620 l 1,37,38
 123 659 123 659 170 677.5 c 128,-1,39
 217 696 217 696 281 696 c 0,40,0
 369 696 369 696 421 651 c 128,-1,1
EndSplineSet
Substitution2: "'c2sc' Capitals to Small Capitals lookup 26 subtable" uni01A8.sc
Substitution2: "'aalt' Access All Alternates lookup 0 subtable" uni01A8.sc
Position2: "'cpsp' Capital Spacing lookup 0 subtable" dx=5 dy=0 dh=10 dv=0
EndChar

StartChar: uni01AE
Encoding: 430 430 268
Width: 495
GlyphClass: 2
Flags: W
AnchorPoint: "Anchor-18" 248 347 basechar 0
AnchorPoint: "Anchor-17" 0 0 basechar 0
AnchorPoint: "Anchor-16" 248 685 basechar 0
AnchorPoint: "Anchor-15" 0 0 basechar 0
AnchorPoint: "Anchor-14" 248 0 basechar 0
LayerCount: 2
Fore
SplineSet
277 632 m 1,0,-1
 277 1 l 1,1,-1
 278 1 l 1,2,-1
 278 -72 l 2,3,4
 278 -116 278 -116 296 -136 c 128,-1,5
 314 -156 314 -156 345 -156 c 0,6,7
 369 -156 369 -156 385.5 -150 c 128,-1,8
 402 -144 402 -144 420 -133 c 1,9,-1
 445 -171 l 1,10,11
 401 -205 401 -205 343 -205 c 0,12,13
 286 -205 286 -205 252 -171 c 128,-1,14
 218 -137 218 -137 218 -71 c 2,15,-1
 218 632 l 1,16,-1
 15 632 l 1,17,-1
 15 685 l 1,18,-1
 485 685 l 1,19,-1
 478 632 l 1,20,-1
 277 632 l 1,0,-1
EndSplineSet
Substitution2: "'c2sc' Capitals to Small Capitals lookup 26 subtable" uni0288.sc
Substitution2: "'aalt' Access All Alternates lookup 0 subtable" uni0288.sc
Position2: "'cpsp' Capital Spacing lookup 0 subtable" dx=5 dy=0 dh=10 dv=0
EndChar

StartChar: U
Encoding: 85 85 269
Width: 652
GlyphClass: 2
Flags: W
AnchorPoint: "Anchor-18" 0 0 basechar 0
AnchorPoint: "Anchor-17" 561 685 basechar 0
AnchorPoint: "Anchor-16" 326 685 basechar 0
AnchorPoint: "Anchor-15" 416 0 basechar 0
AnchorPoint: "Anchor-14" 326 0 basechar 0
LayerCount: 2
Fore
SplineSet
551 214 m 2,0,1
 551 112 551 112 493 50.5 c 128,-1,2
 435 -11 435 -11 326 -11 c 0,3,4
 216 -11 216 -11 158.5 50 c 128,-1,5
 101 111 101 111 101 214 c 2,6,-1
 101 685 l 1,7,-1
 161 685 l 1,8,-1
 161 219 l 2,9,10
 161 133 161 133 201.5 87 c 128,-1,11
 242 41 242 41 326 41 c 256,12,13
 410 41 410 41 450 87.5 c 128,-1,14
 490 134 490 134 490 219 c 2,15,-1
 490 685 l 1,16,-1
 551 685 l 1,17,-1
 551 214 l 2,0,1
EndSplineSet
Substitution2: "'c2sc' Capitals to Small Capitals lookup 26 subtable" u.sc
Substitution2: "'aalt' Access All Alternates lookup 0 subtable" u.sc
Position2: "'cpsp' Capital Spacing lookup 0 subtable" dx=5 dy=0 dh=10 dv=0
EndChar

StartChar: uni0244
Encoding: 580 580 271
Width: 675
GlyphClass: 2
Flags: W
AnchorPoint: "Anchor-18" 0 0 basechar 0
AnchorPoint: "Anchor-17" 573 685 basechar 0
AnchorPoint: "Anchor-16" 338 685 basechar 0
AnchorPoint: "Anchor-15" 428 0 basechar 0
AnchorPoint: "Anchor-14" 338 0 basechar 0
LayerCount: 2
Fore
SplineSet
628 513 m 1,0,-1
 563 513 l 1,1,-1
 563 214 l 2,2,3
 563 112 563 112 505 50.5 c 128,-1,4
 447 -11 447 -11 338 -11 c 0,5,6
 228 -11 228 -11 170.5 50 c 128,-1,7
 113 111 113 111 113 214 c 2,8,-1
 113 513 l 1,9,-1
 47 513 l 1,10,-1
 47 558 l 1,11,-1
 113 558 l 1,12,-1
 113 685 l 1,13,-1
 173 685 l 1,14,-1
 173 558 l 1,15,-1
 502 558 l 1,16,-1
 502 685 l 1,17,-1
 563 685 l 1,18,-1
 563 558 l 1,19,-1
 628 558 l 1,20,-1
 628 513 l 1,0,-1
502 513 m 1,21,-1
 173 513 l 1,22,-1
 173 219 l 2,23,24
 173 133 173 133 213.5 87 c 128,-1,25
 254 41 254 41 338 41 c 256,26,27
 422 41 422 41 462 87.5 c 128,-1,28
 502 134 502 134 502 219 c 2,29,-1
 502 513 l 1,21,-1
EndSplineSet
Substitution2: "'c2sc' Capitals to Small Capitals lookup 26 subtable" uni0289.sc
Substitution2: "'aalt' Access All Alternates lookup 0 subtable" uni0289.sc
Position2: "'cpsp' Capital Spacing lookup 0 subtable" dx=5 dy=0 dh=10 dv=0
EndChar

StartChar: Uhorn
Encoding: 431 431 284
Width: 652
GlyphClass: 2
Flags: W
AnchorPoint: "Anchor-18" 0 0 basechar 0
AnchorPoint: "Anchor-17" 613 685 basechar 0
AnchorPoint: "Anchor-16" 326 685 basechar 0
AnchorPoint: "Anchor-15" 416 0 basechar 0
AnchorPoint: "Anchor-14" 326 0 basechar 0
LayerCount: 2
Fore
SplineSet
551 593 m 1,1,-1
 551 214 l 2,2,3
 551 112 551 112 493 50.5 c 128,-1,4
 435 -11 435 -11 326 -11 c 0,5,6
 216 -11 216 -11 158.5 50 c 128,-1,7
 101 111 101 111 101 214 c 2,8,-1
 101 685 l 1,9,-1
 161 685 l 1,10,-1
 161 219 l 2,11,12
 161 133 161 133 201.5 87 c 128,-1,13
 242 41 242 41 326 41 c 256,14,15
 410 41 410 41 450 87.5 c 128,-1,16
 490 134 490 134 490 219 c 2,17,-1
 490 685 l 1,18,-1
 551 685 l 1,19,-1
 551 629 l 1,20,21
 578 634 578 634 590.5 648 c 128,-1,22
 603 662 603 662 603 686 c 0,23,24
 603 723 603 723 589 758 c 1,25,-1
 635 770 l 1,26,27
 653 736 653 736 653 688 c 0,28,0
 653 599 653 599 551 593 c 1,1,-1
EndSplineSet
Substitution2: "'c2sc' Capitals to Small Capitals lookup 26 subtable" uhorn.sc
Substitution2: "'aalt' Access All Alternates lookup 0 subtable" uhorn.sc
Position2: "'cpsp' Capital Spacing lookup 0 subtable" dx=5 dy=0 dh=10 dv=0
EndChar

StartChar: uni1EE8
Encoding: 7912 7912 285
Width: 652
GlyphClass: 2
Flags: W
AnchorPoint: "Anchor-18" 0 0 basechar 0
AnchorPoint: "Anchor-17" 613 685 basechar 0
AnchorPoint: "Anchor-16" 328 888 basechar 0
AnchorPoint: "Anchor-15" 416 0 basechar 0
AnchorPoint: "Anchor-14" 326 0 basechar 0
LayerCount: 2
Fore
SplineSet
433 836 m 1,0,-1
 235 758 l 1,1,-1
 219 792 l 1,2,-1
 407 888 l 1,3,-1
 433 836 l 1,0,-1
551 593 m 1,5,-1
 551 214 l 2,6,7
 551 112 551 112 493 50.5 c 128,-1,8
 435 -11 435 -11 326 -11 c 0,9,10
 216 -11 216 -11 158.5 50 c 128,-1,11
 101 111 101 111 101 214 c 2,12,-1
 101 685 l 1,13,-1
 161 685 l 1,14,-1
 161 219 l 2,15,16
 161 133 161 133 201.5 87 c 128,-1,17
 242 41 242 41 326 41 c 256,18,19
 410 41 410 41 450 87.5 c 128,-1,20
 490 134 490 134 490 219 c 2,21,-1
 490 685 l 1,22,-1
 551 685 l 1,23,-1
 551 629 l 1,24,25
 578 634 578 634 590.5 648 c 128,-1,26
 603 662 603 662 603 686 c 0,27,28
 603 723 603 723 589 758 c 1,29,-1
 635 770 l 1,30,31
 653 736 653 736 653 688 c 0,32,4
 653 599 653 599 551 593 c 1,5,-1
EndSplineSet
Substitution2: "'c2sc' Capitals to Small Capitals lookup 26 subtable" uni1EE9.sc
Substitution2: "'aalt' Access All Alternates lookup 0 subtable" uni1EE9.sc
Position2: "'cpsp' Capital Spacing lookup 0 subtable" dx=5 dy=0 dh=10 dv=0
EndChar

StartChar: uni1EF0
Encoding: 7920 7920 286
Width: 652
GlyphClass: 2
Flags: W
AnchorPoint: "Anchor-18" 0 0 basechar 0
AnchorPoint: "Anchor-17" 613 685 basechar 0
AnchorPoint: "Anchor-16" 326 685 basechar 0
AnchorPoint: "Anchor-15" 416 0 basechar 0
AnchorPoint: "Anchor-14" 327 -197 basechar 0
LayerCount: 2
Fore
SplineSet
551 593 m 1,1,-1
 551 214 l 2,2,3
 551 112 551 112 493 50.5 c 128,-1,4
 435 -11 435 -11 326 -11 c 0,5,6
 216 -11 216 -11 158.5 50 c 128,-1,7
 101 111 101 111 101 214 c 2,8,-1
 101 685 l 1,9,-1
 161 685 l 1,10,-1
 161 219 l 2,11,12
 161 133 161 133 201.5 87 c 128,-1,13
 242 41 242 41 326 41 c 256,14,15
 410 41 410 41 450 87.5 c 128,-1,16
 490 134 490 134 490 219 c 2,17,-1
 490 685 l 1,18,-1
 551 685 l 1,19,-1
 551 629 l 1,20,21
 578 634 578 634 590.5 648 c 128,-1,22
 603 662 603 662 603 686 c 0,23,24
 603 723 603 723 589 758 c 1,25,-1
 635 770 l 1,26,27
 653 736 653 736 653 688 c 0,28,0
 653 599 653 599 551 593 c 1,1,-1
357 -98 m 128,-1,30
 369 -110 369 -110 369 -128 c 256,31,32
 369 -146 369 -146 357 -158 c 128,-1,33
 345 -170 345 -170 326 -170 c 0,34,35
 306 -170 306 -170 294 -158 c 128,-1,36
 282 -146 282 -146 282 -128 c 256,37,38
 282 -110 282 -110 294 -98 c 128,-1,39
 306 -86 306 -86 326 -86 c 0,40,29
 345 -86 345 -86 357 -98 c 128,-1,30
EndSplineSet
Substitution2: "'c2sc' Capitals to Small Capitals lookup 26 subtable" uni1EF1.sc
Substitution2: "'aalt' Access All Alternates lookup 0 subtable" uni1EF1.sc
Position2: "'cpsp' Capital Spacing lookup 0 subtable" dx=5 dy=0 dh=10 dv=0
EndChar

StartChar: uni1EEA
Encoding: 7914 7914 287
Width: 652
GlyphClass: 2
Flags: W
AnchorPoint: "Anchor-18" 0 0 basechar 0
AnchorPoint: "Anchor-17" 613 685 basechar 0
AnchorPoint: "Anchor-16" 327 888 basechar 0
AnchorPoint: "Anchor-15" 416 0 basechar 0
AnchorPoint: "Anchor-14" 326 0 basechar 0
LayerCount: 2
Fore
SplineSet
428 792 m 1,0,-1
 412 758 l 1,1,-1
 214 836 l 1,2,-1
 240 888 l 1,3,-1
 428 792 l 1,0,-1
551 593 m 1,5,-1
 551 214 l 2,6,7
 551 112 551 112 493 50.5 c 128,-1,8
 435 -11 435 -11 326 -11 c 0,9,10
 216 -11 216 -11 158.5 50 c 128,-1,11
 101 111 101 111 101 214 c 2,12,-1
 101 685 l 1,13,-1
 161 685 l 1,14,-1
 161 219 l 2,15,16
 161 133 161 133 201.5 87 c 128,-1,17
 242 41 242 41 326 41 c 256,18,19
 410 41 410 41 450 87.5 c 128,-1,20
 490 134 490 134 490 219 c 2,21,-1
 490 685 l 1,22,-1
 551 685 l 1,23,-1
 551 629 l 1,24,25
 578 634 578 634 590.5 648 c 128,-1,26
 603 662 603 662 603 686 c 0,27,28
 603 723 603 723 589 758 c 1,29,-1
 635 770 l 1,30,31
 653 736 653 736 653 688 c 0,32,4
 653 599 653 599 551 593 c 1,5,-1
EndSplineSet
Substitution2: "'c2sc' Capitals to Small Capitals lookup 26 subtable" uni1EEB.sc
Substitution2: "'aalt' Access All Alternates lookup 0 subtable" uni1EEB.sc
Position2: "'cpsp' Capital Spacing lookup 0 subtable" dx=5 dy=0 dh=10 dv=0
EndChar

StartChar: uni1EEC
Encoding: 7916 7916 288
Width: 652
GlyphClass: 2
Flags: W
AnchorPoint: "Anchor-18" 0 0 basechar 0
AnchorPoint: "Anchor-17" 613 685 basechar 0
AnchorPoint: "Anchor-16" 340 977 basechar 0
AnchorPoint: "Anchor-15" 416 0 basechar 0
AnchorPoint: "Anchor-14" 326 0 basechar 0
LayerCount: 2
Fore
SplineSet
267 921 m 1,1,-1
 251 956 l 1,2,3
 287 977 287 977 332 977 c 0,4,5
 375 977 375 977 400 955 c 128,-1,6
 425 933 425 933 425 897 c 0,7,8
 425 831 425 831 350 820 c 1,9,-1
 350 774 l 1,10,-1
 302 774 l 1,11,-1
 302 847 l 1,12,13
 337 849 337 849 354.5 859.5 c 128,-1,14
 372 870 372 870 372 894 c 0,15,16
 372 913 372 913 359.5 923.5 c 128,-1,17
 347 934 347 934 325 934 c 0,18,0
 296 934 296 934 267 921 c 1,1,-1
551 593 m 1,20,-1
 551 214 l 2,21,22
 551 112 551 112 493 50.5 c 128,-1,23
 435 -11 435 -11 326 -11 c 0,24,25
 216 -11 216 -11 158.5 50 c 128,-1,26
 101 111 101 111 101 214 c 2,27,-1
 101 685 l 1,28,-1
 161 685 l 1,29,-1
 161 219 l 2,30,31
 161 133 161 133 201.5 87 c 128,-1,32
 242 41 242 41 326 41 c 256,33,34
 410 41 410 41 450 87.5 c 128,-1,35
 490 134 490 134 490 219 c 2,36,-1
 490 685 l 1,37,-1
 551 685 l 1,38,-1
 551 629 l 1,39,40
 578 634 578 634 590.5 648 c 128,-1,41
 603 662 603 662 603 686 c 0,42,43
 603 723 603 723 589 758 c 1,44,-1
 635 770 l 1,45,46
 653 736 653 736 653 688 c 0,47,19
 653 599 653 599 551 593 c 1,20,-1
EndSplineSet
Substitution2: "'c2sc' Capitals to Small Capitals lookup 26 subtable" uni1EED.sc
Substitution2: "'aalt' Access All Alternates lookup 0 subtable" uni1EED.sc
Position2: "'cpsp' Capital Spacing lookup 0 subtable" dx=5 dy=0 dh=10 dv=0
EndChar

StartChar: uni1EEE
Encoding: 7918 7918 289
Width: 652
GlyphClass: 2
Flags: W
AnchorPoint: "Anchor-18" 0 0 basechar 0
AnchorPoint: "Anchor-17" 613 685 basechar 0
AnchorPoint: "Anchor-16" 328 884 basechar 0
AnchorPoint: "Anchor-15" 416 0 basechar 0
AnchorPoint: "Anchor-14" 326 0 basechar 0
LayerCount: 2
Fore
SplineSet
237.5 828.5 m 128,-1,1
 225 819 225 819 211 798 c 1,2,-1
 175 816 l 1,3,4
 212 884 212 884 267 884 c 0,5,6
 284 884 284 884 298.5 878 c 128,-1,7
 313 872 313 872 331 860 c 0,8,9
 349 849 349 849 360 844 c 128,-1,10
 371 839 371 839 384 839 c 0,11,12
 400 839 400 839 412.5 849 c 128,-1,13
 425 859 425 859 440 882 c 1,14,-1
 476 864 l 1,15,16
 441 792 441 792 384 792 c 0,17,18
 366 792 366 792 351 798.5 c 128,-1,19
 336 805 336 805 314 818 c 0,20,21
 298 828 298 828 287.5 833 c 128,-1,22
 277 838 277 838 267 838 c 0,23,0
 250 838 250 838 237.5 828.5 c 128,-1,1
551 593 m 1,25,-1
 551 214 l 2,26,27
 551 112 551 112 493 50.5 c 128,-1,28
 435 -11 435 -11 326 -11 c 0,29,30
 216 -11 216 -11 158.5 50 c 128,-1,31
 101 111 101 111 101 214 c 2,32,-1
 101 685 l 1,33,-1
 161 685 l 1,34,-1
 161 219 l 2,35,36
 161 133 161 133 201.5 87 c 128,-1,37
 242 41 242 41 326 41 c 256,38,39
 410 41 410 41 450 87.5 c 128,-1,40
 490 134 490 134 490 219 c 2,41,-1
 490 685 l 1,42,-1
 551 685 l 1,43,-1
 551 629 l 1,44,45
 578 634 578 634 590.5 648 c 128,-1,46
 603 662 603 662 603 686 c 0,47,48
 603 723 603 723 589 758 c 1,49,-1
 635 770 l 1,50,51
 653 736 653 736 653 688 c 0,52,24
 653 599 653 599 551 593 c 1,25,-1
EndSplineSet
Substitution2: "'c2sc' Capitals to Small Capitals lookup 26 subtable" uni1EEF.sc
Substitution2: "'aalt' Access All Alternates lookup 0 subtable" uni1EEF.sc
Position2: "'cpsp' Capital Spacing lookup 0 subtable" dx=5 dy=0 dh=10 dv=0
EndChar

StartChar: Uogonek
Encoding: 370 370 293
Width: 652
GlyphClass: 2
Flags: W
AnchorPoint: "Anchor-18" 0 0 basechar 0
AnchorPoint: "Anchor-17" 561 685 basechar 0
AnchorPoint: "Anchor-16" 326 685 basechar 0
AnchorPoint: "Anchor-15" 416 0 basechar 0
AnchorPoint: "Anchor-14" 326 0 basechar 0
LayerCount: 2
Fore
SplineSet
551 685 m 1,0,-1
 551 214 l 2,1,2
 551 132 551 132 513.5 75 c 128,-1,3
 476 18 476 18 403 -1 c 1,4,5
 338 -31 338 -31 311 -57.5 c 128,-1,6
 284 -84 284 -84 284 -118 c 0,7,8
 284 -142 284 -142 300 -156 c 128,-1,9
 316 -170 316 -170 348 -170 c 0,10,11
 373 -170 373 -170 405 -163 c 1,12,-1
 399 -211 l 1,13,14
 364 -218 364 -218 341 -218 c 0,15,16
 288 -218 288 -218 259 -192.5 c 128,-1,17
 230 -167 230 -167 230 -126 c 0,18,19
 230 -54 230 -54 323 -11 c 1,20,21
 214 -10 214 -10 157.5 51 c 128,-1,22
 101 112 101 112 101 214 c 2,23,-1
 101 685 l 1,24,-1
 161 685 l 1,25,-1
 161 219 l 2,26,27
 161 133 161 133 201.5 87 c 128,-1,28
 242 41 242 41 326 41 c 256,29,30
 410 41 410 41 450 87.5 c 128,-1,31
 490 134 490 134 490 219 c 2,32,-1
 490 685 l 1,33,-1
 551 685 l 1,0,-1
EndSplineSet
Substitution2: "'c2sc' Capitals to Small Capitals lookup 26 subtable" uogonek.sc
Substitution2: "'aalt' Access All Alternates lookup 0 subtable" uogonek.sc
Position2: "'cpsp' Capital Spacing lookup 0 subtable" dx=5 dy=0 dh=10 dv=0
EndChar

StartChar: uni01B1
Encoding: 433 433 294
Width: 691
GlyphClass: 2
Flags: W
AnchorPoint: "Anchor-18" 0 0 basechar 0
AnchorPoint: "Anchor-17" 0 0 basechar 0
AnchorPoint: "Anchor-16" 345 685 basechar 0
AnchorPoint: "Anchor-15" 0 0 basechar 0
AnchorPoint: "Anchor-14" 345 0 basechar 0
LayerCount: 2
Fore
SplineSet
198 29 m 128,-1,1
 135 69 135 69 100.5 143.5 c 128,-1,2
 66 218 66 218 66 319 c 0,3,4
 66 436 66 436 103.5 509.5 c 128,-1,5
 141 583 141 583 203 634 c 1,6,-1
 88 634 l 1,7,-1
 88 685 l 1,8,-1
 272 685 l 1,9,-1
 272 635 l 1,10,11
 204 587 204 587 166.5 512 c 128,-1,12
 129 437 129 437 129 319 c 0,13,14
 129 184 129 184 187 112 c 128,-1,15
 245 40 245 40 345 40 c 256,16,17
 445 40 445 40 503.5 112.5 c 128,-1,18
 562 185 562 185 562 319 c 0,19,20
 562 436 562 436 524 511 c 128,-1,21
 486 586 486 586 419 635 c 1,22,-1
 419 685 l 1,23,-1
 603 685 l 1,24,-1
 603 634 l 1,25,-1
 489 634 l 1,26,27
 552 587 552 587 588.5 513.5 c 128,-1,28
 625 440 625 440 625 319 c 0,29,30
 625 219 625 219 590 144.5 c 128,-1,31
 555 70 555 70 491.5 29.5 c 128,-1,32
 428 -11 428 -11 345 -11 c 0,33,0
 261 -11 261 -11 198 29 c 128,-1,1
EndSplineSet
Substitution2: "'c2sc' Capitals to Small Capitals lookup 26 subtable" uni01B1.sc
Substitution2: "'aalt' Access All Alternates lookup 0 subtable" uni01B1.sc
Position2: "'cpsp' Capital Spacing lookup 0 subtable" dx=5 dy=0 dh=10 dv=0
EndChar

StartChar: V
Encoding: 86 86 298
Width: 546
GlyphClass: 2
Flags: W
AnchorPoint: "Anchor-18" 0 0 basechar 0
AnchorPoint: "Anchor-17" 0 0 basechar 0
AnchorPoint: "Anchor-16" 273 685 basechar 0
AnchorPoint: "Anchor-15" 0 0 basechar 0
AnchorPoint: "Anchor-14" 273 0 basechar 0
LayerCount: 2
Fore
SplineSet
530 685 m 1,0,-1
 307 0 l 1,1,-1
 240 0 l 1,2,-1
 16 685 l 1,3,-1
 81 685 l 1,4,-1
 274 62 l 1,5,-1
 468 685 l 1,6,-1
 530 685 l 1,0,-1
EndSplineSet
Substitution2: "'c2sc' Capitals to Small Capitals lookup 26 subtable" v.sc
Substitution2: "'aalt' Access All Alternates lookup 0 subtable" v.sc
Position2: "'cpsp' Capital Spacing lookup 0 subtable" dx=5 dy=0 dh=10 dv=0
EndChar

StartChar: uni01B2
Encoding: 434 434 299
Width: 652
GlyphClass: 2
Flags: W
AnchorPoint: "Anchor-18" 0 0 basechar 0
AnchorPoint: "Anchor-17" 0 0 basechar 0
AnchorPoint: "Anchor-16" 315 685 basechar 0
AnchorPoint: "Anchor-15" 0 0 basechar 0
AnchorPoint: "Anchor-14" 315 0 basechar 0
LayerCount: 2
Fore
SplineSet
525.5 669 m 128,-1,1
 551 642 551 642 551 588 c 2,2,-1
 551 294 l 2,3,4
 551 199 551 199 519.5 130 c 128,-1,5
 488 61 488 61 432 25 c 128,-1,6
 376 -11 376 -11 303 -11 c 0,7,8
 210 -11 210 -11 155.5 45 c 128,-1,9
 101 101 101 101 101 193 c 2,10,-1
 101 685 l 1,11,-1
 161 685 l 1,12,-1
 161 197 l 2,13,14
 161 123 161 123 198.5 82 c 128,-1,15
 236 41 236 41 303 41 c 0,16,17
 389 41 389 41 439.5 107.5 c 128,-1,18
 490 174 490 174 490 299 c 2,19,-1
 490 587 l 2,20,21
 490 618 490 618 479.5 632 c 128,-1,22
 469 646 469 646 445 646 c 0,23,24
 422 646 422 646 404 637 c 1,25,-1
 387 679 l 1,26,27
 416 696 416 696 452 696 c 0,28,0
 500 696 500 696 525.5 669 c 128,-1,1
EndSplineSet
Substitution2: "'c2sc' Capitals to Small Capitals lookup 26 subtable" uni028B.sc
Substitution2: "'aalt' Access All Alternates lookup 0 subtable" uni028B.sc
Position2: "'cpsp' Capital Spacing lookup 0 subtable" dx=5 dy=0 dh=10 dv=0
EndChar

StartChar: W
Encoding: 87 87 301
Width: 810
GlyphClass: 2
Flags: W
AnchorPoint: "Anchor-18" 0 0 basechar 0
AnchorPoint: "Anchor-17" 0 0 basechar 0
AnchorPoint: "Anchor-16" 405 685 basechar 0
AnchorPoint: "Anchor-15" 0 0 basechar 0
AnchorPoint: "Anchor-14" 405 0 basechar 0
LayerCount: 2
Fore
SplineSet
779 685 m 1,0,-1
 629 0 l 1,1,-1
 554 0 l 1,2,-1
 404 618 l 1,3,-1
 254 0 l 1,4,-1
 181 0 l 1,5,-1
 30 685 l 1,6,-1
 91 685 l 1,7,-1
 221 56 l 1,8,-1
 371 685 l 1,9,-1
 438 685 l 1,10,-1
 591 56 l 1,11,-1
 722 685 l 1,12,-1
 779 685 l 1,0,-1
EndSplineSet
Substitution2: "'c2sc' Capitals to Small Capitals lookup 26 subtable" w.sc
Substitution2: "'aalt' Access All Alternates lookup 0 subtable" w.sc
Position2: "'cpsp' Capital Spacing lookup 0 subtable" dx=5 dy=0 dh=10 dv=0
EndChar

StartChar: uni2C72
Encoding: 11378 11378 306
Width: 848
GlyphClass: 2
Flags: W
AnchorPoint: "Anchor-18" 0 0 basechar 0
AnchorPoint: "Anchor-17" 0 0 basechar 0
AnchorPoint: "Anchor-16" 405 685 basechar 0
AnchorPoint: "Anchor-15" 0 0 basechar 0
AnchorPoint: "Anchor-14" 404 0 basechar 0
LayerCount: 2
Fore
SplineSet
181 0 m 1,0,-1
 254 0 l 1,1,-1
 404 618 l 1,2,-1
 554 0 l 1,3,-1
 629 0 l 1,4,-1
 750 582 l 2,5,6
 758 620 758 620 773.5 634.5 c 128,-1,7
 789 649 789 649 817 649 c 0,8,9
 836 649 836 649 850 642.5 c 128,-1,10
 864 636 864 636 881 623 c 1,11,-1
 906 658 l 1,12,13
 884 676 884 676 862.5 686 c 128,-1,14
 841 696 841 696 813 696 c 0,15,16
 769 696 769 696 739 671 c 128,-1,17
 709 646 709 646 699 592 c 2,18,-1
 591 55 l 1,19,-1
 438 685 l 1,20,-1
 371 685 l 1,21,-1
 221 55 l 1,22,-1
 91 685 l 1,23,-1
 30 685 l 1,24,-1
 181 0 l 1,0,-1
EndSplineSet
Substitution2: "'c2sc' Capitals to Small Capitals lookup 26 subtable" uni2C73.sc
Substitution2: "'aalt' Access All Alternates lookup 0 subtable" uni2C73.sc
Position2: "'cpsp' Capital Spacing lookup 0 subtable" dx=5 dy=0 dh=10 dv=0
EndChar

StartChar: uni01F7
Encoding: 503 503 307
Width: 570
GlyphClass: 2
Flags: W
AnchorPoint: "Anchor-18" 0 0 basechar 0
AnchorPoint: "Anchor-17" 0 0 basechar 0
AnchorPoint: "Anchor-16" 285 685 basechar 0
AnchorPoint: "Anchor-15" 0 0 basechar 0
AnchorPoint: "Anchor-14" 285 0 basechar 0
LayerCount: 2
Fore
SplineSet
473.5 647.5 m 128,-1,1
 525 599 525 599 525 514 c 0,2,3
 525 412 525 412 458.5 352.5 c 128,-1,4
 392 293 392 293 269 248 c 2,5,-1
 171 212 l 1,6,-1
 171 0 l 1,7,-1
 111 0 l 1,8,-1
 111 685 l 1,9,-1
 171 685 l 1,10,-1
 171 629 l 1,11,12
 243 696 243 696 341 696 c 0,13,0
 422 696 422 696 473.5 647.5 c 128,-1,1
411 382.5 m 128,-1,15
 462 432 462 432 462 514 c 0,16,17
 462 577 462 577 427.5 611 c 128,-1,18
 393 645 393 645 333 645 c 0,19,20
 240 645 240 645 171 579 c 1,21,-1
 171 263 l 1,22,-1
 269 299 l 2,23,14
 360 333 360 333 411 382.5 c 128,-1,15
EndSplineSet
Substitution2: "'c2sc' Capitals to Small Capitals lookup 26 subtable" uni01BF.sc
Substitution2: "'aalt' Access All Alternates lookup 0 subtable" uni01BF.sc
Position2: "'cpsp' Capital Spacing lookup 0 subtable" dx=5 dy=0 dh=10 dv=0
EndChar

StartChar: X
Encoding: 88 88 308
Width: 514
GlyphClass: 2
Flags: W
AnchorPoint: "Anchor-18" 0 0 basechar 0
AnchorPoint: "Anchor-17" 0 0 basechar 0
AnchorPoint: "Anchor-16" 256 685 basechar 0
AnchorPoint: "Anchor-15" 0 0 basechar 0
AnchorPoint: "Anchor-14" 256 0 basechar 0
LayerCount: 2
Fore
SplineSet
290 371 m 1,0,-1
 504 0 l 1,1,-1
 436 0 l 1,2,-1
 254 329 l 1,3,-1
 75 0 l 1,4,-1
 10 0 l 1,5,-1
 219 368 l 1,6,-1
 31 685 l 1,7,-1
 99 685 l 1,8,-1
 255 408 l 1,9,-1
 411 685 l 1,10,-1
 476 685 l 1,11,-1
 290 371 l 1,0,-1
EndSplineSet
Substitution2: "'c2sc' Capitals to Small Capitals lookup 26 subtable" x.sc
Substitution2: "'aalt' Access All Alternates lookup 0 subtable" x.sc
Position2: "'cpsp' Capital Spacing lookup 0 subtable" dx=5 dy=0 dh=10 dv=0
EndChar

StartChar: Y
Encoding: 89 89 309
Width: 523
GlyphClass: 2
Flags: W
AnchorPoint: "Anchor-18" 0 0 basechar 0
AnchorPoint: "Anchor-17" 0 0 basechar 0
AnchorPoint: "Anchor-16" 261 685 basechar 0
AnchorPoint: "Anchor-15" 0 0 basechar 0
AnchorPoint: "Anchor-14" 262 0 basechar 0
LayerCount: 2
Fore
SplineSet
509 685 m 1,0,-1
 292 268 l 1,1,-1
 292 0 l 1,2,-1
 232 0 l 1,3,-1
 232 267 l 1,4,-1
 13 685 l 1,5,-1
 80 685 l 1,6,-1
 264 321 l 1,7,-1
 445 685 l 1,8,-1
 509 685 l 1,0,-1
EndSplineSet
Substitution2: "'c2sc' Capitals to Small Capitals lookup 26 subtable" y.sc
Substitution2: "'aalt' Access All Alternates lookup 0 subtable" y.sc
Position2: "'cpsp' Capital Spacing lookup 0 subtable" dx=5 dy=0 dh=10 dv=0
EndChar

StartChar: uni01B3
Encoding: 435 435 315
Width: 548
GlyphClass: 2
Flags: W
AnchorPoint: "Anchor-18" 0 0 basechar 0
AnchorPoint: "Anchor-17" 0 0 basechar 0
AnchorPoint: "Anchor-16" 270 685 basechar 0
AnchorPoint: "Anchor-15" 0 0 basechar 0
AnchorPoint: "Anchor-14" 262 0 basechar 0
LayerCount: 2
Fore
SplineSet
232 267 m 1,0,-1
 13 685 l 1,1,-1
 80 685 l 1,2,-1
 264 320 l 1,3,-1
 393 602 l 2,4,5
 416 652 416 652 443.5 674 c 128,-1,6
 471 696 471 696 513 696 c 0,7,8
 541 696 541 696 562.5 686 c 128,-1,9
 584 676 584 676 606 658 c 1,10,-1
 581 623 l 1,11,12
 565 636 565 636 550 642.5 c 128,-1,13
 535 649 535 649 516 649 c 0,14,15
 492 649 492 649 476.5 635.5 c 128,-1,16
 461 622 461 622 442 583 c 2,17,-1
 292 268 l 1,18,-1
 292 0 l 1,19,-1
 232 0 l 1,20,-1
 232 267 l 1,0,-1
EndSplineSet
Substitution2: "'c2sc' Capitals to Small Capitals lookup 26 subtable" uni01B4.sc
Substitution2: "'aalt' Access All Alternates lookup 0 subtable" uni01B4.sc
Position2: "'cpsp' Capital Spacing lookup 0 subtable" dx=5 dy=0 dh=10 dv=0
EndChar

StartChar: uni01A6
Encoding: 422 422 318
Width: 590
GlyphClass: 2
Flags: W
AnchorPoint: "Anchor-18" 0 0 basechar 0
AnchorPoint: "Anchor-17" 0 0 basechar 0
AnchorPoint: "Anchor-16" 295 685 basechar 0
AnchorPoint: "Anchor-15" 0 0 basechar 0
AnchorPoint: "Anchor-14" 295 -197 basechar 0
LayerCount: 2
Fore
SplineSet
309 181 m 1,0,-1
 171 181 l 1,1,-1
 171 0 l 1,2,-1
 111 0 l 1,3,-1
 111 685 l 1,4,-1
 171 685 l 1,5,-1
 171 559 l 1,6,-1
 277 559 l 2,7,8
 521 559 521 559 521 373 c 0,9,10
 521 299 521 299 482 255 c 128,-1,11
 443 211 443 211 368 192 c 1,12,-1
 556 -126 l 1,13,-1
 485 -126 l 1,14,-1
 309 181 l 1,0,-1
285 230 m 2,15,16
 457 230 457 230 457 373 c 0,17,18
 457 443 457 443 414.5 476 c 128,-1,19
 372 509 372 509 275 509 c 2,20,-1
 171 509 l 1,21,-1
 171 230 l 1,22,-1
 285 230 l 2,15,16
EndSplineSet
Substitution2: "'c2sc' Capitals to Small Capitals lookup 26 subtable" uni0280.sc
Substitution2: "'aalt' Access All Alternates lookup 0 subtable" uni0280.sc
Position2: "'cpsp' Capital Spacing lookup 0 subtable" dx=5 dy=0 dh=10 dv=0
EndChar

StartChar: uni024E
Encoding: 590 590 319
Width: 523
GlyphClass: 2
Flags: W
AnchorPoint: "Anchor-18" 0 0 basechar 0
AnchorPoint: "Anchor-17" 0 0 basechar 0
AnchorPoint: "Anchor-16" 261 685 basechar 0
AnchorPoint: "Anchor-15" 0 0 basechar 0
AnchorPoint: "Anchor-14" 261 0 basechar 0
LayerCount: 2
Fore
SplineSet
509 685 m 1,0,-1
 462 595 l 1,1,-1
 509 595 l 1,2,-1
 509 550 l 1,3,-1
 439 550 l 1,4,-1
 292 268 l 1,5,-1
 292 0 l 1,6,-1
 232 0 l 1,7,-1
 232 267 l 1,8,-1
 84 550 l 1,9,-1
 15 550 l 1,10,-1
 15 595 l 1,11,-1
 60 595 l 1,12,-1
 13 685 l 1,13,-1
 80 685 l 1,14,-1
 125 595 l 1,15,-1
 400 595 l 1,16,-1
 445 685 l 1,17,-1
 509 685 l 1,0,-1
264 320 m 1,18,-1
 378 550 l 1,19,-1
 148 550 l 1,20,-1
 264 320 l 1,18,-1
EndSplineSet
Substitution2: "'c2sc' Capitals to Small Capitals lookup 26 subtable" uni024F.sc
Substitution2: "'aalt' Access All Alternates lookup 0 subtable" uni024F.sc
Position2: "'cpsp' Capital Spacing lookup 0 subtable" dx=5 dy=0 dh=10 dv=0
EndChar

StartChar: Z
Encoding: 90 90 321
Width: 516
GlyphClass: 2
Flags: W
AnchorPoint: "Anchor-18" 0 0 basechar 0
AnchorPoint: "Anchor-17" 0 0 basechar 0
AnchorPoint: "Anchor-16" 263 685 basechar 0
AnchorPoint: "Anchor-15" 0 0 basechar 0
AnchorPoint: "Anchor-14" 258 0 basechar 0
LayerCount: 2
Fore
SplineSet
468 685 m 1,0,-1
 468 636 l 1,1,-1
 104 53 l 1,2,-1
 462 53 l 1,3,-1
 454 0 l 1,4,-1
 35 0 l 1,5,-1
 35 50 l 1,6,-1
 402 633 l 1,7,-1
 73 633 l 1,8,-1
 73 685 l 1,9,-1
 468 685 l 1,0,-1
EndSplineSet
Substitution2: "'c2sc' Capitals to Small Capitals lookup 26 subtable" z.sc
Substitution2: "'aalt' Access All Alternates lookup 0 subtable" z.sc
Position2: "'cpsp' Capital Spacing lookup 0 subtable" dx=5 dy=0 dh=10 dv=0
EndChar

StartChar: uni0224
Encoding: 548 548 327
Width: 516
GlyphClass: 2
Flags: W
AnchorPoint: "Anchor-18" 0 0 basechar 0
AnchorPoint: "Anchor-17" 0 0 basechar 0
AnchorPoint: "Anchor-16" 258 685 basechar 0
AnchorPoint: "Anchor-15" 0 0 basechar 0
AnchorPoint: "Anchor-14" 258 -197 basechar 0
LayerCount: 2
Fore
SplineSet
468 636 m 1,0,-1
 104 53 l 1,1,-1
 458 53 l 1,2,-1
 458 -71 l 2,3,4
 458 -137 458 -137 424 -171 c 128,-1,5
 390 -205 390 -205 333 -205 c 0,6,7
 275 -205 275 -205 231 -171 c 1,8,-1
 255 -132 l 1,9,10
 273 -144 273 -144 290 -150 c 128,-1,11
 307 -156 307 -156 331 -156 c 0,12,13
 399 -156 399 -156 399 -72 c 2,14,-1
 399 0 l 1,15,-1
 35 0 l 1,16,-1
 35 50 l 1,17,-1
 402 633 l 1,18,-1
 73 633 l 1,19,-1
 73 685 l 1,20,-1
 468 685 l 1,21,-1
 468 636 l 1,0,-1
EndSplineSet
Substitution2: "'c2sc' Capitals to Small Capitals lookup 26 subtable" uni0225.sc
Substitution2: "'aalt' Access All Alternates lookup 0 subtable" uni0225.sc
Position2: "'cpsp' Capital Spacing lookup 0 subtable" dx=5 dy=0 dh=10 dv=0
EndChar

StartChar: uni01B5
Encoding: 437 437 328
Width: 516
GlyphClass: 2
Flags: W
AnchorPoint: "Anchor-18" 0 0 basechar 0
AnchorPoint: "Anchor-17" 0 0 basechar 0
AnchorPoint: "Anchor-16" 258 685 basechar 0
AnchorPoint: "Anchor-15" 0 0 basechar 0
AnchorPoint: "Anchor-14" 258 0 basechar 0
LayerCount: 2
Fore
SplineSet
468 685 m 1,0,-1
 468 636 l 1,1,-1
 300 369 l 1,2,-1
 410 369 l 1,3,-1
 410 320 l 1,4,-1
 270 320 l 1,5,-1
 102 53 l 1,6,-1
 462 53 l 1,7,-1
 454 0 l 1,8,-1
 35 0 l 1,9,-1
 35 50 l 1,10,-1
 206 320 l 1,11,-1
 107 320 l 1,12,-1
 107 369 l 1,13,-1
 237 369 l 1,14,-1
 404 633 l 1,15,-1
 73 633 l 1,16,-1
 73 685 l 1,17,-1
 468 685 l 1,0,-1
EndSplineSet
Substitution2: "'c2sc' Capitals to Small Capitals lookup 26 subtable" uni01B6.sc
Substitution2: "'aalt' Access All Alternates lookup 0 subtable" uni01B6.sc
Position2: "'cpsp' Capital Spacing lookup 0 subtable" dx=5 dy=0 dh=10 dv=0
EndChar

StartChar: uni0262
Encoding: 610 610 330
Width: 555
GlyphClass: 2
Flags: W
AnchorPoint: "Anchor-18" 0 0 basechar 0
AnchorPoint: "Anchor-17" 0 0 basechar 0
AnchorPoint: "Anchor-16" 300 523 basechar 0
AnchorPoint: "Anchor-15" 0 0 basechar 0
AnchorPoint: "Anchor-14" 288 0 basechar 0
LayerCount: 2
Fore
SplineSet
387.5 521 m 128,-1,1
 426 507 426 507 464 478 c 1,2,-1
 430 441 l 1,3,4
 399 464 399 464 368 474.5 c 128,-1,5
 337 485 337 485 300 485 c 0,6,7
 254 485 254 485 214 461.5 c 128,-1,8
 174 438 174 438 149.5 388.5 c 128,-1,9
 125 339 125 339 125 265 c 0,10,11
 125 149 125 149 170 94 c 128,-1,12
 215 39 215 39 296 39 c 0,13,14
 362 39 362 39 414 65 c 1,15,-1
 414 239 l 1,16,-1
 303 239 l 1,17,-1
 297 286 l 1,18,-1
 471 286 l 1,19,-1
 471 38 l 1,20,21
 392 -9 392 -9 296 -9 c 0,22,23
 188 -9 188 -9 126 60.5 c 128,-1,24
 64 130 64 130 64 265 c 0,25,26
 64 349 64 349 96.5 410 c 128,-1,27
 129 471 129 471 183 503 c 128,-1,28
 237 535 237 535 299 535 c 0,29,0
 349 535 349 535 387.5 521 c 128,-1,1
EndSplineSet
EndChar

StartChar: uni029B
Encoding: 667 667 331
Width: 555
GlyphClass: 2
Flags: W
AnchorPoint: "Anchor-18" 0 0 basechar 0
AnchorPoint: "Anchor-17" 0 0 basechar 0
AnchorPoint: "Anchor-16" 277 736 basechar 0
AnchorPoint: "Anchor-15" 0 0 basechar 0
AnchorPoint: "Anchor-14" 295 0 basechar 0
LayerCount: 2
Fore
SplineSet
633 709 m 1,1,-1
 608 672 l 1,2,3
 589 683 589 683 572.5 689 c 128,-1,4
 556 695 556 695 533 695 c 0,5,6
 464 695 464 695 464 612 c 2,7,-1
 464 478 l 1,8,-1
 434 445 l 1,9,10
 402 466 402 466 370 475.5 c 128,-1,11
 338 485 338 485 300 485 c 0,12,13
 253 485 253 485 213 461.5 c 128,-1,14
 173 438 173 438 149 388.5 c 128,-1,15
 125 339 125 339 125 265 c 0,16,17
 125 149 125 149 170 94 c 128,-1,18
 215 39 215 39 296 39 c 0,19,20
 362 39 362 39 414 65 c 1,21,-1
 414 239 l 1,22,-1
 303 239 l 1,23,-1
 297 286 l 1,24,-1
 471 286 l 1,25,-1
 471 38 l 1,26,27
 392 -9 392 -9 296 -9 c 0,28,29
 188 -9 188 -9 126 60.5 c 128,-1,30
 64 130 64 130 64 265 c 0,31,32
 64 349 64 349 96.5 410 c 128,-1,33
 129 471 129 471 183 503 c 128,-1,34
 237 535 237 535 299 535 c 0,35,36
 356 535 356 535 406 510 c 1,37,-1
 406 609 l 2,38,39
 406 675 406 675 439 709 c 128,-1,40
 472 743 472 743 530 743 c 0,41,0
 587 743 587 743 633 709 c 1,1,-1
EndSplineSet
EndChar

StartChar: uni026A
Encoding: 618 618 333
Width: 320
GlyphClass: 2
Flags: W
AnchorPoint: "Anchor-18" 0 0 basechar 0
AnchorPoint: "Anchor-17" 0 0 basechar 0
AnchorPoint: "Anchor-16" 160 523 basechar 0
AnchorPoint: "Anchor-15" 0 0 basechar 0
AnchorPoint: "Anchor-14" 160 0 basechar 0
LayerCount: 2
Fore
SplineSet
292 476 m 1,0,-1
 188 476 l 1,1,-1
 188 48 l 1,2,-1
 292 48 l 1,3,-1
 292 0 l 1,4,-1
 28 0 l 1,5,-1
 28 48 l 1,6,-1
 130 48 l 1,7,-1
 130 476 l 1,8,-1
 28 476 l 1,9,-1
 28 523 l 1,10,-1
 292 523 l 1,11,-1
 292 476 l 1,0,-1
EndSplineSet
EndChar

StartChar: uni029F
Encoding: 671 671 334
Width: 416
GlyphClass: 2
Flags: W
AnchorPoint: "Anchor-18" 0 0 basechar 0
AnchorPoint: "Anchor-17" 0 0 basechar 0
AnchorPoint: "Anchor-16" 135 523 basechar 0
AnchorPoint: "Anchor-15" 0 0 basechar 0
AnchorPoint: "Anchor-14" 251 0 basechar 0
LayerCount: 2
Fore
SplineSet
164 523 m 1,0,-1
 164 51 l 1,1,-1
 404 51 l 1,2,-1
 396 0 l 1,3,-1
 106 0 l 1,4,-1
 106 523 l 1,5,-1
 164 523 l 1,0,-1
EndSplineSet
EndChar

StartChar: uni0274
Encoding: 628 628 335
Width: 590
GlyphClass: 2
Flags: W
AnchorPoint: "Anchor-18" 0 0 basechar 0
AnchorPoint: "Anchor-17" 0 0 basechar 0
AnchorPoint: "Anchor-16" 295 523 basechar 0
AnchorPoint: "Anchor-15" 0 0 basechar 0
AnchorPoint: "Anchor-14" 295 0 basechar 0
LayerCount: 2
Fore
SplineSet
484 0 m 1,0,-1
 409 0 l 1,1,-1
 154 466 l 1,2,3
 160 370 160 370 160 258 c 2,4,-1
 160 0 l 1,5,-1
 106 0 l 1,6,-1
 106 523 l 1,7,-1
 181 523 l 1,8,-1
 436 57 l 1,9,10
 429 134 429 134 429 221 c 2,11,-1
 429 523 l 1,12,-1
 484 523 l 1,13,-1
 484 0 l 1,0,-1
EndSplineSet
EndChar

StartChar: uni0276
Encoding: 630 630 336
Width: 728
GlyphClass: 2
Flags: W
AnchorPoint: "Anchor-18" 0 0 basechar 0
AnchorPoint: "Anchor-17" 0 0 basechar 0
AnchorPoint: "Anchor-16" 397 523 basechar 0
AnchorPoint: "Anchor-15" 0 0 basechar 0
AnchorPoint: "Anchor-14" 397 0 basechar 0
LayerCount: 2
Fore
SplineSet
690 0 m 1,0,-1
 353 0 l 1,1,2
 320 -11 320 -11 285 -11 c 0,3,4
 181 -11 181 -11 122.5 61.5 c 128,-1,5
 64 134 64 134 64 261 c 0,6,7
 64 344 64 344 91 406 c 128,-1,8
 118 468 118 468 168 501 c 128,-1,9
 218 534 218 534 286 534 c 0,10,11
 326 534 326 534 359 523 c 1,12,-1
 685 523 l 1,13,-1
 678 476 l 1,14,-1
 425 476 l 1,15,16
 459 449 459 449 481 402 c 128,-1,17
 503 355 503 355 507 295 c 1,18,-1
 646 295 l 1,19,-1
 646 248 l 1,20,-1
 508 248 l 1,21,22
 502 108 502 108 418 47 c 1,23,-1
 690 47 l 1,24,-1
 690 0 l 1,0,-1
167.5 95 m 128,-1,26
 209 38 209 38 286 38 c 0,27,28
 360 38 360 38 403.5 96.5 c 128,-1,29
 447 155 447 155 447 265 c 0,30,31
 447 373 447 373 403 429 c 128,-1,32
 359 485 359 485 286 485 c 0,33,34
 210 485 210 485 168 428 c 128,-1,35
 126 371 126 371 126 261 c 0,36,25
 126 152 126 152 167.5 95 c 128,-1,26
EndSplineSet
EndChar

StartChar: uni0280
Encoding: 640 640 337
Width: 524
GlyphClass: 2
Flags: W
AnchorPoint: "Anchor-18" 0 0 basechar 0
AnchorPoint: "Anchor-17" 0 0 basechar 0
AnchorPoint: "Anchor-16" 257 523 basechar 0
AnchorPoint: "Anchor-15" 0 0 basechar 0
AnchorPoint: "Anchor-14" 257 0 basechar 0
LayerCount: 2
Fore
SplineSet
406 0 m 1,0,-1
 266 217 l 1,1,2
 259 216 259 216 245 216 c 2,3,-1
 164 216 l 1,4,-1
 164 0 l 1,5,-1
 106 0 l 1,6,-1
 106 523 l 1,7,-1
 237 523 l 2,8,9
 341 523 341 523 393.5 484 c 128,-1,10
 446 445 446 445 446 370 c 0,11,12
 446 315 446 315 414.5 277.5 c 128,-1,13
 383 240 383 240 323 225 c 1,14,-1
 473 0 l 1,15,-1
 406 0 l 1,0,-1
247 263 m 2,16,17
 386 263 386 263 386 370 c 0,18,19
 386 424 386 424 350 450 c 128,-1,20
 314 476 314 476 235 476 c 2,21,-1
 164 476 l 1,22,-1
 164 263 l 1,23,-1
 247 263 l 2,16,17
EndSplineSet
Substitution2: "'smcp' Lowercase to Small Capitals lookup 27 subtable" uni0280.sc
Substitution2: "'aalt' Access All Alternates lookup 0 subtable" uni0280.sc
EndChar

StartChar: uni0281
Encoding: 641 641 338
Width: 524
GlyphClass: 2
Flags: W
AnchorPoint: "Anchor-18" 0 0 basechar 0
AnchorPoint: "Anchor-17" 0 0 basechar 0
AnchorPoint: "Anchor-16" 257 523 basechar 0
AnchorPoint: "Anchor-15" 0 0 basechar 0
AnchorPoint: "Anchor-14" 257 0 basechar 0
LayerCount: 2
Fore
SplineSet
414.5 247 m 128,-1,1
 446 210 446 210 446 156 c 0,2,3
 446 79 446 79 393.5 39.5 c 128,-1,4
 341 0 341 0 237 0 c 2,5,-1
 106 0 l 1,6,-1
 106 523 l 1,7,-1
 164 523 l 1,8,-1
 164 307 l 1,9,-1
 245 307 l 2,10,11
 259 307 259 307 266 306 c 1,12,-1
 406 523 l 1,13,-1
 473 523 l 1,14,-1
 323 299 l 1,15,0
 383 284 383 284 414.5 247 c 128,-1,1
350 74 m 128,-1,17
 386 101 386 101 386 156 c 0,18,19
 386 208 386 208 350.5 234 c 128,-1,20
 315 260 315 260 247 260 c 2,21,-1
 164 260 l 1,22,-1
 164 47 l 1,23,-1
 235 47 l 2,24,16
 314 47 314 47 350 74 c 128,-1,17
EndSplineSet
EndChar

StartChar: uni028F
Encoding: 655 655 339
Width: 427
GlyphClass: 2
Flags: W
AnchorPoint: "Anchor-18" 0 0 basechar 0
AnchorPoint: "Anchor-17" 0 0 basechar 0
AnchorPoint: "Anchor-16" 214 523 basechar 0
AnchorPoint: "Anchor-15" 0 0 basechar 0
AnchorPoint: "Anchor-14" 214 0 basechar 0
LayerCount: 2
Fore
SplineSet
421 523 m 1,0,-1
 243 206 l 1,1,-1
 243 0 l 1,2,-1
 185 0 l 1,3,-1
 185 205 l 1,4,-1
 5 523 l 1,5,-1
 67 523 l 1,6,-1
 216 250 l 1,7,-1
 360 523 l 1,8,-1
 421 523 l 1,0,-1
EndSplineSet
EndChar

StartChar: a
Encoding: 97 97 340
Width: 536
GlyphClass: 2
Flags: W
AnchorPoint: "Anchor-18" 0 0 basechar 0
AnchorPoint: "Anchor-17" 0 0 basechar 0
AnchorPoint: "Anchor-16" 258 523 basechar 0
AnchorPoint: "Anchor-15" 472 -11 basechar 0
AnchorPoint: "Anchor-14" 258 0 basechar 0
LayerCount: 2
Fore
SplineSet
441.5 57 m 128,-1,1
 452 39 452 39 475 30 c 1,2,-1
 462 -11 l 1,3,4
 426 -4 426 -4 406.5 16 c 128,-1,5
 387 36 387 36 381 77 c 1,6,7
 327 -11 327 -11 218 -11 c 0,8,9
 143 -11 143 -11 99.5 31.5 c 128,-1,10
 56 74 56 74 56 145 c 0,11,12
 56 226 56 226 113.5 270 c 128,-1,13
 171 314 171 314 273 314 c 2,14,-1
 373 314 l 1,15,-1
 373 365 l 2,16,17
 373 428 373 428 345 456.5 c 128,-1,18
 317 485 317 485 252 485 c 0,19,20
 192 485 192 485 110 455 c 1,21,-1
 95 499 l 1,22,23
 183 534 183 534 260 534 c 0,24,25
 431 534 431 534 431 368 c 2,26,-1
 431 116 l 2,27,0
 431 75 431 75 441.5 57 c 128,-1,1
373 128 m 1,29,-1
 373 272 l 1,30,-1
 282 272 l 2,31,32
 202 272 202 272 160 241 c 128,-1,33
 118 210 118 210 118 148 c 0,34,35
 118 94 118 94 147 65 c 128,-1,36
 176 36 176 36 228 36 c 0,37,28
 322 36 322 36 373 128 c 1,29,-1
EndSplineSet
Substitution2: "Single Substitution lookup 45 subtable" ordfeminine
Substitution2: "'ss04' Style Set 4 lookup 36 subtable" a.ss04
Substitution2: "'salt' Stylistic Alternatives lookup 32 subtable" a.ss04
Substitution2: "'smcp' Lowercase to Small Capitals lookup 27 subtable" a.sc
AlternateSubs2: "'aalt' Access All Alternates lookup 1 subtable" ordfeminine a.sc a.ss04
EndChar

StartChar: a.ss04
Encoding: 65547 -1 341
Width: 585
GlyphClass: 2
Flags: W
AnchorPoint: "Anchor-18" 0 0 basechar 0
AnchorPoint: "Anchor-17" 0 0 basechar 0
AnchorPoint: "Anchor-16" 293 523 basechar 0
AnchorPoint: "Anchor-15" 0 0 basechar 0
AnchorPoint: "Anchor-14" 293 0 basechar 0
LayerCount: 2
Fore
SplineSet
484.5 65.5 m 128,-1,1
 495 48 495 48 522 37 c 1,2,-1
 503 -8 l 1,3,4
 464 4 464 4 445 24 c 128,-1,5
 426 44 426 44 420 78 c 1,6,7
 395 37 395 37 355.5 13 c 128,-1,8
 316 -11 316 -11 265 -11 c 0,9,10
 172 -11 172 -11 118 61.5 c 128,-1,11
 64 134 64 134 64 259 c 0,12,13
 64 339 64 339 89.5 401.5 c 128,-1,14
 115 464 115 464 162.5 499 c 128,-1,15
 210 534 210 534 273 534 c 0,16,17
 324 534 324 534 358.5 513.5 c 128,-1,18
 393 493 393 493 419 460 c 1,19,-1
 424 523 l 1,20,-1
 474 523 l 1,21,-1
 474 122 l 2,22,0
 474 83 474 83 484.5 65.5 c 128,-1,1
354 61 m 128,-1,24
 388 85 388 85 416 134 c 1,25,-1
 416 407 l 1,26,27
 360 486 360 486 280 486 c 0,28,29
 210 486 210 486 167.5 427 c 128,-1,30
 125 368 125 368 126 260 c 0,31,32
 126 152 126 152 164.5 94.5 c 128,-1,33
 203 37 203 37 272 37 c 0,34,23
 320 37 320 37 354 61 c 128,-1,24
EndSplineSet
EndChar

StartChar: uni0251
Encoding: 593 593 365
Width: 585
GlyphClass: 2
Flags: W
AnchorPoint: "Anchor-18" 0 0 basechar 0
AnchorPoint: "Anchor-17" 0 0 basechar 0
AnchorPoint: "Anchor-16" 293 523 basechar 0
AnchorPoint: "Anchor-15" 0 0 basechar 0
AnchorPoint: "Anchor-14" 293 0 basechar 0
LayerCount: 2
Fore
SplineSet
484.5 65.5 m 128,-1,1
 495 48 495 48 522 37 c 1,2,-1
 503 -8 l 1,3,4
 464 4 464 4 445 24 c 128,-1,5
 426 44 426 44 420 78 c 1,6,7
 395 37 395 37 355.5 13 c 128,-1,8
 316 -11 316 -11 265 -11 c 0,9,10
 172 -11 172 -11 118 61.5 c 128,-1,11
 64 134 64 134 64 259 c 0,12,13
 64 339 64 339 89.5 401.5 c 128,-1,14
 115 464 115 464 162.5 499 c 128,-1,15
 210 534 210 534 273 534 c 0,16,17
 324 534 324 534 358.5 513.5 c 128,-1,18
 393 493 393 493 419 460 c 1,19,-1
 424 523 l 1,20,-1
 474 523 l 1,21,-1
 474 122 l 2,22,0
 474 83 474 83 484.5 65.5 c 128,-1,1
354 61 m 128,-1,24
 388 85 388 85 416 134 c 1,25,-1
 416 407 l 1,26,27
 360 486 360 486 280 486 c 0,28,29
 210 486 210 486 167.5 427 c 128,-1,30
 125 368 125 368 126 260 c 0,31,32
 126 152 126 152 164.5 94.5 c 128,-1,33
 203 37 203 37 272 37 c 0,34,23
 320 37 320 37 354 61 c 128,-1,24
EndSplineSet
Substitution2: "'smcp' Lowercase to Small Capitals lookup 27 subtable" uni0251.sc
Substitution2: "'aalt' Access All Alternates lookup 0 subtable" uni0251.sc
EndChar

StartChar: uni0252
Encoding: 594 594 366
Width: 585
GlyphClass: 2
Flags: W
AnchorPoint: "Anchor-18" 0 0 basechar 0
AnchorPoint: "Anchor-17" 0 0 basechar 0
AnchorPoint: "Anchor-16" 293 523 basechar 0
AnchorPoint: "Anchor-15" 0 0 basechar 0
AnchorPoint: "Anchor-14" 293 0 basechar 0
LayerCount: 2
Fore
SplineSet
467 461.5 m 128,-1,1
 521 389 521 389 521 264 c 0,2,3
 521 184 521 184 495.5 121.5 c 128,-1,4
 470 59 470 59 422.5 24 c 128,-1,5
 375 -11 375 -11 312 -11 c 0,6,7
 261 -11 261 -11 226.5 9.5 c 128,-1,8
 192 30 192 30 166 63 c 1,9,-1
 161 0 l 1,10,-1
 111 0 l 1,11,-1
 111 401 l 2,12,13
 111 440 111 440 100.5 457.5 c 128,-1,14
 90 475 90 475 63 486 c 1,15,-1
 82 531 l 1,16,17
 121 519 121 519 140 499 c 128,-1,18
 159 479 159 479 165 445 c 1,19,20
 190 486 190 486 229.5 510 c 128,-1,21
 269 534 269 534 320 534 c 0,22,0
 413 534 413 534 467 461.5 c 128,-1,1
416.5 95.5 m 128,-1,24
 459 154 459 154 459 260 c 0,25,26
 459 370 459 370 421 428 c 128,-1,27
 383 486 383 486 313 486 c 0,28,29
 265 486 265 486 231 462 c 128,-1,30
 197 438 197 438 169 389 c 1,31,-1
 169 116 l 1,32,33
 225 37 225 37 305 37 c 0,34,23
 374 37 374 37 416.5 95.5 c 128,-1,24
EndSplineSet
EndChar

StartChar: aogonek
Encoding: 261 261 368
Width: 536
GlyphClass: 2
Flags: W
AnchorPoint: "Anchor-18" 0 0 basechar 0
AnchorPoint: "Anchor-17" 0 0 basechar 0
AnchorPoint: "Anchor-16" 258 523 basechar 0
AnchorPoint: "Anchor-15" 472 -11 basechar 0
AnchorPoint: "Anchor-14" 258 0 basechar 0
LayerCount: 2
Fore
SplineSet
367.5 -67.5 m 128,-1,1
 340 -94 340 -94 340 -129 c 0,2,3
 340 -153 340 -153 355.5 -167 c 128,-1,4
 371 -181 371 -181 403 -181 c 0,5,6
 430 -181 430 -181 461 -174 c 1,7,-1
 455 -222 l 1,8,9
 420 -229 420 -229 397 -229 c 0,10,11
 344 -229 344 -229 315 -203.5 c 128,-1,12
 286 -178 286 -178 286 -137 c 0,13,14
 286 -92 286 -92 319.5 -58 c 128,-1,15
 353 -24 353 -24 422 4 c 1,16,17
 388 24 388 24 381 77 c 1,18,19
 327 -11 327 -11 218 -11 c 0,20,21
 143 -11 143 -11 99.5 31.5 c 128,-1,22
 56 74 56 74 56 145 c 0,23,24
 56 226 56 226 113.5 270 c 128,-1,25
 171 314 171 314 273 314 c 2,26,-1
 373 314 l 1,27,-1
 373 365 l 2,28,29
 373 428 373 428 345 456.5 c 128,-1,30
 317 485 317 485 252 485 c 0,31,32
 192 485 192 485 110 455 c 1,33,-1
 95 499 l 1,34,35
 183 534 183 534 260 534 c 0,36,37
 431 534 431 534 431 368 c 2,38,-1
 431 116 l 2,39,40
 431 75 431 75 441.5 57 c 128,-1,41
 452 39 452 39 475 30 c 1,42,-1
 462 -11 l 1,43,0
 395 -41 395 -41 367.5 -67.5 c 128,-1,1
373 128 m 1,45,-1
 373 272 l 1,46,-1
 282 272 l 2,47,48
 202 272 202 272 160 241 c 128,-1,49
 118 210 118 210 118 148 c 0,50,51
 118 94 118 94 147 65 c 128,-1,52
 176 36 176 36 228 36 c 0,53,44
 322 36 322 36 373 128 c 1,45,-1
EndSplineSet
Substitution2: "'smcp' Lowercase to Small Capitals lookup 27 subtable" aogonek.sc
Substitution2: "'aalt' Access All Alternates lookup 0 subtable" aogonek.sc
EndChar

StartChar: aringacute
Encoding: 507 507 370
Width: 536
GlyphClass: 2
Flags: W
AnchorPoint: "Anchor-18" 0 0 basechar 0
AnchorPoint: "Anchor-17" 0 0 basechar 0
AnchorPoint: "Anchor-16" 260 913 basechar 0
AnchorPoint: "Anchor-15" 472 -11 basechar 0
AnchorPoint: "Anchor-14" 258 0 basechar 0
LayerCount: 2
Fore
SplineSet
365 861 m 1,0,-1
 167 783 l 1,1,-1
 151 817 l 1,2,-1
 339 913 l 1,3,-1
 365 861 l 1,0,-1
187.5 749.5 m 128,-1,5
 215 776 215 776 259 776 c 0,6,7
 302 776 302 776 329.5 749.5 c 128,-1,8
 357 723 357 723 357 682 c 256,9,10
 357 641 357 641 329.5 614.5 c 128,-1,11
 302 588 302 588 259 588 c 0,12,13
 215 588 215 588 187.5 614.5 c 128,-1,14
 160 641 160 641 160 682 c 256,15,4
 160 723 160 723 187.5 749.5 c 128,-1,5
299.5 724.5 m 128,-1,17
 285 740 285 740 259 740 c 0,18,19
 232 740 232 740 217.5 724.5 c 128,-1,20
 203 709 203 709 203 682 c 0,21,22
 203 654 203 654 217.5 639 c 128,-1,23
 232 624 232 624 259 624 c 0,24,25
 285 624 285 624 299.5 639 c 128,-1,26
 314 654 314 654 314 682 c 0,27,16
 314 709 314 709 299.5 724.5 c 128,-1,17
441.5 57 m 128,-1,29
 452 39 452 39 475 30 c 1,30,-1
 462 -11 l 1,31,32
 426 -4 426 -4 406.5 16 c 128,-1,33
 387 36 387 36 381 77 c 1,34,35
 327 -11 327 -11 218 -11 c 0,36,37
 143 -11 143 -11 99.5 31.5 c 128,-1,38
 56 74 56 74 56 145 c 0,39,40
 56 226 56 226 113.5 270 c 128,-1,41
 171 314 171 314 273 314 c 2,42,-1
 373 314 l 1,43,-1
 373 365 l 2,44,45
 373 428 373 428 345 456.5 c 128,-1,46
 317 485 317 485 252 485 c 0,47,48
 192 485 192 485 110 455 c 1,49,-1
 95 499 l 1,50,51
 183 534 183 534 260 534 c 0,52,53
 431 534 431 534 431 368 c 2,54,-1
 431 116 l 2,55,28
 431 75 431 75 441.5 57 c 128,-1,29
373 128 m 1,57,-1
 373 272 l 1,58,-1
 282 272 l 2,59,60
 202 272 202 272 160 241 c 128,-1,61
 118 210 118 210 118 148 c 0,62,63
 118 94 118 94 147 65 c 128,-1,64
 176 36 176 36 228 36 c 0,65,56
 322 36 322 36 373 128 c 1,57,-1
EndSplineSet
Substitution2: "'smcp' Lowercase to Small Capitals lookup 27 subtable" aringacute.sc
Substitution2: "'aalt' Access All Alternates lookup 0 subtable" aringacute.sc
EndChar

StartChar: uni2C65
Encoding: 11365 11365 371
Width: 536
GlyphClass: 2
Flags: W
AnchorPoint: "Anchor-18" 0 0 basechar 0
AnchorPoint: "Anchor-17" 0 0 basechar 0
AnchorPoint: "Anchor-16" 268 523 basechar 0
AnchorPoint: "Anchor-15" 0 0 basechar 0
AnchorPoint: "Anchor-14" 268 0 basechar 0
LayerCount: 2
Fore
SplineSet
441.5 57 m 128,-1,1
 452 39 452 39 475 30 c 1,2,-1
 462 -11 l 1,3,4
 426 -4 426 -4 406.5 16 c 128,-1,5
 387 36 387 36 381 77 c 1,6,7
 327 -11 327 -11 218 -11 c 2,8,-1
 208 -11 l 1,9,-1
 192 -70 l 1,10,-1
 161 -62 l 1,11,-1
 176 -7 l 1,12,13
 119 4 119 4 87.5 44.5 c 128,-1,14
 56 85 56 85 56 145 c 0,15,16
 56 225 56 225 111 269 c 128,-1,17
 166 313 166 313 264 315 c 1,18,-1
 309 478 l 1,19,20
 287 485 287 485 252 485 c 0,21,22
 192 485 192 485 110 455 c 1,23,-1
 95 499 l 1,24,25
 183 534 183 534 260 534 c 0,26,27
 297 534 297 534 322 527 c 1,28,-1
 340 592 l 1,29,-1
 371 583 l 1,30,-1
 353 517 l 1,31,32
 431 481 431 481 431 368 c 2,33,-1
 431 116 l 2,34,0
 431 75 431 75 441.5 57 c 128,-1,1
338 463 m 1,36,-1
 298 315 l 1,37,-1
 373 315 l 1,38,-1
 373 365 l 2,39,35
 373 434 373 434 338 463 c 1,36,-1
373 128 m 1,41,-1
 373 272 l 1,42,-1
 286 272 l 1,43,-1
 221 36 l 1,44,-1
 228 36 l 2,45,40
 322 36 322 36 373 128 c 1,41,-1
136.5 78.5 m 128,-1,47
 155 51 155 51 189 41 c 1,48,-1
 252 271 l 1,49,50
 187 265 187 265 152.5 234.5 c 128,-1,51
 118 204 118 204 118 148 c 0,52,46
 118 106 118 106 136.5 78.5 c 128,-1,47
EndSplineSet
Substitution2: "'smcp' Lowercase to Small Capitals lookup 27 subtable" uni2C65.sc
Substitution2: "'aalt' Access All Alternates lookup 0 subtable" uni2C65.sc
EndChar

StartChar: uni0250
Encoding: 592 592 373
Width: 536
GlyphClass: 2
Flags: W
AnchorPoint: "Anchor-18" 0 0 basechar 0
AnchorPoint: "Anchor-17" 0 0 basechar 0
AnchorPoint: "Anchor-16" 268 523 basechar 0
AnchorPoint: "Anchor-15" 64 534 basechar 0
AnchorPoint: "Anchor-14" 268 0 basechar 0
LayerCount: 2
Fore
SplineSet
426 68 m 1,1,-1
 441 24 l 1,2,3
 353 -11 353 -11 276 -11 c 0,4,5
 105 -11 105 -11 105 155 c 2,6,-1
 105 407 l 2,7,8
 105 448 105 448 94.5 466 c 128,-1,9
 84 484 84 484 61 493 c 1,10,-1
 74 534 l 1,11,12
 110 527 110 527 129.5 507 c 128,-1,13
 149 487 149 487 155 446 c 1,14,15
 209 534 209 534 318 534 c 0,16,17
 393 534 393 534 436.5 491.5 c 128,-1,18
 480 449 480 449 480 378 c 0,19,20
 480 297 480 297 422.5 253 c 128,-1,21
 365 209 365 209 263 209 c 2,22,-1
 163 209 l 1,23,-1
 163 158 l 2,24,25
 163 95 163 95 191 66.5 c 128,-1,26
 219 38 219 38 284 38 c 0,27,0
 344 38 344 38 426 68 c 1,1,-1
163 395 m 1,29,-1
 163 251 l 1,30,-1
 254 251 l 2,31,32
 334 251 334 251 376 282 c 128,-1,33
 418 313 418 313 418 375 c 0,34,35
 418 429 418 429 389 458 c 128,-1,36
 360 487 360 487 308 487 c 0,37,28
 214 487 214 487 163 395 c 1,29,-1
EndSplineSet
EndChar

StartChar: ae
Encoding: 230 230 374
Width: 847
GlyphClass: 2
Flags: W
AnchorPoint: "Anchor-18" 0 0 basechar 0
AnchorPoint: "Anchor-17" 0 0 basechar 0
AnchorPoint: "Anchor-16" 425 523 basechar 0
AnchorPoint: "Anchor-15" 0 0 basechar 0
AnchorPoint: "Anchor-14" 417 0 basechar 0
LayerCount: 2
Fore
SplineSet
786 239 m 1,1,-1
 437 239 l 1,2,3
 441 137 441 137 484.5 87.5 c 128,-1,4
 528 38 528 38 599 38 c 0,5,6
 640 38 640 38 672 50.5 c 128,-1,7
 704 63 704 63 740 90 c 1,8,-1
 768 53 l 1,9,10
 729 21 729 21 687.5 5 c 128,-1,11
 646 -11 646 -11 596 -11 c 0,12,13
 533 -11 533 -11 485.5 16.5 c 128,-1,14
 438 44 438 44 410 96 c 1,15,16
 370 39 370 39 324.5 14 c 128,-1,17
 279 -11 279 -11 220 -11 c 0,18,19
 144 -11 144 -11 100 32 c 128,-1,20
 56 75 56 75 56 145 c 0,21,22
 56 226 56 226 114.5 270.5 c 128,-1,23
 173 315 173 315 275 315 c 2,24,-1
 375 315 l 1,25,-1
 375 365 l 2,26,27
 375 428 375 428 346.5 456.5 c 128,-1,28
 318 485 318 485 254 485 c 0,29,30
 194 485 194 485 112 455 c 1,31,-1
 96 499 l 1,32,33
 184 534 184 534 261 534 c 0,34,35
 327 534 327 534 366 508.5 c 128,-1,36
 405 483 405 483 421 433 c 1,37,38
 475 534 475 534 588 534 c 0,39,40
 685 534 685 534 736.5 466.5 c 128,-1,41
 788 399 788 399 788 281 c 0,42,0
 788 259 788 259 786 239 c 1,1,-1
730 299 m 2,43,44
 730 387 730 387 694 436.5 c 128,-1,45
 658 486 658 486 587 486 c 0,46,47
 522 486 522 486 481.5 436 c 128,-1,48
 441 386 441 386 437 284 c 1,49,-1
 730 284 l 1,50,-1
 730 299 l 2,43,44
316.5 60.5 m 128,-1,52
 354 85 354 85 391 141 c 1,53,54
 375 195 375 195 375 256 c 2,55,-1
 375 272 l 1,56,-1
 283 272 l 2,57,58
 204 272 204 272 161.5 240.5 c 128,-1,59
 119 209 119 209 119 148 c 0,60,61
 119 94 119 94 148 65 c 128,-1,62
 177 36 177 36 229 36 c 0,63,51
 279 36 279 36 316.5 60.5 c 128,-1,52
EndSplineSet
Substitution2: "'smcp' Lowercase to Small Capitals lookup 27 subtable" ae.sc
Substitution2: "'aalt' Access All Alternates lookup 0 subtable" ae.sc
EndChar

StartChar: b
Encoding: 98 98 377
Width: 581
GlyphClass: 2
Flags: W
AnchorPoint: "Anchor-18" 0 0 basechar 0
AnchorPoint: "Anchor-17" 0 0 basechar 0
AnchorPoint: "Anchor-16" 303 736 basechar 0
AnchorPoint: "Anchor-15" 0 0 basechar 0
AnchorPoint: "Anchor-14" 303 0 basechar 0
LayerCount: 2
Fore
SplineSet
462 464 m 128,-1,1
 512 394 512 394 512 264 c 0,2,3
 512 137 512 137 459.5 63 c 128,-1,4
 407 -11 407 -11 313 -11 c 0,5,6
 266 -11 266 -11 227.5 10 c 128,-1,7
 189 31 189 31 163 66 c 1,8,-1
 157 0 l 1,9,-1
 106 0 l 1,10,-1
 106 736 l 1,11,-1
 164 743 l 1,12,-1
 164 450 l 1,13,14
 226 534 226 534 321 534 c 0,15,0
 412 534 412 534 462 464 c 128,-1,1
411.5 94.5 m 128,-1,17
 450 152 450 152 450 264 c 0,18,19
 450 486 450 486 309 486 c 0,20,21
 262 486 262 486 228 462.5 c 128,-1,22
 194 439 194 439 164 396 c 1,23,-1
 164 121 l 1,24,25
 189 82 189 82 224 59.5 c 128,-1,26
 259 37 259 37 302 37 c 0,27,16
 373 37 373 37 411.5 94.5 c 128,-1,17
EndSplineSet
Substitution2: "'smcp' Lowercase to Small Capitals lookup 27 subtable" b.sc
Substitution2: "'aalt' Access All Alternates lookup 0 subtable" b.sc
EndChar

StartChar: uni0253
Encoding: 595 595 381
Width: 581
GlyphClass: 2
Flags: W
AnchorPoint: "Anchor-18" 0 0 basechar 0
AnchorPoint: "Anchor-17" 0 0 basechar 0
AnchorPoint: "Anchor-16" 290 736 basechar 0
AnchorPoint: "Anchor-15" 0 0 basechar 0
AnchorPoint: "Anchor-14" 290 0 basechar 0
LayerCount: 2
Fore
SplineSet
462 464 m 128,-1,1
 512 394 512 394 512 264 c 0,2,3
 512 137 512 137 459.5 63 c 128,-1,4
 407 -11 407 -11 313 -11 c 0,5,6
 266 -11 266 -11 227.5 10 c 128,-1,7
 189 31 189 31 163 66 c 1,8,-1
 157 0 l 1,9,-1
 106 0 l 1,10,-1
 106 609 l 2,11,12
 106 671 106 671 145 707 c 128,-1,13
 184 743 184 743 251 743 c 0,14,15
 314 743 314 743 373 715 c 1,16,-1
 353 672 l 1,17,18
 301 695 301 695 255 695 c 256,19,20
 209 695 209 695 186.5 674 c 128,-1,21
 164 653 164 653 164 607 c 2,22,-1
 164 450 l 1,23,24
 226 534 226 534 321 534 c 0,25,0
 412 534 412 534 462 464 c 128,-1,1
411.5 94.5 m 128,-1,27
 450 152 450 152 450 264 c 0,28,29
 450 486 450 486 309 486 c 0,30,31
 262 486 262 486 228 462.5 c 128,-1,32
 194 439 194 439 164 396 c 1,33,-1
 164 121 l 1,34,35
 189 82 189 82 224 59.5 c 128,-1,36
 259 37 259 37 302 37 c 0,37,26
 373 37 373 37 411.5 94.5 c 128,-1,27
EndSplineSet
Substitution2: "'smcp' Lowercase to Small Capitals lookup 27 subtable" uni0253.sc
Substitution2: "'aalt' Access All Alternates lookup 0 subtable" uni0253.sc
EndChar

StartChar: uni02AD
Encoding: 685 685 382
Width: 325
GlyphClass: 2
Flags: W
AnchorPoint: "Anchor-18" 0 0 basechar 0
AnchorPoint: "Anchor-17" 0 0 basechar 0
AnchorPoint: "Anchor-16" 0 0 basechar 0
AnchorPoint: "Anchor-15" 0 0 basechar 0
AnchorPoint: "Anchor-14" 166 171 basechar 0
LayerCount: 2
Fore
SplineSet
30 401 m 1,0,-1
 30 533 l 1,1,-1
 295 533 l 1,2,-1
 295 401 l 1,3,-1
 250 401 l 1,4,-1
 250 491 l 1,5,-1
 75 491 l 1,6,-1
 75 401 l 1,7,-1
 30 401 l 1,0,-1
30 1 m 1,8,-1
 30 133 l 1,9,-1
 295 133 l 1,10,-1
 295 1 l 1,11,-1
 250 1 l 1,12,-1
 250 91 l 1,13,-1
 75 91 l 1,14,-1
 75 1 l 1,15,-1
 30 1 l 1,8,-1
EndSplineSet
EndChar

StartChar: uni0298
Encoding: 664 664 383
Width: 791
GlyphClass: 2
Flags: W
AnchorPoint: "Anchor-18" 0 0 basechar 0
AnchorPoint: "Anchor-17" 0 0 basechar 0
AnchorPoint: "Anchor-16" 395 685 basechar 0
AnchorPoint: "Anchor-15" 0 0 basechar 0
AnchorPoint: "Anchor-14" 395 0 basechar 0
LayerCount: 2
Fore
SplineSet
567.5 654.5 m 128,-1,1
 642 613 642 613 683.5 533 c 128,-1,2
 725 453 725 453 725 342 c 0,3,4
 725 233 725 233 684 153.5 c 128,-1,5
 643 74 643 74 568 31.5 c 128,-1,6
 493 -11 493 -11 395 -11 c 0,7,8
 298 -11 298 -11 223.5 30.5 c 128,-1,9
 149 72 149 72 107.5 151.5 c 128,-1,10
 66 231 66 231 66 341 c 0,11,12
 66 450 66 450 108 530.5 c 128,-1,13
 150 611 150 611 224.5 653.5 c 128,-1,14
 299 696 299 696 395 696 c 0,15,0
 493 696 493 696 567.5 654.5 c 128,-1,1
197 568.5 m 128,-1,17
 123 490 123 490 123 341 c 0,18,19
 123 243 123 243 157.5 174.5 c 128,-1,20
 192 106 192 106 253.5 72 c 128,-1,21
 315 38 315 38 395 38 c 0,22,23
 522 38 522 38 595 115.5 c 128,-1,24
 668 193 668 193 668 342 c 256,25,26
 668 491 668 491 594.5 569 c 128,-1,27
 521 647 521 647 395 647 c 0,28,16
 271 647 271 647 197 568.5 c 128,-1,17
427 372 m 128,-1,30
 439 360 439 360 439 342 c 256,31,32
 439 324 439 324 427 312 c 128,-1,33
 415 300 415 300 395 300 c 0,34,35
 376 300 376 300 364 312 c 128,-1,36
 352 324 352 324 352 342 c 256,37,38
 352 360 352 360 364 372 c 128,-1,39
 376 384 376 384 395 384 c 0,40,29
 415 384 415 384 427 372 c 128,-1,30
EndSplineSet
EndChar

StartChar: uni0180
Encoding: 384 384 385
Width: 586
GlyphClass: 2
Flags: W
AnchorPoint: "Anchor-18" 0 0 basechar 0
AnchorPoint: "Anchor-17" 0 0 basechar 0
AnchorPoint: "Anchor-16" 308 736 basechar 0
AnchorPoint: "Anchor-15" 0 0 basechar 0
AnchorPoint: "Anchor-14" 308 0 basechar 0
LayerCount: 2
Fore
SplineSet
467 464 m 128,-1,1
 517 394 517 394 517 264 c 0,2,3
 517 137 517 137 464.5 63 c 128,-1,4
 412 -11 412 -11 318 -11 c 0,5,6
 271 -11 271 -11 232.5 10 c 128,-1,7
 194 31 194 31 168 66 c 1,8,-1
 162 0 l 1,9,-1
 111 0 l 1,10,-1
 111 616 l 1,11,-1
 35 616 l 1,12,-1
 35 663 l 1,13,-1
 111 663 l 1,14,-1
 111 736 l 1,15,-1
 169 743 l 1,16,-1
 169 663 l 1,17,-1
 334 663 l 1,18,-1
 334 616 l 1,19,-1
 169 616 l 1,20,-1
 169 450 l 1,21,22
 231 534 231 534 326 534 c 0,23,0
 417 534 417 534 467 464 c 128,-1,1
416.5 94.5 m 128,-1,25
 455 152 455 152 455 264 c 0,26,27
 455 486 455 486 314 486 c 0,28,29
 267 486 267 486 233 462.5 c 128,-1,30
 199 439 199 439 169 396 c 1,31,-1
 169 121 l 1,32,33
 194 82 194 82 229 59.5 c 128,-1,34
 264 37 264 37 307 37 c 0,35,24
 378 37 378 37 416.5 94.5 c 128,-1,25
EndSplineSet
Substitution2: "'smcp' Lowercase to Small Capitals lookup 27 subtable" uni0180.sc
Substitution2: "'aalt' Access All Alternates lookup 0 subtable" uni0180.sc
EndChar

StartChar: uni0183
Encoding: 387 387 386
Width: 581
GlyphClass: 2
Flags: W
AnchorPoint: "Anchor-18" 0 0 basechar 0
AnchorPoint: "Anchor-17" 0 0 basechar 0
AnchorPoint: "Anchor-16" 290 736 basechar 0
AnchorPoint: "Anchor-15" 0 0 basechar 0
AnchorPoint: "Anchor-14" 290 0 basechar 0
LayerCount: 2
Fore
SplineSet
462 464 m 128,-1,1
 512 394 512 394 512 264 c 0,2,3
 512 137 512 137 459.5 63 c 128,-1,4
 407 -11 407 -11 313 -11 c 0,5,6
 266 -11 266 -11 227.5 10 c 128,-1,7
 189 31 189 31 163 66 c 1,8,-1
 157 0 l 1,9,-1
 106 0 l 1,10,-1
 106 736 l 1,11,-1
 400 736 l 1,12,-1
 391 689 l 1,13,-1
 164 689 l 1,14,-1
 164 450 l 1,15,16
 226 534 226 534 321 534 c 0,17,0
 412 534 412 534 462 464 c 128,-1,1
411.5 94.5 m 128,-1,19
 450 152 450 152 450 264 c 0,20,21
 450 486 450 486 309 486 c 0,22,23
 262 486 262 486 228 462.5 c 128,-1,24
 194 439 194 439 164 396 c 1,25,-1
 164 121 l 1,26,27
 189 82 189 82 224 59.5 c 128,-1,28
 259 37 259 37 302 37 c 0,29,18
 373 37 373 37 411.5 94.5 c 128,-1,19
EndSplineSet
Substitution2: "'smcp' Lowercase to Small Capitals lookup 27 subtable" uni0183.sc
Substitution2: "'aalt' Access All Alternates lookup 0 subtable" uni0183.sc
EndChar

StartChar: c
Encoding: 99 99 387
Width: 469
GlyphClass: 2
Flags: W
AnchorPoint: "Anchor-18" 0 0 basechar 0
AnchorPoint: "Anchor-17" 0 0 basechar 0
AnchorPoint: "Anchor-16" 286 523 basechar 0
AnchorPoint: "Anchor-15" 0 0 basechar 0
AnchorPoint: "Anchor-14" 283 0 basechar 0
LayerCount: 2
Fore
SplineSet
365 521.5 m 128,-1,1
 400 509 400 509 433 481 c 1,2,-1
 404 443 l 1,3,4
 378 464 378 464 350.5 474 c 128,-1,5
 323 484 323 484 288 484 c 0,6,7
 214 484 214 484 170 426.5 c 128,-1,8
 126 369 126 369 126 259 c 0,9,10
 126 150 126 150 169.5 95 c 128,-1,11
 213 40 213 40 287 40 c 0,12,13
 322 40 322 40 350.5 51 c 128,-1,14
 379 62 379 62 408 84 c 1,15,-1
 436 45 l 1,16,17
 370 -11 370 -11 286 -11 c 0,18,19
 219 -11 219 -11 169 21 c 128,-1,20
 119 53 119 53 91.5 113.5 c 128,-1,21
 64 174 64 174 64 258 c 0,22,23
 64 341 64 341 91.5 403.5 c 128,-1,24
 119 466 119 466 169 500 c 128,-1,25
 219 534 219 534 285 534 c 0,26,0
 330 534 330 534 365 521.5 c 128,-1,1
EndSplineSet
Substitution2: "'smcp' Lowercase to Small Capitals lookup 27 subtable" c.sc
Substitution2: "'aalt' Access All Alternates lookup 0 subtable" c.sc
EndChar

StartChar: ccedilla
Encoding: 231 231 391
Width: 469
GlyphClass: 2
Flags: W
AnchorPoint: "Anchor-18" 0 0 basechar 0
AnchorPoint: "Anchor-17" 0 0 basechar 0
AnchorPoint: "Anchor-16" 286 523 basechar 0
AnchorPoint: "Anchor-15" 0 0 basechar 0
AnchorPoint: "Anchor-14" 300 -227 basechar 0
LayerCount: 2
Fore
SplineSet
367.5 -88 m 128,-1,1
 390 -108 390 -108 390 -140 c 0,2,3
 390 -181 390 -181 360 -204 c 128,-1,4
 330 -227 330 -227 285 -227 c 0,5,6
 237 -227 237 -227 205 -206 c 1,7,-1
 223 -170 l 1,8,9
 250 -185 250 -185 284 -185 c 0,10,11
 308 -185 308 -185 323.5 -174 c 128,-1,12
 339 -163 339 -163 339 -140 c 0,13,14
 339 -118 339 -118 317.5 -107 c 128,-1,15
 296 -96 296 -96 250 -96 c 1,16,-1
 258 -9 l 1,17,18
 168 1 168 1 116 71 c 128,-1,19
 64 141 64 141 64 258 c 0,20,21
 64 341 64 341 91.5 403.5 c 128,-1,22
 119 466 119 466 169 500 c 128,-1,23
 219 534 219 534 285 534 c 0,24,25
 330 534 330 534 365 521.5 c 128,-1,26
 400 509 400 509 433 481 c 1,27,-1
 404 443 l 1,28,29
 378 464 378 464 350.5 474 c 128,-1,30
 323 484 323 484 288 484 c 0,31,32
 214 484 214 484 170 426.5 c 128,-1,33
 126 369 126 369 126 259 c 0,34,35
 126 150 126 150 169.5 95 c 128,-1,36
 213 40 213 40 287 40 c 0,37,38
 322 40 322 40 350.5 51 c 128,-1,39
 379 62 379 62 408 84 c 1,40,-1
 436 45 l 1,41,42
 377 -7 377 -7 298 -11 c 1,43,-1
 298 -64 l 1,44,0
 345 -68 345 -68 367.5 -88 c 128,-1,1
EndSplineSet
Substitution2: "'smcp' Lowercase to Small Capitals lookup 27 subtable" ccedilla.sc
Substitution2: "'aalt' Access All Alternates lookup 0 subtable" ccedilla.sc
EndChar

StartChar: uni0255
Encoding: 597 597 393
Width: 480
GlyphClass: 2
Flags: W
AnchorPoint: "Anchor-18" 0 0 basechar 0
AnchorPoint: "Anchor-17" 0 0 basechar 0
AnchorPoint: "Anchor-16" 286 523 basechar 0
AnchorPoint: "Anchor-15" 0 0 basechar 0
AnchorPoint: "Anchor-14" 286 -9 basechar 0
LayerCount: 2
Fore
SplineSet
422.5 190 m 128,-1,1
 452 162 452 162 452 116 c 0,2,3
 452 57 452 57 407.5 23 c 128,-1,4
 363 -11 363 -11 289 -11 c 0,5,6
 239 -11 239 -11 199 6 c 1,7,-1
 166 -65 l 1,8,-1
 125 -48 l 1,9,-1
 160 27 l 1,10,11
 114 60 114 60 89 119 c 128,-1,12
 64 178 64 178 64 258 c 0,13,14
 64 341 64 341 91.5 403.5 c 128,-1,15
 119 466 119 466 169 500 c 128,-1,16
 219 534 219 534 285 534 c 0,17,18
 330 534 330 534 365 521.5 c 128,-1,19
 400 509 400 509 433 481 c 1,20,-1
 404 442 l 1,21,22
 378 464 378 464 350.5 474 c 128,-1,23
 323 484 323 484 288 484 c 0,24,25
 214 484 214 484 170 426.5 c 128,-1,26
 126 369 126 369 126 259 c 0,27,28
 126 136 126 136 184 78 c 1,29,30
 218 154 218 154 254.5 186 c 128,-1,31
 291 218 291 218 343 218 c 0,32,0
 393 218 393 218 422.5 190 c 128,-1,1
369.5 58.5 m 128,-1,34
 399 77 399 77 399 116 c 0,35,36
 399 143 399 143 384.5 157.5 c 128,-1,37
 370 172 370 172 341 172 c 0,38,39
 304 172 304 172 279 147.5 c 128,-1,40
 254 123 254 123 222 54 c 1,41,42
 253 40 253 40 293 40 c 0,43,33
 340 40 340 40 369.5 58.5 c 128,-1,34
EndSplineSet
EndChar

StartChar: uni0188
Encoding: 392 392 395
Width: 469
GlyphClass: 2
Flags: W
AnchorPoint: "Anchor-18" 0 0 basechar 0
AnchorPoint: "Anchor-17" 0 0 basechar 0
AnchorPoint: "Anchor-16" 235 736 basechar 0
AnchorPoint: "Anchor-15" 0 0 basechar 0
AnchorPoint: "Anchor-14" 235 0 basechar 0
LayerCount: 2
Fore
SplineSet
602 709 m 1,1,-1
 578 672 l 1,2,3
 558 684 558 684 541.5 689.5 c 128,-1,4
 525 695 525 695 502 695 c 0,5,6
 433 695 433 695 433 612 c 2,7,-1
 433 481 l 1,8,-1
 408 448 l 1,9,10
 380 466 380 466 352 475 c 128,-1,11
 324 484 324 484 288 484 c 0,12,13
 214 484 214 484 170 426.5 c 128,-1,14
 126 369 126 369 126 259 c 0,15,16
 126 150 126 150 169.5 95 c 128,-1,17
 213 40 213 40 287 40 c 0,18,19
 322 40 322 40 350.5 51 c 128,-1,20
 379 62 379 62 408 84 c 1,21,-1
 436 45 l 1,22,23
 370 -11 370 -11 286 -11 c 0,24,25
 219 -11 219 -11 169 21 c 128,-1,26
 119 53 119 53 91.5 113.5 c 128,-1,27
 64 174 64 174 64 258 c 0,28,29
 64 341 64 341 91.5 403.5 c 128,-1,30
 119 466 119 466 169 500 c 128,-1,31
 219 534 219 534 285 534 c 0,32,33
 335 534 335 534 375 514 c 1,34,-1
 375 609 l 2,35,36
 375 675 375 675 408.5 709 c 128,-1,37
 442 743 442 743 500 743 c 256,38,0
 558 743 558 743 602 709 c 1,1,-1
EndSplineSet
Substitution2: "'smcp' Lowercase to Small Capitals lookup 27 subtable" uni0188.sc
Substitution2: "'aalt' Access All Alternates lookup 0 subtable" uni0188.sc
EndChar

StartChar: uni0297
Encoding: 663 663 396
Width: 488
GlyphClass: 2
Flags: W
AnchorPoint: "Anchor-18" 0 0 basechar 0
AnchorPoint: "Anchor-17" 0 0 basechar 0
AnchorPoint: "Anchor-16" 308 523 basechar 0
AnchorPoint: "Anchor-15" 0 0 basechar 0
AnchorPoint: "Anchor-14" 307 -197 basechar 0
LayerCount: 2
Fore
SplineSet
385.5 521.5 m 128,-1,1
 419 509 419 509 452 481 c 1,2,-1
 424 443 l 1,3,4
 398 464 398 464 371 474 c 128,-1,5
 344 484 344 484 311 484 c 0,6,7
 234 484 234 484 190 402 c 128,-1,8
 146 320 146 320 146 160 c 0,9,10
 146 2 146 2 189.5 -77.5 c 128,-1,11
 233 -157 233 -157 308 -157 c 0,12,13
 342 -157 342 -157 370.5 -146 c 128,-1,14
 399 -135 399 -135 427 -112 c 1,15,-1
 456 -152 l 1,16,17
 389 -208 389 -208 308 -208 c 0,18,19
 239 -208 239 -208 188.5 -165.5 c 128,-1,20
 138 -123 138 -123 110.5 -40.5 c 128,-1,21
 83 42 83 42 83 159 c 256,22,23
 83 276 83 276 110.5 360.5 c 128,-1,24
 138 445 138 445 189.5 489.5 c 128,-1,25
 241 534 241 534 311 534 c 0,26,0
 352 534 352 534 385.5 521.5 c 128,-1,1
EndSplineSet
EndChar

StartChar: uni023C
Encoding: 572 572 397
Width: 469
GlyphClass: 2
Flags: W
AnchorPoint: "Anchor-18" 0 0 basechar 0
AnchorPoint: "Anchor-17" 0 0 basechar 0
AnchorPoint: "Anchor-16" 286 523 basechar 0
AnchorPoint: "Anchor-15" 0 0 basechar 0
AnchorPoint: "Anchor-14" 283 0 basechar 0
LayerCount: 2
Fore
SplineSet
286 -11 m 0,1,2
 247 -11 247 -11 216 -1 c 1,3,-1
 197 -70 l 1,4,-1
 165 -62 l 1,5,-1
 185 12 l 1,6,7
 128 41 128 41 96 104.5 c 128,-1,8
 64 168 64 168 64 258 c 0,9,10
 64 341 64 341 91.5 403.5 c 128,-1,11
 119 466 119 466 169 500 c 128,-1,12
 219 534 219 534 285 534 c 0,13,14
 308 534 308 534 328 531 c 1,15,-1
 345 592 l 1,16,-1
 376 583 l 1,17,-1
 360 523 l 1,18,19
 398 511 398 511 433 481 c 1,20,-1
 404 443 l 1,21,22
 379 464 379 464 346 475 c 1,23,-1
 230 50 l 1,24,25
 254 40 254 40 287 40 c 0,26,27
 322 40 322 40 350.5 51 c 128,-1,28
 379 62 379 62 408 84 c 1,29,-1
 436 45 l 1,30,0
 370 -11 370 -11 286 -11 c 0,1,2
200 65 m 1,32,-1
 315 482 l 1,33,34
 297 484 297 484 288 484 c 0,35,36
 214 484 214 484 170 426.5 c 128,-1,37
 126 369 126 369 126 259 c 0,38,31
 126 118 126 118 200 65 c 1,32,-1
EndSplineSet
Substitution2: "'smcp' Lowercase to Small Capitals lookup 27 subtable" uni023C.sc
Substitution2: "'aalt' Access All Alternates lookup 0 subtable" uni023C.sc
EndChar

StartChar: d
Encoding: 100 100 398
Width: 585
GlyphClass: 2
Flags: W
AnchorPoint: "Anchor-18" 298 262 basechar 0
AnchorPoint: "Anchor-17" 500 736 basechar 0
AnchorPoint: "Anchor-16" 289 736 basechar 0
AnchorPoint: "Anchor-15" 0 0 basechar 0
AnchorPoint: "Anchor-14" 303 0 basechar 0
LayerCount: 2
Fore
SplineSet
479 736 m 1,0,-1
 479 0 l 1,1,-1
 429 0 l 1,2,-1
 422 80 l 1,3,4
 368 -11 368 -11 265 -11 c 0,5,6
 174 -11 174 -11 121.5 61.5 c 128,-1,7
 69 134 69 134 69 259 c 0,8,9
 69 340 69 340 93.5 402 c 128,-1,10
 118 464 118 464 164.5 499 c 128,-1,11
 211 534 211 534 274 534 c 0,12,13
 363 534 363 534 421 463 c 1,14,-1
 421 743 l 1,15,-1
 479 736 l 1,0,-1
358.5 61 m 128,-1,17
 393 85 393 85 421 134 c 1,18,-1
 421 407 l 1,19,20
 365 486 365 486 284 486 c 0,21,22
 213 486 213 486 171.5 427 c 128,-1,23
 130 368 130 368 131 260 c 0,24,25
 131 152 131 152 169 94.5 c 128,-1,26
 207 37 207 37 274 37 c 0,27,16
 324 37 324 37 358.5 61 c 128,-1,17
EndSplineSet
Substitution2: "'smcp' Lowercase to Small Capitals lookup 27 subtable" d.sc
Substitution2: "'aalt' Access All Alternates lookup 0 subtable" d.sc
EndChar

StartChar: eth
Encoding: 240 240 399
Width: 556
GlyphClass: 2
Flags: W
AnchorPoint: "Anchor-18" 0 0 basechar 0
AnchorPoint: "Anchor-17" 0 0 basechar 0
AnchorPoint: "Anchor-16" 292 736 basechar 0
AnchorPoint: "Anchor-15" 0 0 basechar 0
AnchorPoint: "Anchor-14" 273 0 basechar 0
LayerCount: 2
Fore
SplineSet
448 508.5 m 128,-1,1
 487 417 487 417 487 280 c 0,2,3
 487 141 487 141 429 65 c 128,-1,4
 371 -11 371 -11 273 -11 c 0,5,6
 178 -11 178 -11 121 54.5 c 128,-1,7
 64 120 64 120 64 233 c 0,8,9
 64 295 64 295 86.5 348.5 c 128,-1,10
 109 402 109 402 153 435 c 128,-1,11
 197 468 197 468 259 468 c 0,12,13
 354 468 354 468 421 388 c 1,14,15
 410 464 410 464 378.5 522.5 c 128,-1,16
 347 581 347 581 289 628 c 1,17,-1
 212 551 l 1,18,-1
 170 570 l 1,19,-1
 250 653 l 1,20,21
 184 687 184 687 128 698 c 1,22,-1
 141 744 l 1,23,24
 218 729 218 729 286 689 c 1,25,-1
 355 762 l 1,26,-1
 390 731 l 1,27,-1
 324 664 l 1,28,0
 409 600 409 600 448 508.5 c 128,-1,1
387 100 m 128,-1,30
 428 163 428 163 428 282 c 0,31,32
 428 302 428 302 426 330 c 1,33,34
 360 421 360 421 267 421 c 0,35,36
 197 421 197 421 160.5 368.5 c 128,-1,37
 124 316 124 316 124 234 c 0,38,39
 124 140 124 140 163.5 88.5 c 128,-1,40
 203 37 203 37 273 37 c 0,41,29
 346 37 346 37 387 100 c 128,-1,30
EndSplineSet
Substitution2: "'smcp' Lowercase to Small Capitals lookup 27 subtable" eth.sc
Substitution2: "'aalt' Access All Alternates lookup 0 subtable" eth.sc
EndChar

StartChar: uni0238
Encoding: 568 568 400
Width: 856
GlyphClass: 2
Flags: W
AnchorPoint: "Anchor-18" 0 0 basechar 0
AnchorPoint: "Anchor-17" 0 0 basechar 0
AnchorPoint: "Anchor-16" 430 736 basechar 0
AnchorPoint: "Anchor-15" 0 0 basechar 0
AnchorPoint: "Anchor-14" 428 0 basechar 0
LayerCount: 2
Fore
SplineSet
739 463.5 m 128,-1,1
 787 393 787 393 787 264 c 0,2,3
 787 138 787 138 736 63.5 c 128,-1,4
 685 -11 685 -11 598 -11 c 0,5,6
 552 -11 552 -11 516.5 14.5 c 128,-1,7
 481 40 481 40 458 81 c 1,8,-1
 452 0 l 1,9,-1
 409 0 l 1,10,-1
 402 80 l 1,11,12
 377 38 377 38 340 13.5 c 128,-1,13
 303 -11 303 -11 255 -11 c 0,14,15
 199 -11 199 -11 157 22 c 128,-1,16
 115 55 115 55 92 116 c 128,-1,17
 69 177 69 177 69 259 c 0,18,19
 69 339 69 339 93 401.5 c 128,-1,20
 117 464 117 464 161 499 c 128,-1,21
 205 534 205 534 264 534 c 0,22,23
 346 534 346 534 401 454 c 1,24,-1
 401 736 l 1,25,-1
 459 743 l 1,26,-1
 459 450 l 1,27,28
 520 534 520 534 608 534 c 0,29,0
 691 534 691 534 739 463.5 c 128,-1,1
340 61 m 128,-1,31
 373 85 373 85 401 134 c 1,32,-1
 401 401 l 1,33,34
 371 443 371 443 341 464.5 c 128,-1,35
 311 486 311 486 272 486 c 0,36,37
 231 486 231 486 199 459.5 c 128,-1,38
 167 433 167 433 149 382 c 128,-1,39
 131 331 131 331 131 260 c 0,40,41
 131 153 131 153 167.5 95 c 128,-1,42
 204 37 204 37 264 37 c 0,43,30
 307 37 307 37 340 61 c 128,-1,31
688.5 95 m 128,-1,45
 725 153 725 153 725 264 c 0,46,47
 725 376 725 376 691.5 431 c 128,-1,48
 658 486 658 486 597 486 c 0,49,50
 553 486 553 486 521 463 c 128,-1,51
 489 440 489 440 459 397 c 1,52,-1
 459 138 l 1,53,54
 486 88 486 88 517 62.5 c 128,-1,55
 548 37 548 37 591 37 c 0,56,44
 652 37 652 37 688.5 95 c 128,-1,45
EndSplineSet
EndChar

StartChar: dcroat
Encoding: 273 273 403
Width: 591
GlyphClass: 2
Flags: W
AnchorPoint: "Anchor-18" 298 262 basechar 0
AnchorPoint: "Anchor-17" 500 736 basechar 0
AnchorPoint: "Anchor-16" 289 736 basechar 0
AnchorPoint: "Anchor-15" 0 0 basechar 0
AnchorPoint: "Anchor-14" 303 0 basechar 0
LayerCount: 2
Fore
SplineSet
556 663 m 1,0,-1
 556 616 l 1,1,-1
 479 616 l 1,2,-1
 479 0 l 1,3,-1
 429 0 l 1,4,-1
 422 80 l 1,5,6
 368 -11 368 -11 265 -11 c 0,7,8
 174 -11 174 -11 121.5 61.5 c 128,-1,9
 69 134 69 134 69 259 c 0,10,11
 69 340 69 340 93.5 402 c 128,-1,12
 118 464 118 464 164.5 499 c 128,-1,13
 211 534 211 534 274 534 c 0,14,15
 363 534 363 534 421 463 c 1,16,-1
 421 616 l 1,17,-1
 257 616 l 1,18,-1
 257 663 l 1,19,-1
 421 663 l 1,20,-1
 421 743 l 1,21,-1
 479 736 l 1,22,-1
 479 663 l 1,23,-1
 556 663 l 1,0,-1
358.5 61 m 128,-1,25
 393 85 393 85 421 134 c 1,26,-1
 421 407 l 1,27,28
 365 486 365 486 284 486 c 0,29,30
 213 486 213 486 171.5 427 c 128,-1,31
 130 368 130 368 131 260 c 0,32,33
 131 152 131 152 169 94.5 c 128,-1,34
 207 37 207 37 274 37 c 0,35,24
 324 37 324 37 358.5 61 c 128,-1,25
EndSplineSet
Substitution2: "'smcp' Lowercase to Small Capitals lookup 27 subtable" dcroat.sc
Substitution2: "'aalt' Access All Alternates lookup 0 subtable" dcroat.sc
EndChar

StartChar: uni0221
Encoding: 545 545 404
Width: 694
GlyphClass: 2
Flags: W
AnchorPoint: "Anchor-18" 0 0 basechar 0
AnchorPoint: "Anchor-17" 0 0 basechar 0
AnchorPoint: "Anchor-16" 347 736 basechar 0
AnchorPoint: "Anchor-15" 0 0 basechar 0
AnchorPoint: "Anchor-14" 347 -197 basechar 0
LayerCount: 2
Fore
SplineSet
691.5 176 m 128,-1,1
 719 150 719 150 719 109 c 0,2,3
 719 55 719 55 677.5 22 c 128,-1,4
 636 -11 636 -11 571 -11 c 0,5,6
 525 -11 525 -11 487 9 c 1,7,-1
 451 -65 l 1,8,-1
 410 -48 l 1,9,-1
 453 37 l 1,10,11
 434 59 434 59 427 87 c 1,12,13
 372 -11 372 -11 265 -11 c 0,14,15
 174 -11 174 -11 121.5 61.5 c 128,-1,16
 69 134 69 134 69 259 c 0,17,18
 69 340 69 340 93.5 402 c 128,-1,19
 118 464 118 464 164.5 499 c 128,-1,20
 211 534 211 534 274 534 c 0,21,22
 363 534 363 534 421 463 c 1,23,-1
 421 743 l 1,24,-1
 479 736 l 1,25,-1
 479 127 l 2,26,27
 479 110 479 110 482 95 c 1,28,29
 507 148 507 148 539 175 c 128,-1,30
 571 202 571 202 619 202 c 0,31,0
 664 202 664 202 691.5 176 c 128,-1,1
358.5 61 m 128,-1,33
 393 85 393 85 421 134 c 1,34,-1
 421 407 l 1,35,36
 365 486 365 486 284 486 c 0,37,38
 213 486 213 486 171.5 427 c 128,-1,39
 130 368 130 368 131 260 c 0,40,41
 131 152 131 152 169 94.5 c 128,-1,42
 207 37 207 37 274 37 c 0,43,32
 324 37 324 37 358.5 61 c 128,-1,33
641 58 m 128,-1,45
 666 76 666 76 666 109 c 0,46,47
 666 131 666 131 652.5 144 c 128,-1,48
 639 157 639 157 616 157 c 0,49,50
 582 157 582 157 559 134 c 128,-1,51
 536 111 536 111 508 54 c 1,52,53
 531 40 531 40 571 40 c 0,54,44
 616 40 616 40 641 58 c 128,-1,45
EndSplineSet
EndChar

StartChar: uni018D
Encoding: 397 397 407
Width: 567
GlyphClass: 2
Flags: W
AnchorPoint: "Anchor-18" 0 0 basechar 0
AnchorPoint: "Anchor-17" 0 0 basechar 0
AnchorPoint: "Anchor-16" 284 523 basechar 0
AnchorPoint: "Anchor-15" 0 0 basechar 0
AnchorPoint: "Anchor-14" 284 -197 basechar 0
LayerCount: 2
Fore
SplineSet
424 -1.5 m 128,-1,1
 448 -33 448 -33 449 -79 c 0,2,3
 449 -115 449 -115 429 -145 c 128,-1,4
 409 -175 409 -175 371 -192.5 c 128,-1,5
 333 -210 333 -210 283 -210 c 256,6,7
 233 -210 233 -210 194 -197.5 c 128,-1,8
 155 -185 155 -185 119 -161 c 1,9,-1
 150 -124 l 1,10,11
 182 -145 182 -145 210.5 -153.5 c 128,-1,12
 239 -162 239 -162 277 -162 c 0,13,14
 331 -162 331 -162 360 -138.5 c 128,-1,15
 389 -115 389 -115 389 -78 c 0,16,17
 389 -52 389 -52 378 -34 c 128,-1,18
 367 -16 367 -16 339 1 c 128,-1,19
 311 18 311 18 256 40 c 0,20,21
 155 80 155 80 109.5 136 c 128,-1,22
 64 192 64 192 64 289 c 0,23,24
 64 359 64 359 90.5 415 c 128,-1,25
 117 471 117 471 167 502.5 c 128,-1,26
 217 534 217 534 286 534 c 0,27,28
 386 534 386 534 444.5 469 c 128,-1,29
 503 404 503 404 503 291 c 0,30,31
 503 207 503 207 461 148.5 c 128,-1,32
 419 90 419 90 344 56 c 1,33,0
 400 30 400 30 424 -1.5 c 128,-1,1
142 193.5 m 128,-1,35
 158 156 158 156 196 128 c 128,-1,36
 234 100 234 100 302 73 c 1,37,38
 442 139 442 139 442 291 c 0,39,40
 442 384 442 384 401.5 434.5 c 128,-1,41
 361 485 361 485 286 485 c 0,42,43
 209 485 209 485 167.5 433.5 c 128,-1,44
 126 382 126 382 126 289 c 0,45,34
 126 231 126 231 142 193.5 c 128,-1,35
EndSplineSet
EndChar

StartChar: uni02A4
Encoding: 676 676 408
Width: 905
GlyphClass: 2
Flags: W
AnchorPoint: "Anchor-18" 298 262 basechar 0
AnchorPoint: "Anchor-17" 500 736 basechar 0
AnchorPoint: "Anchor-16" 537 736 basechar 0
AnchorPoint: "Anchor-15" 0 0 basechar 0
AnchorPoint: "Anchor-14" 651 -197 basechar 0
LayerCount: 2
Fore
SplineSet
815 150 m 128,-1,1
 873 100 873 100 873 4 c 0,2,3
 873 -58 873 -58 846 -105 c 128,-1,4
 819 -152 819 -152 769 -178.5 c 128,-1,5
 719 -205 719 -205 652 -205 c 0,6,7
 588 -205 588 -205 541 -183.5 c 128,-1,8
 494 -162 494 -162 455 -119 c 1,9,-1
 490 -87 l 1,10,11
 526 -124 526 -124 564 -140 c 128,-1,12
 602 -156 602 -156 651 -156 c 0,13,14
 729 -156 729 -156 770 -113.5 c 128,-1,15
 811 -71 811 -71 811 5 c 0,16,17
 811 84 811 84 768 119 c 128,-1,18
 725 154 725 154 631 154 c 2,19,-1
 567 154 l 1,20,-1
 567 200 l 1,21,-1
 780 473 l 1,22,-1
 479 473 l 1,23,-1
 479 0 l 1,24,-1
 429 0 l 1,25,-1
 422 80 l 1,26,27
 368 -11 368 -11 265 -11 c 0,28,29
 174 -11 174 -11 121.5 61.5 c 128,-1,30
 69 134 69 134 69 259 c 0,31,32
 69 340 69 340 93.5 402 c 128,-1,33
 118 464 118 464 164.5 499 c 128,-1,34
 211 534 211 534 274 534 c 0,35,36
 363 534 363 534 421 463 c 1,37,-1
 421 743 l 1,38,-1
 479 736 l 1,39,-1
 479 523 l 1,40,-1
 848 523 l 1,41,-1
 848 478 l 1,42,-1
 628 200 l 1,43,-1
 640 200 l 2,44,0
 757 200 757 200 815 150 c 128,-1,1
358.5 61 m 128,-1,46
 393 85 393 85 421 134 c 1,47,-1
 421 407 l 1,48,49
 365 486 365 486 284 486 c 0,50,51
 213 486 213 486 171.5 427 c 128,-1,52
 130 368 130 368 131 260 c 0,53,54
 131 152 131 152 169 94.5 c 128,-1,55
 207 37 207 37 274 37 c 0,56,45
 324 37 324 37 358.5 61 c 128,-1,46
EndSplineSet
EndChar

StartChar: uni0257
Encoding: 599 599 409
Width: 585
GlyphClass: 2
Flags: W
AnchorPoint: "Anchor-18" 0 0 basechar 0
AnchorPoint: "Anchor-17" 0 0 basechar 0
AnchorPoint: "Anchor-16" 307 736 basechar 0
AnchorPoint: "Anchor-15" 0 0 basechar 0
AnchorPoint: "Anchor-14" 293 0 basechar 0
LayerCount: 2
Fore
SplineSet
648 709 m 1,1,-1
 624 672 l 1,2,3
 604 684 604 684 587.5 689.5 c 128,-1,4
 571 695 571 695 548 695 c 0,5,6
 479 695 479 695 479 612 c 2,7,-1
 479 0 l 1,8,-1
 429 0 l 1,9,-1
 422 80 l 1,10,11
 368 -11 368 -11 265 -11 c 0,12,13
 174 -11 174 -11 121.5 61.5 c 128,-1,14
 69 134 69 134 69 259 c 0,15,16
 69 340 69 340 93.5 402 c 128,-1,17
 118 464 118 464 164.5 499 c 128,-1,18
 211 534 211 534 274 534 c 0,19,20
 363 534 363 534 421 463 c 1,21,-1
 421 609 l 2,22,23
 421 675 421 675 454.5 709 c 128,-1,24
 488 743 488 743 546 743 c 256,25,0
 604 743 604 743 648 709 c 1,1,-1
358.5 61 m 128,-1,27
 393 85 393 85 421 134 c 1,28,-1
 421 407 l 1,29,30
 365 486 365 486 284 486 c 0,31,32
 213 486 213 486 171.5 427 c 128,-1,33
 130 368 130 368 131 260 c 0,34,35
 131 152 131 152 169 94.5 c 128,-1,36
 207 37 207 37 274 37 c 0,37,26
 324 37 324 37 358.5 61 c 128,-1,27
EndSplineSet
Substitution2: "'smcp' Lowercase to Small Capitals lookup 27 subtable" uni0257.sc
Substitution2: "'aalt' Access All Alternates lookup 0 subtable" uni0257.sc
EndChar

StartChar: uni0256
Encoding: 598 598 411
Width: 585
GlyphClass: 2
Flags: W
AnchorPoint: "Anchor-18" 0 0 basechar 0
AnchorPoint: "Anchor-17" 0 0 basechar 0
AnchorPoint: "Anchor-16" 450 736 basechar 0
AnchorPoint: "Anchor-15" 0 0 basechar 0
AnchorPoint: "Anchor-14" 293 -197 basechar 0
LayerCount: 2
Fore
SplineSet
648 -171 m 1,0,1
 604 -205 604 -205 546 -205 c 0,2,3
 489 -205 489 -205 455 -171 c 128,-1,4
 421 -137 421 -137 421 -71 c 2,5,-1
 421 78 l 1,6,7
 367 -11 367 -11 265 -11 c 0,8,9
 174 -11 174 -11 121.5 61.5 c 128,-1,10
 69 134 69 134 69 259 c 0,11,12
 69 340 69 340 93.5 402 c 128,-1,13
 118 464 118 464 164.5 499 c 128,-1,14
 211 534 211 534 274 534 c 0,15,16
 363 534 363 534 421 463 c 1,17,-1
 421 743 l 1,18,-1
 479 736 l 1,19,-1
 479 -74 l 2,20,21
 479 -157 479 -157 548 -157 c 0,22,23
 572 -157 572 -157 588.5 -151.5 c 128,-1,24
 605 -146 605 -146 624 -134 c 1,25,-1
 648 -171 l 1,0,1
358.5 61 m 128,-1,27
 393 85 393 85 421 134 c 1,28,-1
 421 407 l 1,29,30
 365 486 365 486 284 486 c 0,31,32
 213 486 213 486 171.5 427 c 128,-1,33
 130 368 130 368 131 260 c 0,34,35
 131 152 131 152 169 94.5 c 128,-1,36
 207 37 207 37 274 37 c 0,37,26
 324 37 324 37 358.5 61 c 128,-1,27
EndSplineSet
Substitution2: "'smcp' Lowercase to Small Capitals lookup 27 subtable" uni0256.sc
Substitution2: "'aalt' Access All Alternates lookup 0 subtable" uni0256.sc
EndChar

StartChar: uni018C
Encoding: 396 396 412
Width: 585
GlyphClass: 2
Flags: W
AnchorPoint: "Anchor-18" 0 0 basechar 0
AnchorPoint: "Anchor-17" 0 0 basechar 0
AnchorPoint: "Anchor-16" 293 736 basechar 0
AnchorPoint: "Anchor-15" 0 0 basechar 0
AnchorPoint: "Anchor-14" 293 0 basechar 0
LayerCount: 2
Fore
SplineSet
479 0 m 1,0,-1
 429 0 l 1,1,-1
 422 80 l 1,2,3
 368 -11 368 -11 265 -11 c 0,4,5
 174 -11 174 -11 121.5 61.5 c 128,-1,6
 69 134 69 134 69 259 c 0,7,8
 69 340 69 340 93.5 402 c 128,-1,9
 118 464 118 464 164.5 499 c 128,-1,10
 211 534 211 534 274 534 c 0,11,12
 363 534 363 534 421 463 c 1,13,-1
 421 689 l 1,14,-1
 190 689 l 1,15,-1
 190 736 l 1,16,-1
 479 736 l 1,17,-1
 479 0 l 1,0,-1
358.5 61 m 128,-1,19
 393 85 393 85 421 134 c 1,20,-1
 421 407 l 1,21,22
 365 486 365 486 284 486 c 0,23,24
 213 486 213 486 171.5 427 c 128,-1,25
 130 368 130 368 131 260 c 0,26,27
 131 152 131 152 169 94.5 c 128,-1,28
 207 37 207 37 274 37 c 0,29,18
 324 37 324 37 358.5 61 c 128,-1,19
EndSplineSet
Substitution2: "'smcp' Lowercase to Small Capitals lookup 27 subtable" uni018C.sc
Substitution2: "'aalt' Access All Alternates lookup 0 subtable" uni018C.sc
EndChar

StartChar: uni02A3
Encoding: 675 675 414
Width: 879
GlyphClass: 2
Flags: W
AnchorPoint: "Anchor-18" 298 262 basechar 0
AnchorPoint: "Anchor-17" 500 736 basechar 0
AnchorPoint: "Anchor-16" 439 736 basechar 0
AnchorPoint: "Anchor-15" 0 0 basechar 0
AnchorPoint: "Anchor-14" 439 0 basechar 0
LayerCount: 2
Fore
SplineSet
845 478 m 1,0,-1
 544 50 l 1,1,-1
 843 50 l 1,2,-1
 836 0 l 1,3,-1
 429 0 l 1,4,-1
 422 80 l 1,5,6
 368 -11 368 -11 265 -11 c 0,7,8
 174 -11 174 -11 121.5 61.5 c 128,-1,9
 69 134 69 134 69 259 c 0,10,11
 69 340 69 340 93.5 402 c 128,-1,12
 118 464 118 464 164.5 499 c 128,-1,13
 211 534 211 534 274 534 c 0,14,15
 363 534 363 534 421 463 c 1,16,-1
 421 743 l 1,17,-1
 479 736 l 1,18,-1
 479 523 l 1,19,-1
 845 523 l 1,20,-1
 845 478 l 1,0,-1
358.5 61 m 128,-1,22
 393 85 393 85 421 134 c 1,23,-1
 421 407 l 1,24,25
 365 486 365 486 284 486 c 0,26,27
 213 486 213 486 171.5 427 c 128,-1,28
 130 368 130 368 131 260 c 0,29,30
 131 152 131 152 169 94.5 c 128,-1,31
 207 37 207 37 274 37 c 0,32,21
 324 37 324 37 358.5 61 c 128,-1,22
479 45 m 1,33,-1
 779 473 l 1,34,-1
 479 473 l 1,35,-1
 479 45 l 1,33,-1
EndSplineSet
EndChar

StartChar: uni02A5
Encoding: 677 677 416
Width: 888
GlyphClass: 2
Flags: W
AnchorPoint: "Anchor-18" 298 262 basechar 0
AnchorPoint: "Anchor-17" 500 736 basechar 0
AnchorPoint: "Anchor-16" 444 736 basechar 0
AnchorPoint: "Anchor-15" 0 0 basechar 0
AnchorPoint: "Anchor-14" 444 -197 basechar 0
LayerCount: 2
Fore
SplineSet
862.5 27.5 m 128,-1,1
 817 0 817 0 723 0 c 1,2,3
 719 -33 719 -33 719 -75 c 2,4,-1
 720 -111 l 1,5,-1
 674 -111 l 1,6,7
 673 -56 673 -56 677 0 c 1,8,-1
 429 0 l 1,9,-1
 422 80 l 1,10,11
 368 -11 368 -11 265 -11 c 0,12,13
 174 -11 174 -11 121.5 61.5 c 128,-1,14
 69 134 69 134 69 259 c 0,15,16
 69 340 69 340 93.5 402 c 128,-1,17
 118 464 118 464 164.5 499 c 128,-1,18
 211 534 211 534 274 534 c 0,19,20
 363 534 363 534 421 463 c 1,21,-1
 421 743 l 1,22,-1
 479 736 l 1,23,-1
 479 523 l 1,24,-1
 845 523 l 1,25,-1
 845 478 l 1,26,-1
 547 50 l 1,27,-1
 683 50 l 1,28,29
 692 125 692 125 725 164.5 c 128,-1,30
 758 204 758 204 813 204 c 0,31,32
 855 204 855 204 881.5 179.5 c 128,-1,33
 908 155 908 155 908 112 c 0,34,0
 908 55 908 55 862.5 27.5 c 128,-1,1
358.5 61 m 128,-1,36
 393 85 393 85 421 134 c 1,37,-1
 421 407 l 1,38,39
 365 486 365 486 284 486 c 0,40,41
 213 486 213 486 171.5 427 c 128,-1,42
 130 368 130 368 131 260 c 0,43,44
 131 152 131 152 169 94.5 c 128,-1,45
 207 37 207 37 274 37 c 0,46,35
 324 37 324 37 358.5 61 c 128,-1,36
479 473 m 1,47,-1
 479 45 l 1,48,-1
 777 473 l 1,49,-1
 479 473 l 1,47,-1
729 50 m 1,51,52
 798 49 798 49 827.5 63.5 c 128,-1,53
 857 78 857 78 857 113 c 0,54,55
 857 136 857 136 844.5 149 c 128,-1,56
 832 162 832 162 809 162 c 0,57,50
 744 162 744 162 729 50 c 1,51,52
EndSplineSet
EndChar

StartChar: e
Encoding: 101 101 417
Width: 536
GlyphClass: 2
Flags: W
AnchorPoint: "Anchor-18" 0 0 basechar 0
AnchorPoint: "Anchor-17" 0 0 basechar 0
AnchorPoint: "Anchor-16" 276 523 basechar 0
AnchorPoint: "Anchor-15" 386 5 basechar 0
AnchorPoint: "Anchor-14" 289 0 basechar 0
LayerCount: 2
Fore
SplineSet
475 239 m 1,1,-1
 126 239 l 1,2,3
 131 137 131 137 174.5 87.5 c 128,-1,4
 218 38 218 38 289 38 c 0,5,6
 330 38 330 38 361.5 50.5 c 128,-1,7
 393 63 393 63 430 90 c 1,8,-1
 457 53 l 1,9,10
 418 21 418 21 377 5 c 128,-1,11
 336 -11 336 -11 286 -11 c 0,12,13
 182 -11 182 -11 123 60 c 128,-1,14
 64 131 64 131 64 257 c 0,15,16
 64 340 64 340 89.5 402.5 c 128,-1,17
 115 465 115 465 162.5 499.5 c 128,-1,18
 210 534 210 534 273 534 c 0,19,20
 373 534 373 534 425 466.5 c 128,-1,21
 477 399 477 399 477 281 c 0,22,0
 477 259 477 259 475 239 c 1,1,-1
420 299 m 2,23,24
 420 387 420 387 383.5 436.5 c 128,-1,25
 347 486 347 486 275 486 c 0,26,27
 210 486 210 486 170 436 c 128,-1,28
 130 386 130 386 126 284 c 1,29,-1
 420 284 l 1,30,-1
 420 299 l 2,23,24
EndSplineSet
Substitution2: "'smcp' Lowercase to Small Capitals lookup 27 subtable" e.sc
Substitution2: "'aalt' Access All Alternates lookup 0 subtable" e.sc
EndChar

